<svg width="1920" height="1080" viewBox="0 0 1920 1080" fill="none" xmlns="http://www.w3.org/2000/svg">
<g clip-path="url(#clip0_112_6)">
<rect width="1920" height="1080" fill="#09080A"/>
<g filter="url(#filter0_f_112_6)">
<ellipse cx="105.103" cy="53.9581" rx="222.057" ry="122.553" transform="rotate(-6.48121 105.103 53.9581)" fill="#4CDE1A"/>
</g>
<g filter="url(#filter1_f_112_6)">
<ellipse cx="1851.1" cy="433.958" rx="230.225" ry="127.061" transform="rotate(-6.48121 1851.1 433.958)" fill="#9AED13"/>
</g>
<g filter="url(#filter2_f_112_6)">
<ellipse cx="769.813" cy="1097.83" rx="208.719" ry="115.192" transform="rotate(-50.5779 769.813 1097.83)" fill="#EBFF00"/>
</g>
<path fill-rule="evenodd" clip-rule="evenodd" d="M1742.86 996.196V1017.73H1751.03V996.196H1742.86Z" fill="#4F9737"/>
<path fill-rule="evenodd" clip-rule="evenodd" d="M1744.87 991.925C1744.67 991.925 1746.65 992.292 1746.96 992.292C1748.38 992.292 1749.51 991.93 1750.34 991.206C1750.42 991.135 1750.5 991.068 1750.57 991.004C1751.81 989.932 1751.88 989.869 1752.63 988.742C1755.4 985.071 1755.22 979.194 1753.63 978C1748.77 979.748 1745.58 982.178 1743.48 985.161C1742.64 986.355 1742.33 987.302 1742.33 988.428C1742.33 989.663 1742.74 990.615 1743.54 991.286C1743.65 991.372 1743.76 991.453 1743.88 991.529C1746.87 988.264 1748.29 986.316 1750.24 982.575C1748.42 988.805 1746.31 990.681 1744.87 991.925Z" fill="#4F9737"/>
<path d="M1722.89 1017.73V996.196H1730.45L1730.94 1003.36L1729.13 1002.23C1729.47 1001 1730.03 999.899 1730.78 998.933C1731.53 997.94 1732.43 997.162 1733.47 996.599C1734.55 996.035 1735.69 995.753 1736.89 995.753C1737.38 995.753 1737.83 995.794 1738.26 995.874C1738.69 995.928 1739.11 996.008 1739.51 996.116L1737.26 1005.17C1736.99 1004.98 1736.56 1004.81 1735.97 1004.65C1735.4 1004.49 1734.79 1004.41 1734.12 1004.41C1733.63 1004.41 1733.19 1004.49 1732.79 1004.65C1732.41 1004.78 1732.09 1005 1731.82 1005.29C1731.58 1005.59 1731.39 1005.94 1731.26 1006.34C1731.13 1006.74 1731.06 1007.21 1731.06 1007.75V1017.73H1722.89Z" fill="#4F9737"/>
<path d="M1707.55 1017.73V990.763H1715.72V1017.73H1707.55ZM1704.21 1003.04V996.196H1719.26V1003.04H1704.21Z" fill="#4F9737"/>
<path d="M1686.7 1018.17C1685.06 1018.17 1683.68 1017.84 1682.55 1017.17C1681.43 1016.49 1680.57 1015.52 1679.98 1014.23C1679.39 1012.91 1679.09 1011.33 1679.09 1009.48V996.196H1687.26V1008.79C1687.26 1009.38 1687.36 1009.88 1687.54 1010.28C1687.76 1010.69 1688.05 1010.99 1688.43 1011.21C1688.81 1011.42 1689.26 1011.53 1689.8 1011.53C1690.2 1011.53 1690.56 1011.48 1690.89 1011.37C1691.23 1011.24 1691.53 1011.05 1691.77 1010.81C1692.01 1010.56 1692.2 1010.3 1692.33 1010C1692.47 1009.68 1692.54 1009.34 1692.54 1009V996.196H1700.71V1017.73H1693.22L1692.74 1013.38L1694.27 1012.9C1693.97 1013.92 1693.45 1014.83 1692.7 1015.64C1691.97 1016.41 1691.09 1017.03 1690.04 1017.49C1688.99 1017.94 1687.88 1018.17 1686.7 1018.17Z" fill="#4F9737"/>
<path d="M1647 1017.73V989.555H1654.77L1667.73 1007.47L1665.88 1006.9C1665.74 1005.83 1665.62 1004.89 1665.51 1004.08C1665.43 1003.28 1665.35 1002.54 1665.27 1001.87C1665.22 1001.17 1665.17 1000.49 1665.11 999.818C1665.08 999.148 1665.07 998.41 1665.07 997.605C1665.07 996.8 1665.07 995.861 1665.07 994.787V989.555H1673.44V1017.73H1665.59L1651.31 998.007L1654.57 998.973C1654.7 999.966 1654.81 1000.84 1654.89 1001.59C1655 1002.31 1655.08 1002.98 1655.13 1003.6C1655.18 1004.22 1655.22 1004.84 1655.25 1005.45C1655.3 1006.04 1655.33 1006.71 1655.33 1007.47C1655.36 1008.19 1655.37 1009.05 1655.37 1010.04V1017.73H1647Z" fill="#4F9737"/>
<path d="M1839.02 1017.31V992.987C1839.02 991.631 1839.31 990.431 1839.91 989.386C1840.5 988.312 1841.32 987.479 1842.36 986.886C1843.41 986.265 1844.62 985.954 1846.01 985.954C1846.97 985.954 1847.86 986.124 1848.68 986.462C1849.49 986.773 1850.19 987.211 1850.75 987.776L1849.14 991.716C1848.77 991.405 1848.38 991.165 1847.96 990.996C1847.56 990.826 1847.18 990.741 1846.81 990.741C1846.25 990.741 1845.77 990.84 1845.37 991.038C1845 991.208 1844.72 991.476 1844.52 991.843C1844.35 992.21 1844.27 992.648 1844.27 993.156V1017.31H1841.64C1841.13 1017.31 1840.65 1017.31 1840.2 1017.31C1839.78 1017.31 1839.38 1017.31 1839.02 1017.31ZM1835.54 1000.02V995.444H1849.31V1000.02H1835.54Z" fill="#C8C8C8"/>
<path d="M1825.61 1017.31V985.954H1830.86V1017.31H1825.61Z" fill="#C8C8C8"/>
<path d="M1764.95 1017.31L1755.71 987.649H1761.47L1766.73 1005.15C1766.9 1005.68 1767.05 1006.28 1767.19 1006.93C1767.33 1007.58 1767.46 1008.22 1767.57 1008.87C1767.69 1009.5 1767.79 1010.07 1767.87 1010.61C1767.96 1011.15 1768.04 1011.6 1768.13 1011.97L1766.98 1011.92C1767.32 1010.6 1767.59 1009.52 1767.79 1008.7C1767.98 1007.89 1768.15 1007.21 1768.29 1006.67C1768.46 1006.11 1768.63 1005.58 1768.8 1005.1L1773.8 992.309H1778.5L1783.38 1005.1C1783.66 1005.89 1783.91 1006.66 1784.14 1007.39C1784.37 1008.1 1784.55 1008.8 1784.69 1009.51C1784.86 1010.19 1785.02 1010.89 1785.16 1011.63L1784.14 1011.84C1784.25 1011.16 1784.34 1010.61 1784.39 1010.19C1784.45 1009.76 1784.51 1009.38 1784.56 1009.04C1784.62 1008.7 1784.68 1008.38 1784.73 1008.07C1784.79 1007.73 1784.87 1007.34 1784.99 1006.88C1785.13 1006.4 1785.3 1005.8 1785.5 1005.06L1790.71 987.649H1796.43L1787.15 1017.31H1783.17L1775.62 999.257L1776.13 999.427L1768.97 1017.31H1764.95Z" fill="#C8C8C8"/>
<path fill-rule="evenodd" clip-rule="evenodd" d="M1809.01 1016.21C1814.6 1016.21 1819.14 1011.67 1819.14 1006.08C1819.14 1000.48 1814.6 995.947 1809.01 995.947C1803.41 995.947 1798.88 1000.48 1798.88 1006.08C1798.88 1011.67 1803.41 1016.21 1809.01 1016.21ZM1809.01 1017.73C1815.44 1017.73 1820.66 1012.51 1820.66 1006.08C1820.66 999.643 1815.44 994.427 1809.01 994.427C1802.57 994.427 1797.36 999.643 1797.36 1006.08C1797.36 1012.51 1802.57 1017.73 1809.01 1017.73Z" fill="#C8C8C8"/>
<path fill-rule="evenodd" clip-rule="evenodd" d="M1809.01 993.779C1810.4 993.779 1811.53 992.694 1811.53 991.356C1811.53 990.017 1810.4 988.932 1809.01 988.932C1807.62 988.932 1806.49 990.017 1806.49 991.356C1806.49 992.694 1807.62 993.779 1809.01 993.779ZM1809.01 994.004C1810.53 994.004 1811.76 992.818 1811.76 991.356C1811.76 989.894 1810.53 988.708 1809.01 988.708C1807.49 988.708 1806.25 989.894 1806.25 991.356C1806.25 992.818 1807.49 994.004 1809.01 994.004Z" fill="#C8C8C8"/>
<path d="M1802.65 1012.55C1803.69 1013.6 1804.97 1014.37 1806.38 1014.8C1807.78 1015.23 1809.27 1015.3 1810.71 1015.01C1812.15 1014.72 1813.5 1014.08 1814.64 1013.14C1815.77 1012.2 1816.66 1011 1817.23 1009.63C1817.79 1008.26 1818.01 1006.77 1817.86 1005.3C1817.72 1003.83 1817.22 1002.41 1816.4 1001.18C1815.58 999.951 1814.48 998.942 1813.18 998.244C1811.89 997.546 1810.44 997.181 1808.97 997.181L1808.97 1006.18L1802.65 1012.55Z" fill="#C8C8C8"/>
<path d="M1807.31 991.78C1807.31 991.487 1807.56 991.25 1807.86 991.25H1810.15C1810.46 991.25 1810.7 991.487 1810.7 991.78V991.78C1810.7 992.072 1810.46 992.309 1810.15 992.309H1807.86C1807.56 992.309 1807.31 992.072 1807.31 991.78V991.78Z" fill="#C8C8C8"/>
<path d="M1807.31 991.78C1807.31 991.487 1807.56 991.25 1807.86 991.25H1810.15C1810.46 991.25 1810.7 991.487 1810.7 991.78V991.78C1810.7 992.072 1810.46 992.309 1810.15 992.309H1807.86C1807.56 992.309 1807.31 992.072 1807.31 991.78V991.78Z" fill="#C8C8C8"/>
<path d="M1808.16 992.121C1808.16 991.64 1808.54 991.25 1809.01 991.25V991.25C1809.48 991.25 1809.86 991.64 1809.86 992.121V995.039C1809.86 995.52 1809.48 995.91 1809.01 995.91V995.91C1808.54 995.91 1808.16 995.52 1808.16 995.039V992.121Z" fill="#C8C8C8"/>
<path d="M1808.16 992.121C1808.16 991.64 1808.54 991.25 1809.01 991.25V991.25C1809.48 991.25 1809.86 991.64 1809.86 992.121V995.039C1809.86 995.52 1809.48 995.91 1809.01 995.91V995.91C1808.54 995.91 1808.16 995.52 1808.16 995.039V992.121Z" fill="#C8C8C8"/>
<path d="M1799.03 997.344C1798.89 997.202 1798.89 996.972 1799.03 996.832L1800.47 995.414C1800.62 995.274 1800.85 995.276 1800.99 995.419V995.419C1801.13 995.562 1801.12 995.791 1800.98 995.931L1799.54 997.349C1799.4 997.489 1799.17 997.487 1799.03 997.344V997.344Z" fill="#C8C8C8"/>
<path d="M1799.03 997.344C1798.89 997.202 1798.89 996.972 1799.03 996.832L1800.47 995.414C1800.62 995.274 1800.85 995.276 1800.99 995.419V995.419C1801.13 995.562 1801.12 995.791 1800.98 995.931L1799.54 997.349C1799.4 997.489 1799.17 997.487 1799.03 997.344V997.344Z" fill="#C8C8C8"/>
<path d="M1799.9 997.144C1799.66 996.904 1799.67 996.517 1799.91 996.281V996.281C1800.15 996.044 1800.54 996.048 1800.77 996.288L1801.93 997.464C1802.16 997.705 1802.16 998.092 1801.92 998.328V998.328C1801.68 998.564 1801.29 998.561 1801.05 998.32L1799.9 997.144Z" fill="#C8C8C8"/>
<path d="M1799.9 997.144C1799.66 996.904 1799.67 996.517 1799.91 996.281V996.281C1800.15 996.044 1800.54 996.048 1800.77 996.288L1801.93 997.464C1802.16 997.705 1802.16 998.092 1801.92 998.328V998.328C1801.68 998.564 1801.29 998.561 1801.05 998.32L1799.9 997.144Z" fill="#C8C8C8"/>
</g>
<defs>
<filter id="filter0_f_112_6" x="-812.976" y="-767.39" width="1836.16" height="1642.7" filterUnits="userSpaceOnUse" color-interpolation-filters="sRGB">
<feFlood flood-opacity="0" result="BackgroundImageFix"/>
<feBlend mode="normal" in="SourceGraphic" in2="BackgroundImageFix" result="shape"/>
<feGaussianBlur stdDeviation="348.5" result="effect1_foregroundBlur_112_6"/>
</filter>
<filter id="filter1_f_112_6" x="924.892" y="-391.963" width="1852.42" height="1651.84" filterUnits="userSpaceOnUse" color-interpolation-filters="sRGB">
<feFlood flood-opacity="0" result="BackgroundImageFix"/>
<feBlend mode="normal" in="SourceGraphic" in2="BackgroundImageFix" result="shape"/>
<feGaussianBlur stdDeviation="348.5" result="effect1_foregroundBlur_112_6"/>
</filter>
<filter id="filter2_f_112_6" x="-86.8462" y="223.734" width="1713.32" height="1748.19" filterUnits="userSpaceOnUse" color-interpolation-filters="sRGB">
<feFlood flood-opacity="0" result="BackgroundImageFix"/>
<feBlend mode="normal" in="SourceGraphic" in2="BackgroundImageFix" result="shape"/>
<feGaussianBlur stdDeviation="348.5" result="effect1_foregroundBlur_112_6"/>
</filter>
<clipPath id="clip0_112_6">
<rect width="1920" height="1080" fill="white"/>
</clipPath>
</defs>
</svg>
