<svg width="617" height="819" viewBox="0 0 617 819" fill="none" xmlns="http://www.w3.org/2000/svg">
<g filter="url(#filter0_bd_106_5)">
<rect x="91" y="87" width="435" height="637" rx="44" fill="url(#paint0_linear_106_5)" fill-opacity="0.26" shape-rendering="crispEdges"/>
<rect x="92.5" y="88.5" width="432" height="634" rx="42.5" stroke="url(#paint1_linear_106_5)" stroke-width="3" shape-rendering="crispEdges"/>
</g>
<path d="M222.44 596.362C222.44 598.846 222.03 600.982 221.209 602.771C220.389 604.559 219.233 605.938 217.74 606.906C216.248 607.863 214.487 608.342 212.459 608.342C210.5 608.342 208.762 607.863 207.247 606.906C205.732 605.938 204.547 604.559 203.692 602.771C202.838 600.982 202.411 598.846 202.411 596.362V594.772C202.411 592.289 202.832 590.153 203.675 588.364C204.53 586.564 205.709 585.185 207.213 584.228C208.728 583.26 210.466 582.775 212.425 582.775C214.453 582.775 216.214 583.26 217.706 584.228C219.21 585.185 220.372 586.564 221.192 588.364C222.024 590.153 222.44 592.289 222.44 594.772V596.362ZM219.159 594.738C219.159 592.756 218.891 591.087 218.355 589.731C217.82 588.364 217.051 587.327 216.048 586.621C215.046 585.914 213.838 585.561 212.425 585.561C211.069 585.561 209.885 585.914 208.871 586.621C207.868 587.327 207.088 588.364 206.529 589.731C205.982 591.087 205.709 592.756 205.709 594.738V596.362C205.709 598.356 205.988 600.036 206.546 601.403C207.105 602.771 207.891 603.807 208.905 604.514C209.919 605.22 211.104 605.573 212.459 605.573C213.884 605.573 215.091 605.22 216.083 604.514C217.085 603.807 217.848 602.771 218.373 601.403C218.897 600.036 219.159 598.356 219.159 596.362V594.738ZM242.35 583.117H245.956L236.744 608H234.181L235.035 604.24L242.35 583.117ZM235.462 604.24L236.368 608H233.805L224.61 583.117H228.216L235.462 604.24ZM265.13 608H251.988V605.334H265.13V608ZM252.638 608H249.322V583.117H252.638V608ZM263.387 596.481H251.988V593.815H263.387V596.481ZM264.959 585.8H251.988V583.117H264.959V585.8ZM277.452 583.117C279.321 583.117 280.904 583.402 282.203 583.972C283.502 584.541 284.487 585.384 285.16 586.501C285.843 587.606 286.185 588.968 286.185 590.585C286.185 591.725 285.951 592.762 285.484 593.696C285.029 594.63 284.368 595.428 283.502 596.088C282.636 596.749 281.605 597.239 280.409 597.558L279.486 597.917H271.761L271.727 595.251H277.538C278.722 595.251 279.708 595.04 280.494 594.619C281.28 594.197 281.867 593.633 282.254 592.927C282.653 592.22 282.853 591.44 282.853 590.585C282.853 589.139 282.425 587.982 281.571 587.116C280.716 586.239 279.343 585.8 277.452 585.8H272.53V608H269.215V583.117H277.452ZM277.691 596.721H281.161L287.279 607.795V608H283.724L277.691 596.721ZM302.25 583.117H304.676L303.275 589.833L297.977 608H295.567L297.328 600.498L302.25 583.117ZM296.166 600.173L297.328 608H294.952L288.937 583.117H292.252L296.166 600.173ZM314.862 583.117H318.194L312.179 608H309.803L311.034 600.156L314.862 583.117ZM309.82 600.498L311.563 608H309.154L304.044 589.833L302.66 583.117H305.035L309.82 600.498ZM337.66 608H324.518V605.334H337.66V608ZM325.167 608H321.852V583.117H325.167V608ZM335.917 596.481H324.518V593.815H335.917V596.481ZM337.489 585.8H324.518V583.117H337.489V585.8ZM345.299 608H341.983V583.117H345.299V608ZM369.669 604.736C369.361 605.18 368.871 605.687 368.199 606.257C367.538 606.815 366.616 607.305 365.431 607.727C364.257 608.137 362.736 608.342 360.868 608.342C358.851 608.342 357.057 607.875 355.484 606.94C353.924 606.006 352.699 604.656 351.81 602.89C350.921 601.124 350.477 599.005 350.477 596.533V594.567C350.477 592.095 350.864 589.982 351.639 588.227C352.414 586.461 353.542 585.111 355.023 584.177C356.515 583.243 358.333 582.775 360.475 582.775C362.377 582.775 363.972 583.106 365.26 583.767C366.547 584.416 367.55 585.316 368.268 586.467C368.997 587.618 369.464 588.928 369.669 590.397H366.354C366.205 589.497 365.909 588.677 365.465 587.937C365.032 587.185 364.411 586.586 363.602 586.142C362.793 585.686 361.756 585.458 360.492 585.458C358.954 585.458 357.689 585.829 356.698 586.569C355.718 587.299 354.989 588.341 354.51 589.697C354.043 591.053 353.81 592.665 353.81 594.533V596.533C353.81 598.447 354.106 600.087 354.698 601.455C355.291 602.81 356.117 603.853 357.176 604.582C358.236 605.311 359.472 605.676 360.885 605.676C362.058 605.676 363.004 605.579 363.722 605.385C364.451 605.18 365.021 604.941 365.431 604.667C365.841 604.383 366.154 604.115 366.371 603.864V598.259H360.628V595.61H369.669V604.736ZM391.373 596.481H377.94V593.815H391.373V596.481ZM378.453 608H375.138V583.117H378.453V608ZM394.278 608H390.963V583.117H394.278V608ZM408.822 608H405.541V583.117H408.822V608ZM416.803 585.8H397.577V583.117H416.803V585.8Z" fill="white" fill-opacity="0.5"/>
<circle cx="308" cy="183" r="30" fill="#D9D9D9"/>
<rect x="252" y="384" width="52" height="125" fill="#D9D9D9"/>
<rect x="313" y="384" width="52" height="125" fill="#D9D9D9"/>
<rect x="313" y="384" width="52" height="125" fill="#D9D9D9"/>
<circle cx="397" cy="355" r="26" fill="#D9D9D9"/>
<circle cx="339" cy="509" r="26" fill="#D9D9D9"/>
<circle cx="278" cy="509" r="26" fill="#D9D9D9"/>
<circle cx="221" cy="355" r="26" fill="#D9D9D9"/>
<circle cx="223.5" cy="246.5" r="28.5" fill="#D9D9D9"/>
<circle cx="394.5" cy="246.5" r="28.5" fill="#D9D9D9"/>
<rect x="371" y="244" width="52" height="111" fill="#D9D9D9"/>
<circle cx="259" cy="239" r="21" fill="#D9D9D9"/>
<circle cx="358" cy="239" r="21" fill="#D9D9D9"/>
<rect x="195" y="246" width="52" height="109" fill="#D9D9D9"/>
<rect x="252" y="218" width="113" height="166" fill="#D9D9D9"/>
<rect x="221" y="218" width="172" height="59" fill="#D9D9D9"/>
<defs>
<filter id="filter0_bd_106_5" x="0" y="0" width="617" height="819" filterUnits="userSpaceOnUse" color-interpolation-filters="sRGB">
<feFlood flood-opacity="0" result="BackgroundImageFix"/>
<feGaussianBlur in="BackgroundImageFix" stdDeviation="23"/>
<feComposite in2="SourceAlpha" operator="in" result="effect1_backgroundBlur_106_5"/>
<feColorMatrix in="SourceAlpha" type="matrix" values="0 0 0 0 0 0 0 0 0 0 0 0 0 0 0 0 0 0 127 0" result="hardAlpha"/>
<feOffset dy="4"/>
<feGaussianBlur stdDeviation="45.5"/>
<feComposite in2="hardAlpha" operator="out"/>
<feColorMatrix type="matrix" values="0 0 0 0 0 0 0 0 0 0 0 0 0 0 0 0 0 0 0.25 0"/>
<feBlend mode="normal" in2="effect1_backgroundBlur_106_5" result="effect2_dropShadow_106_5"/>
<feBlend mode="normal" in="SourceGraphic" in2="effect2_dropShadow_106_5" result="shape"/>
</filter>
<linearGradient id="paint0_linear_106_5" x1="226.391" y1="151.32" x2="535.179" y2="266.804" gradientUnits="userSpaceOnUse">
<stop stop-color="#484848"/>
<stop offset="1" stop-color="#3E3D3D" stop-opacity="0.17"/>
</linearGradient>
<linearGradient id="paint1_linear_106_5" x1="99.9073" y1="108.311" x2="531.915" y2="254.757" gradientUnits="userSpaceOnUse">
<stop stop-color="#51D62A" stop-opacity="0.39"/>
<stop offset="0.609202" stop-color="#384138" stop-opacity="0.32"/>
<stop offset="1" stop-color="#A7D71F" stop-opacity="0.21"/>
</linearGradient>
</defs>
</svg>
