<svg width="617" height="819" viewBox="0 0 617 819" fill="none" xmlns="http://www.w3.org/2000/svg">
<g filter="url(#filter0_bd_106_4)">
<rect x="91" y="87" width="435" height="637" rx="44" fill="url(#paint0_linear_106_4)" fill-opacity="0.26" shape-rendering="crispEdges"/>
<rect x="92.5" y="88.5" width="432" height="634" rx="42.5" stroke="url(#paint1_linear_106_4)" stroke-width="3" shape-rendering="crispEdges"/>
</g>
<path d="M290.321 608H287.005V583.117H290.321V608ZM300.729 596.994H289.603V594.328H300.729V596.994ZM302.42 585.8H289.603V583.117H302.42V585.8ZM309.906 608H306.59V583.117H309.906V608ZM325.099 608H321.817V583.117H325.099V608ZM333.08 585.8H313.854V583.117H333.08V585.8Z" fill="white" fill-opacity="0.5"/>
<circle cx="308" cy="183" r="30" fill="#D9D9D9"/>
<rect x="276" y="384" width="30" height="125" fill="#D9D9D9"/>
<circle cx="326" cy="509" r="15" fill="#D9D9D9"/>
<circle cx="291" cy="509" r="15" fill="#D9D9D9"/>
<rect x="311" y="384" width="30" height="125" fill="#D9D9D9"/>
<rect x="311" y="384" width="30" height="125" fill="#D9D9D9"/>
<circle cx="364" cy="355" r="15" fill="#D9D9D9"/>
<rect x="349" y="239" width="30" height="116" fill="#D9D9D9"/>
<circle cx="253" cy="355" r="15" fill="#D9D9D9"/>
<circle cx="259" cy="239" r="21" fill="#D9D9D9"/>
<circle cx="358" cy="239" r="21" fill="#D9D9D9"/>
<rect x="238" y="239" width="30" height="116" fill="#D9D9D9"/>
<rect x="276" y="218" width="65" height="166" fill="#D9D9D9"/>
<rect x="256" y="218" width="103" height="59" fill="#D9D9D9"/>
<defs>
<filter id="filter0_bd_106_4" x="0" y="0" width="617" height="819" filterUnits="userSpaceOnUse" color-interpolation-filters="sRGB">
<feFlood flood-opacity="0" result="BackgroundImageFix"/>
<feGaussianBlur in="BackgroundImageFix" stdDeviation="23"/>
<feComposite in2="SourceAlpha" operator="in" result="effect1_backgroundBlur_106_4"/>
<feColorMatrix in="SourceAlpha" type="matrix" values="0 0 0 0 0 0 0 0 0 0 0 0 0 0 0 0 0 0 127 0" result="hardAlpha"/>
<feOffset dy="4"/>
<feGaussianBlur stdDeviation="45.5"/>
<feComposite in2="hardAlpha" operator="out"/>
<feColorMatrix type="matrix" values="0 0 0 0 0 0 0 0 0 0 0 0 0 0 0 0 0 0 0.25 0"/>
<feBlend mode="normal" in2="effect1_backgroundBlur_106_4" result="effect2_dropShadow_106_4"/>
<feBlend mode="normal" in="SourceGraphic" in2="effect2_dropShadow_106_4" result="shape"/>
</filter>
<linearGradient id="paint0_linear_106_4" x1="226.391" y1="151.32" x2="535.179" y2="266.804" gradientUnits="userSpaceOnUse">
<stop stop-color="#484848"/>
<stop offset="1" stop-color="#3E3D3D" stop-opacity="0.17"/>
</linearGradient>
<linearGradient id="paint1_linear_106_4" x1="99.9073" y1="108.311" x2="531.915" y2="254.757" gradientUnits="userSpaceOnUse">
<stop stop-color="#51D62A" stop-opacity="0.39"/>
<stop offset="0.609202" stop-color="#384138" stop-opacity="0.32"/>
<stop offset="1" stop-color="#A7D71F" stop-opacity="0.21"/>
</linearGradient>
</defs>
</svg>
