<svg width="26" height="46" viewBox="0 0 26 46" fill="none" xmlns="http://www.w3.org/2000/svg">
<path d="M2.43934 23.9575L3.50001 22.8968L3.5 22.8968L2.43934 23.9575ZM2.43934 21.8362L1.37868 20.7755H1.37868L2.43934 21.8362ZM2.50201 24.0167L3.62038 23.0171L3.56405 22.9541L3.501 22.8978L2.50201 24.0167ZM2.56066 24.0787L3.62132 23.0181L3.62132 23.0181L2.56066 24.0787ZM21.6525 43.1706L20.5919 44.2313L21.6525 43.1706ZM23.7739 43.1706L22.7132 42.1099L22.7132 42.11L23.7739 43.1706ZM23.7739 41.0493L22.7132 42.11L23.7739 41.0493ZM5.62135 22.8968L4.56069 21.8361L3.50003 22.8968L4.56069 23.9574L5.62135 22.8968ZM23.6525 4.86559L22.5919 3.80493V3.80493L23.6525 4.86559ZM23.6525 2.74427L22.5919 3.80493L22.5919 3.80493L23.6525 2.74427ZM21.5312 2.74427L22.5919 3.80493L22.5919 3.80493L21.5312 2.74427ZM3.5 22.8968L1.37868 20.7755C0.207107 21.9471 0.207107 23.8466 1.37868 25.0181L3.5 22.8968ZM3.501 22.8978C3.50076 22.8976 3.50043 22.8972 3.50001 22.8968L1.37867 25.0181C1.41917 25.0586 1.46064 25.0978 1.50303 25.1356L3.501 22.8978ZM3.62132 23.0181C3.62089 23.0176 3.62058 23.0173 3.62038 23.0171L1.38365 25.0163C1.42114 25.0583 1.45994 25.0993 1.5 25.1394L3.62132 23.0181ZM22.7132 42.1099L3.62132 23.0181L1.5 25.1394L20.5919 44.2313L22.7132 42.1099ZM22.7132 42.11L22.7132 42.1099L20.5919 44.2313C21.7635 45.4028 23.6629 45.4028 24.8345 44.2313L22.7132 42.11ZM22.7132 42.11V42.1099L24.8345 44.2313C26.0061 43.0597 26.0061 41.1602 24.8345 39.9886L22.7132 42.11ZM4.56069 23.9574L22.7132 42.11L24.8345 39.9886L6.68201 21.8361L4.56069 23.9574ZM22.5919 3.80493L4.56069 21.8361L6.68201 23.9574L24.7132 5.92625L22.5919 3.80493ZM22.5919 3.80493V3.80493L24.7132 5.92625C25.8848 4.75468 25.8848 2.85518 24.7132 1.68361L22.5919 3.80493ZM22.5919 3.80493L22.5919 3.80493L24.7132 1.68361C23.5416 0.512037 21.6421 0.512039 20.4706 1.68361L22.5919 3.80493ZM3.5 22.8968L22.5919 3.80493L20.4706 1.68361L1.37868 20.7755L3.5 22.8968Z" fill="white" fill-opacity="0.5"/>
</svg>
