<svg width="1464" height="1449" viewBox="0 0 1464 1449" fill="none" xmlns="http://www.w3.org/2000/svg">
<path d="M25.5322 16.1523C25.5322 17.0182 25.3304 17.7539 24.9268 18.3594C24.5296 18.9583 23.9893 19.4141 23.3057 19.7266C22.6286 20.0391 21.8636 20.1953 21.0107 20.1953C20.1579 20.1953 19.3896 20.0391 18.7061 19.7266C18.0225 19.4141 17.4821 18.9583 17.085 18.3594C16.6878 17.7539 16.4893 17.0182 16.4893 16.1523C16.4893 15.4036 16.6813 14.7363 17.0654 14.1504C17.4495 13.5645 17.9801 13.1055 18.6572 12.7734C19.3343 12.4349 20.1123 12.2656 20.9912 12.2656C21.8636 12.2656 22.6416 12.4349 23.3252 12.7734C24.0088 13.1055 24.5459 13.5645 24.9365 14.1504C25.3337 14.7363 25.5322 15.4036 25.5322 16.1523ZM23.7061 16.1133C23.7061 15.5859 23.5921 15.1204 23.3643 14.7168C23.1364 14.3066 22.8174 13.9876 22.4072 13.7598C22.0036 13.5319 21.5316 13.418 20.9912 13.418C20.4443 13.418 19.9691 13.5319 19.5654 13.7598C19.1683 13.9876 18.859 14.3066 18.6377 14.7168C18.4229 15.1204 18.3154 15.5859 18.3154 16.1133C18.3154 16.6602 18.4229 17.1289 18.6377 17.5195C18.859 17.9102 19.1715 18.2096 19.5752 18.418C19.9788 18.6263 20.4574 18.7305 21.0107 18.7305C21.5706 18.7305 22.0492 18.6263 22.4463 18.418C22.8499 18.2096 23.1592 17.9102 23.374 17.5195C23.5954 17.1289 23.7061 16.6602 23.7061 16.1133ZM25.2002 9.48242C25.2002 10.1725 25.0179 10.7943 24.6533 11.3477C24.2887 11.901 23.7907 12.3372 23.1592 12.6562C22.5277 12.9753 21.8115 13.1348 21.0107 13.1348C20.1969 13.1348 19.471 12.9753 18.833 12.6562C18.2015 12.3372 17.7067 11.901 17.3486 11.3477C16.9906 10.7943 16.8115 10.1725 16.8115 9.48242C16.8115 8.6556 16.9906 7.95247 17.3486 7.37305C17.7132 6.79362 18.2113 6.35091 18.8428 6.04492C19.4808 5.73893 20.2035 5.58594 21.0107 5.58594C21.818 5.58594 22.5374 5.73893 23.1689 6.04492C23.8005 6.35091 24.2952 6.79362 24.6533 7.37305C25.0179 7.95247 25.2002 8.6556 25.2002 9.48242ZM23.374 9.51172C23.374 9.03646 23.2731 8.61654 23.0713 8.25195C22.876 7.88086 22.5993 7.58789 22.2412 7.37305C21.8896 7.1582 21.4795 7.05078 21.0107 7.05078C20.5355 7.05078 20.1188 7.15169 19.7607 7.35352C19.4092 7.55534 19.1325 7.8418 18.9307 8.21289C18.7354 8.57747 18.6377 9.01042 18.6377 9.51172C18.6377 10 18.7354 10.4264 18.9307 10.791C19.1325 11.1556 19.4092 11.4388 19.7607 11.6406C20.1188 11.8424 20.5355 11.9434 21.0107 11.9434C21.486 11.9434 21.8994 11.8424 22.251 11.6406C22.6025 11.4388 22.876 11.1556 23.0713 10.791C23.2731 10.4264 23.374 10 23.374 9.51172ZM28.8623 20H26.9092L32.3389 5.78125H33.5889L33.5596 7.03125L28.8623 20ZM32.7783 7.03125L32.7588 5.78125H33.999L39.4385 20H37.4951L32.7783 7.03125ZM37.2607 16.2793H29.2627V14.7461H37.2607V16.2793ZM43.7939 5.78125L48.4326 17.4023L53.0713 5.78125H54.917L49.1455 20H47.71L41.9482 5.78125H43.7939ZM42.9736 5.78125L43.2373 14.4434V20H41.3525V5.78125H42.9736ZM55.5127 5.78125V20H53.6279V14.4434L53.8916 5.78125H55.5127Z" fill="white" fill-opacity="0.8"/>
<path d="M71 14H1464" stroke="white" stroke-opacity="0.8" stroke-width="2"/>
<path d="M18.5498 127.826C19.5915 127.826 20.4378 127.679 21.0889 127.386C21.7399 127.093 22.238 126.699 22.583 126.205C22.9346 125.703 23.1755 125.143 23.3057 124.525C23.4359 123.9 23.501 123.259 23.501 122.601V120.423C23.501 119.557 23.374 118.825 23.1201 118.226C22.8662 117.627 22.5309 117.175 22.1143 116.869C21.7041 116.556 21.2581 116.4 20.7764 116.4C20.223 116.4 19.7477 116.546 19.3506 116.839C18.96 117.132 18.6605 117.529 18.4521 118.031C18.2503 118.532 18.1494 119.098 18.1494 119.73C18.1494 120.29 18.2406 120.827 18.4229 121.341C18.6117 121.856 18.8949 122.276 19.2725 122.601C19.6566 122.927 20.1383 123.089 20.7178 123.089C21.1149 123.089 21.4893 123.008 21.8408 122.845C22.1989 122.682 22.5146 122.464 22.7881 122.191C23.0615 121.911 23.2829 121.595 23.4521 121.244C23.6214 120.886 23.7191 120.514 23.7451 120.13H24.6143C24.6143 120.671 24.5068 121.205 24.292 121.732C24.0837 122.259 23.7907 122.738 23.4131 123.167C23.0355 123.597 22.5928 123.939 22.085 124.193C21.5771 124.447 21.0238 124.574 20.4248 124.574C19.4873 124.574 18.7191 124.339 18.1201 123.871C17.5212 123.402 17.0785 122.806 16.792 122.083C16.5055 121.354 16.3623 120.602 16.3623 119.828C16.3623 118.923 16.5283 118.099 16.8604 117.357C17.1924 116.615 17.6872 116.022 18.3447 115.58C19.0023 115.137 19.8128 114.916 20.7764 114.916C21.5902 114.916 22.2835 115.078 22.8564 115.404C23.4359 115.723 23.9046 116.156 24.2627 116.703C24.6273 117.25 24.8942 117.865 25.0635 118.548C25.2327 119.232 25.3174 119.935 25.3174 120.658V121.332C25.3174 122.074 25.2686 122.826 25.1709 123.587C25.0798 124.343 24.9007 125.065 24.6338 125.755C24.3734 126.439 23.9925 127.054 23.4912 127.601C22.9899 128.141 22.3356 128.568 21.5283 128.88C20.7275 129.193 19.7347 129.349 18.5498 129.349H18.3643V127.826H18.5498ZM28.8623 129.33H26.9092L32.3389 115.111H33.5889L33.5596 116.361L28.8623 129.33ZM32.7783 116.361L32.7588 115.111H33.999L39.4385 129.33H37.4951L32.7783 116.361ZM37.2607 125.609H29.2627V124.076H37.2607V125.609ZM43.7939 115.111L48.4326 126.732L53.0713 115.111H54.917L49.1455 129.33H47.71L41.9482 115.111H43.7939ZM42.9736 115.111L43.2373 123.773V129.33H41.3525V115.111H42.9736ZM55.5127 115.111V129.33H53.6279V123.773L53.8916 115.111H55.5127Z" fill="white" fill-opacity="0.8"/>
<path d="M71 123.74H1464" stroke="white" stroke-opacity="0.8" stroke-width="2"/>
<path d="M7.12891 238.659H5.30273V226.599L1.66992 227.937V226.306L6.8457 224.362H7.12891V238.659ZM21.3574 232.595C21.3574 234.138 21.1751 235.368 20.8105 236.286C20.4525 237.198 19.9382 237.855 19.2676 238.259C18.597 238.656 17.8027 238.854 16.8848 238.854C15.9798 238.854 15.1888 238.656 14.5117 238.259C13.8346 237.855 13.3073 237.198 12.9297 236.286C12.5586 235.368 12.373 234.138 12.373 232.595V230.417C12.373 228.868 12.5553 227.644 12.9199 226.745C13.291 225.847 13.8118 225.205 14.4824 224.821C15.1595 224.437 15.9538 224.245 16.8652 224.245C17.7832 224.245 18.5775 224.437 19.248 224.821C19.9186 225.205 20.4362 225.847 20.8008 226.745C21.1719 227.644 21.3574 228.868 21.3574 230.417V232.595ZM19.5312 230.114C19.5312 229.047 19.4303 228.19 19.2285 227.546C19.0267 226.901 18.7272 226.436 18.3301 226.149C17.9329 225.856 17.4447 225.71 16.8652 225.71C16.2923 225.71 15.8073 225.856 15.4102 226.149C15.013 226.436 14.7103 226.901 14.502 227.546C14.3001 228.19 14.1992 229.047 14.1992 230.114V232.878C14.1992 233.939 14.3034 234.802 14.5117 235.466C14.7201 236.13 15.0228 236.618 15.4199 236.931C15.8236 237.237 16.3118 237.39 16.8848 237.39C17.4707 237.39 17.959 237.237 18.3496 236.931C18.7402 236.618 19.0332 236.13 19.2285 235.466C19.4303 234.802 19.5312 233.939 19.5312 232.878V230.114ZM24.7266 238.659H22.7734L28.2031 224.44H29.4531L29.4238 225.69L24.7266 238.659ZM28.6426 225.69L28.623 224.44H29.8633L35.3027 238.659H33.3594L28.6426 225.69ZM33.125 234.938H25.127V233.405H33.125V234.938ZM39.6582 224.44L44.2969 236.062L48.9355 224.44H50.7812L45.0098 238.659H43.5742L37.8125 224.44H39.6582ZM38.8379 224.44L39.1016 233.103V238.659H37.2168V224.44H38.8379ZM51.377 224.44V238.659H49.4922V233.103L49.7559 224.44H51.377Z" fill="white" fill-opacity="0.8"/>
<path d="M71 233.479H1464" stroke="white" stroke-opacity="0.8" stroke-width="2"/>
<path d="M7.12891 347.989H5.30273V335.928L1.66992 337.266V335.635L6.8457 333.692H7.12891V347.989ZM18.3789 347.989H16.5527V335.928L12.9199 337.266V335.635L18.0957 333.692H18.3789V347.989ZM24.7266 347.989H22.7734L28.2031 333.77H29.4531L29.4238 335.02L24.7266 347.989ZM28.6426 335.02L28.623 333.77H29.8633L35.3027 347.989H33.3594L28.6426 335.02ZM33.125 344.268H25.127V342.735H33.125V344.268ZM39.6582 333.77L44.2969 345.391L48.9355 333.77H50.7812L45.0098 347.989H43.5742L37.8125 333.77H39.6582ZM38.8379 333.77L39.1016 342.432V347.989H37.2168V333.77H38.8379ZM51.377 333.77V347.989H49.4922V342.432L49.7559 333.77H51.377Z" fill="white" fill-opacity="0.8"/>
<path d="M71 342.219H1464" stroke="white" stroke-opacity="0.8" stroke-width="2"/>
<path d="M7.12891 457.318H5.30273V445.258L1.66992 446.596V444.965L6.8457 443.021H7.12891V457.318ZM21.7578 457.318H12.4316V456.029L17.0898 450.844C17.6693 450.206 18.1152 449.665 18.4277 449.223C18.7467 448.773 18.9681 448.37 19.0918 448.012C19.2155 447.654 19.2773 447.289 19.2773 446.918C19.2773 446.215 19.0625 445.616 18.6328 445.121C18.2096 444.62 17.6042 444.369 16.8164 444.369C16.1784 444.369 15.6478 444.493 15.2246 444.74C14.8079 444.988 14.4954 445.329 14.2871 445.766C14.0853 446.202 13.9844 446.706 13.9844 447.279H12.1582C12.1582 446.479 12.334 445.746 12.6855 445.082C13.0371 444.418 13.5579 443.891 14.248 443.5C14.9447 443.103 15.8008 442.904 16.8164 442.904C18.1576 442.904 19.2057 443.253 19.9609 443.949C20.7227 444.646 21.1035 445.564 21.1035 446.703C21.1035 447.263 20.9831 447.826 20.7422 448.393C20.5013 448.959 20.179 449.522 19.7754 450.082C19.3717 450.635 18.9258 451.176 18.4375 451.703L14.6289 455.854H21.7578V457.318ZM25.6152 451.742V450.219H29.4043C30.14 450.219 30.7324 450.102 31.1816 449.867C31.6374 449.626 31.9694 449.298 32.1777 448.881C32.3926 448.464 32.5 447.989 32.5 447.455C32.5 446.967 32.3926 446.508 32.1777 446.078C31.9694 445.648 31.6374 445.3 31.1816 445.033C30.7324 444.766 30.14 444.633 29.4043 444.633H26.0449V457.318H24.1504V443.1H29.4043C30.4785 443.1 31.3867 443.285 32.1289 443.656C32.8711 444.027 33.4342 444.538 33.8184 445.189C34.2025 445.84 34.3945 446.589 34.3945 447.436C34.3945 448.347 34.2025 449.125 33.8184 449.77C33.4342 450.414 32.8711 450.906 32.1289 451.244C31.3867 451.576 30.4785 451.742 29.4043 451.742H25.6152ZM39.2285 443.1L43.8672 454.721L48.5059 443.1H50.3516L44.5801 457.318H43.1445L37.3828 443.1H39.2285ZM38.4082 443.1L38.6719 451.762V457.318H36.7871V443.1H38.4082ZM50.9473 443.1V457.318H49.0625V451.762L49.3262 443.1H50.9473Z" fill="white" fill-opacity="0.8"/>
<path d="M71 451.958H1464" stroke="white" stroke-opacity="0.8" stroke-width="2"/>
<path d="M22.5146 566.648H20.6885V554.587L17.0557 555.925V554.294L22.2314 552.351H22.5146V566.648ZM29.751 561.072V559.548H33.54C34.2757 559.548 34.8682 559.431 35.3174 559.197C35.7731 558.956 36.1051 558.627 36.3135 558.21C36.5283 557.794 36.6357 557.319 36.6357 556.785C36.6357 556.296 36.5283 555.837 36.3135 555.408C36.1051 554.978 35.7731 554.63 35.3174 554.363C34.8682 554.096 34.2757 553.962 33.54 553.962H30.1807V566.648H28.2861V552.429H33.54C34.6143 552.429 35.5225 552.615 36.2646 552.986C37.0068 553.357 37.57 553.868 37.9541 554.519C38.3382 555.17 38.5303 555.919 38.5303 556.765C38.5303 557.677 38.3382 558.455 37.9541 559.099C37.57 559.744 37.0068 560.235 36.2646 560.574C35.5225 560.906 34.6143 561.072 33.54 561.072H29.751ZM43.3643 552.429L48.0029 564.05L52.6416 552.429H54.4873L48.7158 566.648H47.2803L41.5186 552.429H43.3643ZM42.5439 552.429L42.8076 561.091V566.648H40.9229V552.429H42.5439ZM55.083 552.429V566.648H53.1982V561.091L53.4619 552.429H55.083Z" fill="white" fill-opacity="0.8"/>
<path d="M71 560.698H1464" stroke="white" stroke-opacity="0.8" stroke-width="2"/>
<path d="M25.8936 675.978H16.5674V674.688L21.2256 669.503C21.805 668.865 22.251 668.325 22.5635 667.882C22.8825 667.433 23.1038 667.029 23.2275 666.671C23.3512 666.313 23.4131 665.948 23.4131 665.577C23.4131 664.874 23.1982 664.275 22.7686 663.78C22.3454 663.279 21.7399 663.028 20.9521 663.028C20.3141 663.028 19.7835 663.152 19.3604 663.399C18.9437 663.647 18.6312 663.989 18.4229 664.425C18.221 664.861 18.1201 665.366 18.1201 665.938H16.2939C16.2939 665.138 16.4697 664.405 16.8213 663.741C17.1729 663.077 17.6937 662.55 18.3838 662.159C19.0804 661.762 19.9365 661.563 20.9521 661.563C22.2933 661.563 23.3415 661.912 24.0967 662.608C24.8584 663.305 25.2393 664.223 25.2393 665.362C25.2393 665.922 25.1188 666.485 24.8779 667.052C24.637 667.618 24.3148 668.181 23.9111 668.741C23.5075 669.295 23.0615 669.835 22.5732 670.362L18.7646 674.513H25.8936V675.978ZM29.751 670.401V668.878H33.54C34.2757 668.878 34.8682 668.761 35.3174 668.526C35.7731 668.285 36.1051 667.957 36.3135 667.54C36.5283 667.123 36.6357 666.648 36.6357 666.114C36.6357 665.626 36.5283 665.167 36.3135 664.737C36.1051 664.308 35.7731 663.959 35.3174 663.692C34.8682 663.425 34.2757 663.292 33.54 663.292H30.1807V675.978H28.2861V661.759H33.54C34.6143 661.759 35.5225 661.944 36.2646 662.315C37.0068 662.687 37.57 663.198 37.9541 663.849C38.3382 664.5 38.5303 665.248 38.5303 666.095C38.5303 667.006 38.3382 667.784 37.9541 668.429C37.57 669.073 37.0068 669.565 36.2646 669.903C35.5225 670.235 34.6143 670.401 33.54 670.401H29.751ZM43.3643 661.759L48.0029 673.38L52.6416 661.759H54.4873L48.7158 675.978H47.2803L41.5186 661.759H43.3643ZM42.5439 661.759L42.8076 670.421V675.978H40.9229V661.759H42.5439ZM55.083 661.759V675.978H53.1982V670.421L53.4619 661.759H55.083Z" fill="white" fill-opacity="0.8"/>
<path d="M71 670.438H1464" stroke="white" stroke-opacity="0.8" stroke-width="2"/>
<path d="M20.4932 777.319C21.1182 777.319 21.6357 777.212 22.0459 776.997C22.4626 776.782 22.7718 776.492 22.9736 776.128C23.182 775.757 23.2861 775.337 23.2861 774.868C23.2861 774.328 23.195 773.872 23.0127 773.501C22.8304 773.123 22.557 772.84 22.1924 772.651C21.8278 772.456 21.3688 772.358 20.8154 772.358C20.3076 772.358 19.8617 772.459 19.4775 772.661C19.0934 772.863 18.7939 773.146 18.5791 773.51C18.3643 773.875 18.2568 774.308 18.2568 774.809H16.4307C16.4307 774.08 16.613 773.423 16.9775 772.837C17.3421 772.244 17.8532 771.772 18.5107 771.421C19.1683 771.069 19.9365 770.893 20.8154 770.893C21.6748 770.893 22.4268 771.046 23.0713 771.352C23.7158 771.652 24.2171 772.101 24.5752 772.7C24.9333 773.292 25.1123 774.028 25.1123 774.907C25.1123 775.272 25.0277 775.656 24.8584 776.059C24.6956 776.463 24.4385 776.844 24.0869 777.202C23.7419 777.553 23.2926 777.843 22.7393 778.071C22.1859 778.292 21.5218 778.403 20.7471 778.403H19.2041V777.319H20.4932ZM19.2041 777.71H20.7471C21.652 777.71 22.4007 777.817 22.9932 778.032C23.5856 778.247 24.0511 778.533 24.3896 778.891C24.7347 779.243 24.9756 779.634 25.1123 780.063C25.2555 780.493 25.3271 780.919 25.3271 781.343C25.3271 782.228 25.1286 782.98 24.7314 783.598C24.3408 784.217 23.8037 784.689 23.1201 785.014C22.443 785.34 21.6781 785.503 20.8252 785.503C20.2067 785.503 19.624 785.415 19.0771 785.239C18.5303 785.063 18.0485 784.809 17.6318 784.477C17.2217 784.139 16.8994 783.725 16.665 783.237C16.4307 782.742 16.3135 782.179 16.3135 781.548H18.1396C18.1396 782.042 18.2471 782.479 18.4619 782.856C18.6833 783.227 18.9925 783.517 19.3896 783.725C19.7933 783.934 20.2718 784.038 20.8252 784.038C21.652 784.038 22.3031 783.816 22.7783 783.374C23.2601 782.931 23.501 782.267 23.501 781.382C23.501 780.789 23.3773 780.301 23.1299 779.917C22.8825 779.533 22.5342 779.249 22.085 779.067C21.6357 778.878 21.1051 778.784 20.4932 778.784H19.2041V777.71ZM29.751 779.731V778.208H33.54C34.2757 778.208 34.8682 778.091 35.3174 777.856C35.7731 777.615 36.1051 777.287 36.3135 776.87C36.5283 776.453 36.6357 775.978 36.6357 775.444C36.6357 774.956 36.5283 774.497 36.3135 774.067C36.1051 773.637 35.7731 773.289 35.3174 773.022C34.8682 772.755 34.2757 772.622 33.54 772.622H30.1807V785.307H28.2861V771.089H33.54C34.6143 771.089 35.5225 771.274 36.2646 771.645C37.0068 772.016 37.57 772.527 37.9541 773.178C38.3382 773.83 38.5303 774.578 38.5303 775.425C38.5303 776.336 38.3382 777.114 37.9541 777.759C37.57 778.403 37.0068 778.895 36.2646 779.233C35.5225 779.565 34.6143 779.731 33.54 779.731H29.751ZM43.3643 771.089L48.0029 782.71L52.6416 771.089H54.4873L48.7158 785.307H47.2803L41.5186 771.089H43.3643ZM42.5439 771.089L42.8076 779.751V785.307H40.9229V771.089H42.5439ZM55.083 771.089V785.307H53.1982V779.751L53.4619 771.089H55.083Z" fill="white" fill-opacity="0.8"/>
<path d="M71 780.177H1464" stroke="white" stroke-opacity="0.8" stroke-width="2"/>
<path d="M26.1768 891.327H15.9033V890.272L22.2607 880.418H23.7451L22.1631 883.26L17.9639 889.862H26.1768V891.327ZM24.2041 894.637H22.3779V880.418H24.2041V894.637ZM29.751 889.061V887.538H33.54C34.2757 887.538 34.8682 887.42 35.3174 887.186C35.7731 886.945 36.1051 886.616 36.3135 886.2C36.5283 885.783 36.6357 885.308 36.6357 884.774C36.6357 884.286 36.5283 883.827 36.3135 883.397C36.1051 882.967 35.7731 882.619 35.3174 882.352C34.8682 882.085 34.2757 881.952 33.54 881.952H30.1807V894.637H28.2861V880.418H33.54C34.6143 880.418 35.5225 880.604 36.2646 880.975C37.0068 881.346 37.57 881.857 37.9541 882.508C38.3382 883.159 38.5303 883.908 38.5303 884.754C38.5303 885.666 38.3382 886.444 37.9541 887.088C37.57 887.733 37.0068 888.224 36.2646 888.563C35.5225 888.895 34.6143 889.061 33.54 889.061H29.751ZM43.3643 880.418L48.0029 892.04L52.6416 880.418H54.4873L48.7158 894.637H47.2803L41.5186 880.418H43.3643ZM42.5439 880.418L42.8076 889.081V894.637H40.9229V880.418H42.5439ZM55.083 880.418V894.637H53.1982V889.081L53.4619 880.418H55.083Z" fill="white" fill-opacity="0.8"/>
<path d="M71 888.917H1464" stroke="white" stroke-opacity="0.8" stroke-width="2"/>
<path d="M17.0117 996.828L17.7344 989.748H25.0293V991.399H19.2773L18.8574 995.295C19.1113 995.145 19.4368 995.005 19.834 994.875C20.2376 994.745 20.6999 994.68 21.2207 994.68C22.0931 994.68 22.8451 994.875 23.4766 995.266C24.1081 995.656 24.5931 996.207 24.9316 996.916C25.2767 997.626 25.4492 998.466 25.4492 999.436C25.4492 1000.34 25.2832 1001.15 24.9512 1001.87C24.6257 1002.58 24.1309 1003.14 23.4668 1003.55C22.8027 1003.96 21.9629 1004.16 20.9473 1004.16C20.3743 1004.16 19.8307 1004.08 19.3164 1003.93C18.8086 1003.77 18.3529 1003.52 17.9492 1003.2C17.5521 1002.86 17.2266 1002.45 16.9727 1001.97C16.7188 1001.47 16.5625 1000.89 16.5039 1000.23H18.2324C18.3431 1001.03 18.6328 1001.65 19.1016 1002.07C19.5703 1002.49 20.1855 1002.7 20.9473 1002.7C21.5137 1002.7 21.9954 1002.57 22.3926 1002.31C22.7962 1002.04 23.1022 1001.67 23.3105 1001.18C23.5189 1000.7 23.623 1000.12 23.623 999.455C23.623 998.856 23.5124 998.319 23.291 997.844C23.0762 997.369 22.7572 996.991 22.334 996.711C21.9173 996.431 21.403 996.291 20.791 996.291C20.1855 996.291 19.7298 996.373 19.4238 996.535C19.1178 996.692 18.8021 996.913 18.4766 997.199L17.0117 996.828ZM29.3652 998.391V996.867H33.1543C33.89 996.867 34.4824 996.75 34.9316 996.516C35.3874 996.275 35.7194 995.946 35.9277 995.53C36.1426 995.113 36.25 994.638 36.25 994.104C36.25 993.615 36.1426 993.156 35.9277 992.727C35.7194 992.297 35.3874 991.949 34.9316 991.682C34.4824 991.415 33.89 991.281 33.1543 991.281H29.7949V1003.97H27.9004V989.748H33.1543C34.2285 989.748 35.1367 989.934 35.8789 990.305C36.6211 990.676 37.1842 991.187 37.5684 991.838C37.9525 992.489 38.1445 993.238 38.1445 994.084C38.1445 994.996 37.9525 995.774 37.5684 996.418C37.1842 997.063 36.6211 997.554 35.8789 997.893C35.1367 998.225 34.2285 998.391 33.1543 998.391H29.3652ZM42.9785 989.748L47.6172 1001.37L52.2559 989.748H54.1016L48.3301 1003.97H46.8945L41.1328 989.748H42.9785ZM42.1582 989.748L42.4219 998.41V1003.97H40.5371V989.748H42.1582ZM54.6973 989.748V1003.97H52.8125V998.41L53.0762 989.748H54.6973Z" fill="white" fill-opacity="0.8"/>
<path d="M70.6143 998.427H1463.61" stroke="white" stroke-opacity="0.8" stroke-width="2"/>
<path d="M23.2715 1099.06V1100.58H23.1152C22.1582 1100.58 21.3574 1100.74 20.7129 1101.05C20.0749 1101.36 19.5638 1101.77 19.1797 1102.29C18.8021 1102.81 18.5319 1103.38 18.3691 1104.03C18.2064 1104.67 18.125 1105.33 18.125 1106V1108.09C18.125 1108.94 18.2552 1109.65 18.5156 1110.24C18.776 1110.82 19.1146 1111.26 19.5312 1111.56C19.9544 1111.86 20.4004 1112.01 20.8691 1112.01C21.429 1112.01 21.901 1111.87 22.2852 1111.59C22.6758 1111.31 22.972 1110.92 23.1738 1110.44C23.3822 1109.94 23.4863 1109.38 23.4863 1108.75C23.4863 1108.18 23.3919 1107.65 23.2031 1107.14C23.0208 1106.64 22.7376 1106.24 22.3535 1105.92C21.9759 1105.61 21.4941 1105.46 20.9082 1105.46C20.4069 1105.46 19.9382 1105.58 19.502 1105.83C19.0723 1106.07 18.7207 1106.39 18.4473 1106.78C18.1738 1107.18 18.0176 1107.61 17.9785 1108.07L17.0215 1108.06C17.1126 1107.34 17.2819 1106.72 17.5293 1106.21C17.7832 1105.69 18.0957 1105.26 18.4668 1104.94C18.8444 1104.61 19.2643 1104.36 19.7266 1104.21C20.1953 1104.05 20.6901 1103.97 21.2109 1103.97C22.1549 1103.97 22.9264 1104.2 23.5254 1104.65C24.1243 1105.11 24.5671 1105.7 24.8535 1106.41C25.14 1107.13 25.2832 1107.88 25.2832 1108.66C25.2832 1109.56 25.1139 1110.37 24.7754 1111.1C24.4434 1111.83 23.9486 1112.41 23.291 1112.85C22.64 1113.28 21.8327 1113.49 20.8691 1113.49C20.1009 1113.49 19.4303 1113.34 18.8574 1113.02C18.2845 1112.7 17.8092 1112.28 17.4316 1111.76C17.054 1111.24 16.7708 1110.65 16.582 1110.01C16.3932 1109.36 16.2988 1108.71 16.2988 1108.04V1107.18C16.2988 1106.17 16.3965 1105.19 16.5918 1104.22C16.7936 1103.26 17.1419 1102.39 17.6367 1101.62C18.138 1100.84 18.8314 1100.21 19.7168 1099.75C20.6087 1099.29 21.7415 1099.06 23.1152 1099.06H23.2715ZM29.3652 1107.72V1106.2H33.1543C33.89 1106.2 34.4824 1106.08 34.9316 1105.85C35.3874 1105.6 35.7194 1105.28 35.9277 1104.86C36.1426 1104.44 36.25 1103.97 36.25 1103.43C36.25 1102.95 36.1426 1102.49 35.9277 1102.06C35.7194 1101.63 35.3874 1101.28 34.9316 1101.01C34.4824 1100.74 33.89 1100.61 33.1543 1100.61H29.7949V1113.3H27.9004V1099.08H33.1543C34.2285 1099.08 35.1367 1099.26 35.8789 1099.63C36.6211 1100.01 37.1842 1100.52 37.5684 1101.17C37.9525 1101.82 38.1445 1102.57 38.1445 1103.41C38.1445 1104.33 37.9525 1105.1 37.5684 1105.75C37.1842 1106.39 36.6211 1106.88 35.8789 1107.22C35.1367 1107.55 34.2285 1107.72 33.1543 1107.72H29.3652ZM42.9785 1099.08L47.6172 1110.7L52.2559 1099.08H54.1016L48.3301 1113.3H46.8945L41.1328 1099.08H42.9785ZM42.1582 1099.08L42.4219 1107.74V1113.3H40.5371V1099.08H42.1582ZM54.6973 1099.08V1113.3H52.8125V1107.74L53.0762 1099.08H54.6973Z" fill="white" fill-opacity="0.8"/>
<path d="M70.6143 1108.17H1463.61" stroke="white" stroke-opacity="0.8" stroke-width="2"/>
<path d="M25.3809 1209.41L19.4922 1222.63H17.5781L23.4473 1209.87H15.7617V1208.41H25.3809V1209.41ZM29.3652 1217.05V1215.53H33.1543C33.89 1215.53 34.4824 1215.41 34.9316 1215.18C35.3874 1214.93 35.7194 1214.61 35.9277 1214.19C36.1426 1213.77 36.25 1213.3 36.25 1212.76C36.25 1212.28 36.1426 1211.82 35.9277 1211.39C35.7194 1210.96 35.3874 1210.61 34.9316 1210.34C34.4824 1210.07 33.89 1209.94 33.1543 1209.94H29.7949V1222.63H27.9004V1208.41H33.1543C34.2285 1208.41 35.1367 1208.59 35.8789 1208.96C36.6211 1209.34 37.1842 1209.85 37.5684 1210.5C37.9525 1211.15 38.1445 1211.9 38.1445 1212.74C38.1445 1213.66 37.9525 1214.43 37.5684 1215.08C37.1842 1215.72 36.6211 1216.21 35.8789 1216.55C35.1367 1216.88 34.2285 1217.05 33.1543 1217.05H29.3652ZM42.9785 1208.41L47.6172 1220.03L52.2559 1208.41H54.1016L48.3301 1222.63H46.8945L41.1328 1208.41H42.9785ZM42.1582 1208.41L42.4219 1217.07V1222.63H40.5371V1208.41H42.1582ZM54.6973 1208.41V1222.63H52.8125V1217.07L53.0762 1208.41H54.6973Z" fill="white" fill-opacity="0.8"/>
<path d="M70.6143 1216.91H1463.61" stroke="white" stroke-opacity="0.8" stroke-width="2"/>
<path d="M25.1465 1328.15C25.1465 1329.02 24.9447 1329.75 24.541 1330.36C24.1439 1330.96 23.6035 1331.41 22.9199 1331.73C22.2428 1332.04 21.4779 1332.2 20.625 1332.2C19.7721 1332.2 19.0039 1332.04 18.3203 1331.73C17.6367 1331.41 17.0964 1330.96 16.6992 1330.36C16.3021 1329.75 16.1035 1329.02 16.1035 1328.15C16.1035 1327.4 16.2956 1326.74 16.6797 1326.15C17.0638 1325.56 17.5944 1325.11 18.2715 1324.77C18.9486 1324.43 19.7266 1324.27 20.6055 1324.27C21.4779 1324.27 22.2559 1324.43 22.9395 1324.77C23.623 1325.11 24.1602 1325.56 24.5508 1326.15C24.9479 1326.74 25.1465 1327.4 25.1465 1328.15ZM23.3203 1328.11C23.3203 1327.59 23.2064 1327.12 22.9785 1326.72C22.7507 1326.31 22.4316 1325.99 22.0215 1325.76C21.6178 1325.53 21.1458 1325.42 20.6055 1325.42C20.0586 1325.42 19.5833 1325.53 19.1797 1325.76C18.7826 1325.99 18.4733 1326.31 18.252 1326.72C18.0371 1327.12 17.9297 1327.59 17.9297 1328.11C17.9297 1328.66 18.0371 1329.13 18.252 1329.52C18.4733 1329.91 18.7858 1330.21 19.1895 1330.42C19.5931 1330.63 20.0716 1330.73 20.625 1330.73C21.1849 1330.73 21.6634 1330.63 22.0605 1330.42C22.4642 1330.21 22.7734 1329.91 22.9883 1329.52C23.2096 1329.13 23.3203 1328.66 23.3203 1328.11ZM24.8145 1321.48C24.8145 1322.17 24.6322 1322.79 24.2676 1323.35C23.903 1323.9 23.4049 1324.34 22.7734 1324.66C22.1419 1324.98 21.4258 1325.13 20.625 1325.13C19.8112 1325.13 19.0853 1324.98 18.4473 1324.66C17.8158 1324.34 17.321 1323.9 16.9629 1323.35C16.6048 1322.79 16.4258 1322.17 16.4258 1321.48C16.4258 1320.66 16.6048 1319.95 16.9629 1319.37C17.3275 1318.79 17.8255 1318.35 18.457 1318.04C19.0951 1317.74 19.8177 1317.59 20.625 1317.59C21.4323 1317.59 22.1517 1317.74 22.7832 1318.04C23.4147 1318.35 23.9095 1318.79 24.2676 1319.37C24.6322 1319.95 24.8145 1320.66 24.8145 1321.48ZM22.9883 1321.51C22.9883 1321.04 22.8874 1320.62 22.6855 1320.25C22.4902 1319.88 22.2135 1319.59 21.8555 1319.37C21.5039 1319.16 21.0938 1319.05 20.625 1319.05C20.1497 1319.05 19.7331 1319.15 19.375 1319.35C19.0234 1319.56 18.7467 1319.84 18.5449 1320.21C18.3496 1320.58 18.252 1321.01 18.252 1321.51C18.252 1322 18.3496 1322.43 18.5449 1322.79C18.7467 1323.16 19.0234 1323.44 19.375 1323.64C19.7331 1323.84 20.1497 1323.94 20.625 1323.94C21.1003 1323.94 21.5137 1323.84 21.8652 1323.64C22.2168 1323.44 22.4902 1323.16 22.6855 1322.79C22.8874 1322.43 22.9883 1322 22.9883 1321.51ZM29.3652 1326.42V1324.9H33.1543C33.89 1324.9 34.4824 1324.78 34.9316 1324.55C35.3874 1324.31 35.7194 1323.98 35.9277 1323.56C36.1426 1323.15 36.25 1322.67 36.25 1322.14C36.25 1321.65 36.1426 1321.19 35.9277 1320.76C35.7194 1320.33 35.3874 1319.98 34.9316 1319.71C34.4824 1319.45 33.89 1319.31 33.1543 1319.31H29.7949V1332H27.9004V1317.78H33.1543C34.2285 1317.78 35.1367 1317.97 35.8789 1318.34C36.6211 1318.71 37.1842 1319.22 37.5684 1319.87C37.9525 1320.52 38.1445 1321.27 38.1445 1322.12C38.1445 1323.03 37.9525 1323.81 37.5684 1324.45C37.1842 1325.1 36.6211 1325.59 35.8789 1325.93C35.1367 1326.26 34.2285 1326.42 33.1543 1326.42H29.3652ZM42.9785 1317.78L47.6172 1329.4L52.2559 1317.78H54.1016L48.3301 1332H46.8945L41.1328 1317.78H42.9785ZM42.1582 1317.78L42.4219 1326.44V1332H40.5371V1317.78H42.1582ZM54.6973 1317.78V1332H52.8125V1326.44L53.0762 1317.78H54.6973Z" fill="white" fill-opacity="0.8"/>
<path d="M70.6143 1326.28H1463.61" stroke="white" stroke-opacity="0.8" stroke-width="2"/>
<path d="M18.1641 1439.5C19.2057 1439.5 20.0521 1439.35 20.7031 1439.06C21.3542 1438.76 21.8522 1438.37 22.1973 1437.88C22.5488 1437.37 22.7897 1436.81 22.9199 1436.2C23.0501 1435.57 23.1152 1434.93 23.1152 1434.27V1432.09C23.1152 1431.23 22.9883 1430.5 22.7344 1429.9C22.4805 1429.3 22.1452 1428.85 21.7285 1428.54C21.3184 1428.23 20.8724 1428.07 20.3906 1428.07C19.8372 1428.07 19.362 1428.22 18.9648 1428.51C18.5742 1428.8 18.2747 1429.2 18.0664 1429.7C17.8646 1430.2 17.7637 1430.77 17.7637 1431.4C17.7637 1431.96 17.8548 1432.5 18.0371 1433.01C18.2259 1433.53 18.5091 1433.95 18.8867 1434.27C19.2708 1434.6 19.7526 1434.76 20.332 1434.76C20.7292 1434.76 21.1035 1434.68 21.4551 1434.52C21.8132 1434.35 22.1289 1434.13 22.4023 1433.86C22.6758 1433.58 22.8971 1433.27 23.0664 1432.91C23.2357 1432.56 23.3333 1432.18 23.3594 1431.8H24.2285C24.2285 1432.34 24.1211 1432.88 23.9062 1433.4C23.6979 1433.93 23.4049 1434.41 23.0273 1434.84C22.6497 1435.27 22.207 1435.61 21.6992 1435.86C21.1914 1436.12 20.638 1436.24 20.0391 1436.24C19.1016 1436.24 18.3333 1436.01 17.7344 1435.54C17.1354 1435.07 16.6927 1434.48 16.4062 1433.75C16.1198 1433.02 15.9766 1432.27 15.9766 1431.5C15.9766 1430.59 16.1426 1429.77 16.4746 1429.03C16.8066 1428.29 17.3014 1427.69 17.959 1427.25C18.6165 1426.81 19.4271 1426.59 20.3906 1426.59C21.2044 1426.59 21.8978 1426.75 22.4707 1427.07C23.0501 1427.39 23.5189 1427.83 23.877 1428.37C24.2415 1428.92 24.5085 1429.54 24.6777 1430.22C24.847 1430.9 24.9316 1431.61 24.9316 1432.33V1433C24.9316 1433.74 24.8828 1434.5 24.7852 1435.26C24.694 1436.01 24.515 1436.74 24.248 1437.43C23.9876 1438.11 23.6068 1438.72 23.1055 1439.27C22.6042 1439.81 21.9499 1440.24 21.1426 1440.55C20.3418 1440.86 19.349 1441.02 18.1641 1441.02H17.9785V1439.5H18.1641ZM29.3652 1435.42V1433.9H33.1543C33.89 1433.9 34.4824 1433.78 34.9316 1433.55C35.3874 1433.31 35.7194 1432.98 35.9277 1432.56C36.1426 1432.15 36.25 1431.67 36.25 1431.14C36.25 1430.65 36.1426 1430.19 35.9277 1429.76C35.7194 1429.33 35.3874 1428.98 34.9316 1428.71C34.4824 1428.45 33.89 1428.31 33.1543 1428.31H29.7949V1441H27.9004V1426.78H33.1543C34.2285 1426.78 35.1367 1426.97 35.8789 1427.34C36.6211 1427.71 37.1842 1428.22 37.5684 1428.87C37.9525 1429.52 38.1445 1430.27 38.1445 1431.12C38.1445 1432.03 37.9525 1432.81 37.5684 1433.45C37.1842 1434.1 36.6211 1434.59 35.8789 1434.93C35.1367 1435.26 34.2285 1435.42 33.1543 1435.42H29.3652ZM42.9785 1426.78L47.6172 1438.4L52.2559 1426.78H54.1016L48.3301 1441H46.8945L41.1328 1426.78H42.9785ZM42.1582 1426.78L42.4219 1435.44V1441H40.5371V1426.78H42.1582ZM54.6973 1426.78V1441H52.8125V1435.44L53.0762 1426.78H54.6973Z" fill="white" fill-opacity="0.8"/>
<path d="M70.6143 1435.28H1463.61" stroke="white" stroke-opacity="0.8" stroke-width="2"/>
</svg>
