<svg width="1062" height="210" viewBox="0 0 1062 210" fill="none" xmlns="http://www.w3.org/2000/svg">
<path fill-rule="evenodd" clip-rule="evenodd" d="M499.802 94.7044V206.773H542.326V94.7044H499.802Z" fill="#4F9737"/>
<path fill-rule="evenodd" clip-rule="evenodd" d="M510.293 72.4741C509.258 72.4741 519.545 74.3854 521.169 74.3854C528.57 74.3854 534.436 72.5001 538.765 68.7296C539.188 68.3607 539.589 68.0125 539.968 67.6825C546.385 62.1013 546.761 61.7739 550.671 55.9086C565.097 36.8 564.131 6.21208 555.848 1.52588e-05C530.568 9.09862 513.984 21.7422 503.046 37.2724C498.67 43.4845 497.079 48.4106 497.079 54.2759C497.079 60.6998 499.174 65.6573 503.364 69.1486C503.921 69.5983 504.505 70.019 505.116 70.4108C520.681 53.4175 528.067 43.2826 538.247 23.8129C528.745 56.2347 517.753 65.9993 510.293 72.4741Z" fill="#4F9737"/>
<path d="M395.868 206.773V94.7045H435.25L437.763 131.991L428.337 126.126C430.152 119.702 433.015 113.976 436.925 108.949C440.836 103.782 445.514 99.7318 450.96 96.7992C456.546 93.8666 462.481 92.4002 468.765 92.4002C471.279 92.4002 473.653 92.6097 475.888 93.0287C478.122 93.308 480.286 93.7269 482.381 94.2855L470.651 141.417C469.254 140.44 467.02 139.532 463.947 138.694C461.015 137.856 457.803 137.437 454.312 137.437C451.798 137.437 449.494 137.856 447.399 138.694C445.444 139.392 443.768 140.509 442.372 142.046C441.115 143.582 440.137 145.397 439.439 147.492C438.741 149.587 438.392 152.031 438.392 154.824V206.773H395.868Z" fill="#4F9737"/>
<path d="M316.021 206.773V66.4253H358.545V206.773H316.021ZM298.635 130.315V94.7043H376.978V130.315H298.635Z" fill="#4F9737"/>
<path d="M207.526 209.077C199.007 209.077 191.815 207.332 185.95 203.84C180.084 200.349 175.616 195.252 172.543 188.549C169.471 181.706 167.935 173.467 167.935 163.831V94.7044H210.458V160.27C210.458 163.342 210.947 165.926 211.924 168.02C213.042 170.115 214.578 171.721 216.533 172.838C218.488 173.955 220.862 174.514 223.655 174.514C225.75 174.514 227.635 174.235 229.311 173.676C231.126 172.978 232.662 172 233.919 170.744C235.176 169.487 236.154 168.09 236.852 166.554C237.55 164.878 237.899 163.133 237.899 161.317V94.7044H280.423V206.773H241.46L238.947 184.15L246.907 181.636C245.371 186.943 242.647 191.691 238.737 195.88C234.967 199.93 230.358 203.142 224.912 205.516C219.466 207.89 213.67 209.077 207.526 209.077Z" fill="#4F9737"/>
<path d="M0.903549 206.773V60.1411H41.3321L108.783 153.357L99.1469 150.425C98.4487 144.839 97.8203 139.951 97.2617 135.761C96.8427 131.572 96.4238 127.731 96.0048 124.24C95.7255 120.609 95.4462 117.048 95.1669 113.557C95.0273 110.066 94.9575 106.225 94.9575 102.036C94.9575 97.8465 94.9575 92.9588 94.9575 87.3728V60.1411H138.528V206.773H97.6806L23.3173 104.131L40.2847 109.158C40.9829 114.325 41.5415 118.864 41.9605 122.774C42.5191 126.544 42.938 130.036 43.2173 133.248C43.4966 136.46 43.7061 139.672 43.8458 142.883C44.1251 145.956 44.2647 149.447 44.2647 153.357C44.4044 157.128 44.4742 161.596 44.4742 166.763V206.773H0.903549Z" fill="#4F9737"/>
<path d="M1000.27 204.568V78.0017C1000.27 70.9457 1001.81 64.6982 1004.9 59.2593C1007.98 53.6733 1012.25 49.3368 1017.69 46.2498C1023.13 43.0158 1029.45 41.3988 1036.65 41.3988C1041.65 41.3988 1046.28 42.2808 1050.54 44.0448C1054.8 45.6618 1058.4 47.9403 1061.34 50.8803L1052.97 71.3867C1051.05 69.7697 1049 68.5202 1046.79 67.6382C1044.73 66.7562 1042.75 66.3152 1040.84 66.3152C1037.9 66.3152 1035.4 66.8297 1033.34 67.8587C1031.43 68.7407 1029.96 70.1372 1028.93 72.0482C1028.05 73.9592 1027.61 76.2377 1027.61 78.8837V204.568H1013.94C1011.29 204.568 1008.79 204.568 1006.44 204.568C1004.24 204.568 1002.18 204.568 1000.27 204.568ZM982.186 114.605V90.7906H1053.85V114.605H982.186Z" fill="#C8C8C8"/>
<path d="M930.472 204.568V41.3988H957.814V204.568H930.472Z" fill="#C8C8C8"/>
<path d="M614.772 204.568L566.704 50.2188H596.691L624.033 141.285C624.915 144.078 625.724 147.165 626.459 150.546C627.194 153.927 627.855 157.308 628.443 160.689C629.031 163.923 629.546 166.936 629.987 169.729C630.428 172.522 630.869 174.874 631.31 176.785L625.356 176.565C627.12 169.656 628.517 164.07 629.546 159.807C630.575 155.544 631.457 152.016 632.192 149.223C633.074 146.283 633.956 143.563 634.838 141.064L660.857 74.4737H685.332L710.689 141.064C712.159 145.18 713.482 149.149 714.658 152.971C715.834 156.646 716.79 160.321 717.525 163.996C718.407 167.524 719.215 171.199 719.95 175.021L714.658 176.124C715.246 172.596 715.687 169.729 715.981 167.524C716.275 165.319 716.569 163.335 716.863 161.571C717.157 159.807 717.451 158.116 717.745 156.499C718.039 154.735 718.48 152.677 719.068 150.325C719.803 147.826 720.685 144.666 721.714 140.844L748.836 50.2188H778.603L730.314 204.568H709.587L670.338 110.636L672.984 111.518L635.72 204.568H614.772Z" fill="#C8C8C8"/>
<path fill-rule="evenodd" clip-rule="evenodd" d="M844.092 198.864C873.213 198.864 896.821 175.257 896.821 146.136C896.821 117.015 873.213 93.4078 844.092 93.4078C814.972 93.4078 791.364 117.015 791.364 146.136C791.364 175.257 814.972 198.864 844.092 198.864ZM844.092 206.773C877.581 206.773 904.73 179.625 904.73 146.136C904.73 112.647 877.581 85.4985 844.092 85.4985C810.603 85.4985 783.455 112.647 783.455 146.136C783.455 179.625 810.603 206.773 844.092 206.773Z" fill="#C8C8C8"/>
<path fill-rule="evenodd" clip-rule="evenodd" d="M844.093 82.1257C851.338 82.1257 857.211 76.4785 857.211 69.5124C857.211 62.5463 851.338 56.8991 844.093 56.8991C836.848 56.8991 830.975 62.5463 830.975 69.5124C830.975 76.4785 836.848 82.1257 844.093 82.1257ZM844.093 83.2936C852.008 83.2936 858.425 77.1235 858.425 69.5124C858.425 61.9013 852.008 55.7312 844.093 55.7312C836.177 55.7312 829.76 61.9013 829.76 69.5124C829.76 77.1235 836.177 83.2936 844.093 83.2936Z" fill="#C8C8C8"/>
<path d="M811.018 179.819C816.425 185.268 823.082 189.289 830.4 191.525C837.717 193.762 845.469 194.146 852.969 192.643C860.469 191.139 867.486 187.796 873.397 182.907C879.308 178.019 883.931 171.737 886.858 164.618C889.784 157.499 890.923 149.763 890.173 142.094C889.424 134.426 886.809 127.062 882.561 120.655C878.312 114.248 872.561 108.996 865.818 105.364C859.074 101.731 851.545 99.831 843.898 99.831L843.898 146.687L811.018 179.819Z" fill="#C8C8C8"/>
<path d="M835.273 71.7174C835.273 70.1952 836.555 68.9612 838.136 68.9612H850.049C851.631 68.9612 852.913 70.1952 852.913 71.7174V71.7174C852.913 73.2397 851.631 74.4737 850.049 74.4737H838.136C836.555 74.4737 835.273 73.2397 835.273 71.7174V71.7174Z" fill="#C8C8C8"/>
<path d="M835.273 71.7174C835.273 70.1952 836.555 68.9612 838.136 68.9612H850.049C851.631 68.9612 852.913 70.1952 852.913 71.7174V71.7174C852.913 73.2397 851.631 74.4737 850.049 74.4737H838.136C836.555 74.4737 835.273 73.2397 835.273 71.7174V71.7174Z" fill="#C8C8C8"/>
<path d="M839.683 73.4937C839.683 70.9904 841.657 68.9612 844.093 68.9612V68.9612C846.528 68.9612 848.503 70.9904 848.503 73.4937V88.6836C848.503 91.1868 846.528 93.2161 844.093 93.2161V93.2161C841.657 93.2161 839.683 91.1868 839.683 88.6836V73.4937Z" fill="#C8C8C8"/>
<path d="M839.683 73.4937C839.683 70.9904 841.657 68.9612 844.093 68.9612V68.9612C846.528 68.9612 848.503 70.9904 848.503 73.4937V88.6836C848.503 91.1868 846.528 93.2161 844.093 93.2161V93.2161C841.657 93.2161 839.683 91.1868 839.683 88.6836V73.4937Z" fill="#C8C8C8"/>
<path d="M792.139 100.679C791.41 99.9361 791.421 98.7433 792.164 98.0143L799.68 90.6346C800.423 89.9056 801.615 89.9166 802.344 90.659V90.659C803.073 91.4015 803.062 92.5943 802.32 93.3232L794.804 100.703C794.061 101.432 792.868 101.421 792.139 100.679V100.679Z" fill="#C8C8C8"/>
<path d="M792.139 100.679C791.41 99.9361 791.421 98.7433 792.164 98.0143L799.68 90.6346C800.423 89.9056 801.615 89.9166 802.344 90.659V90.659C803.073 91.4015 803.062 92.5943 802.32 93.3232L794.804 100.703C794.061 101.432 792.868 101.421 792.139 100.679V100.679Z" fill="#C8C8C8"/>
<path d="M796.69 99.6394C795.459 98.3864 795.478 96.3735 796.731 95.1434V95.1434C797.984 93.9132 799.997 93.9317 801.227 95.1846L807.234 101.303C808.465 102.556 808.446 104.569 807.193 105.799V105.799C805.94 107.03 803.927 107.011 802.697 105.758L796.69 99.6394Z" fill="#C8C8C8"/>
<path d="M796.69 99.6394C795.459 98.3864 795.478 96.3735 796.731 95.1434V95.1434C797.984 93.9132 799.997 93.9317 801.227 95.1846L807.234 101.303C808.465 102.556 808.446 104.569 807.193 105.799V105.799C805.94 107.03 803.927 107.011 802.697 105.758L796.69 99.6394Z" fill="#C8C8C8"/>
</svg>
