<svg width="26" height="45" viewBox="0 0 26 45" fill="none" xmlns="http://www.w3.org/2000/svg">
<path d="M23.5607 21.6524L22.5 22.713L22.5 22.713L23.5607 21.6524ZM23.5607 23.7737L24.6213 24.8344H24.6213L23.5607 23.7737ZM23.498 21.5932L22.3796 22.5928L22.4359 22.6558L22.499 22.7121L23.498 21.5932ZM23.4393 21.5311L22.3787 22.5918L22.3787 22.5918L23.4393 21.5311ZM4.34746 2.43925L5.40812 1.37859L4.34746 2.43925ZM2.22614 2.43925L3.2868 3.49992L3.2868 3.49991L2.22614 2.43925ZM2.22614 4.56057L3.2868 3.49991L2.22614 4.56057ZM20.3786 22.7131L21.4393 23.7737L22.5 22.7131L21.4393 21.6524L20.3786 22.7131ZM2.34746 40.7443L3.40812 41.8049V41.8049L2.34746 40.7443ZM2.34746 42.8656L3.40812 41.8049L3.40812 41.8049L2.34746 42.8656ZM4.46878 42.8656L3.40812 41.8049L3.40812 41.8049L4.46878 42.8656ZM22.5 22.713L24.6213 24.8344C25.7929 23.6628 25.7929 21.7633 24.6213 20.5917L22.5 22.713ZM22.499 22.7121C22.4992 22.7123 22.4996 22.7126 22.5 22.713L24.6213 20.5917C24.5808 20.5512 24.5394 20.5121 24.497 20.4742L22.499 22.7121ZM22.3787 22.5918C22.3791 22.5922 22.3794 22.5926 22.3796 22.5928L24.6164 20.5935C24.5789 20.5516 24.5401 20.5105 24.5 20.4705L22.3787 22.5918ZM3.2868 3.49992L22.3787 22.5918L24.5 20.4705L5.40812 1.37859L3.2868 3.49992ZM3.2868 3.49991L3.2868 3.49992L5.40812 1.37859C4.23655 0.207027 2.33705 0.207016 1.16548 1.3786L3.2868 3.49991ZM3.2868 3.49991V3.49992L1.16548 1.37859C-0.00609589 2.55017 -0.00609589 4.44967 1.16548 5.62123L3.2868 3.49991ZM21.4393 21.6524L3.2868 3.49991L1.16548 5.62123L19.318 23.7737L21.4393 21.6524ZM3.40812 41.8049L21.4393 23.7737L19.318 21.6524L1.2868 39.6836L3.40812 41.8049ZM3.40812 41.8049V41.8049L1.2868 39.6836C0.115225 40.8552 0.115225 42.7547 1.2868 43.9263L3.40812 41.8049ZM3.40812 41.8049L3.40812 41.8049L1.2868 43.9263C2.45837 45.0978 4.35787 45.0978 5.52944 43.9263L3.40812 41.8049ZM22.5 22.713L3.40812 41.8049L5.52944 43.9263L24.6213 24.8344L22.5 22.713Z" fill="white" fill-opacity="0.5"/>
</svg>
