<svg width="1638" height="651" viewBox="0 0 1638 651" fill="none" xmlns="http://www.w3.org/2000/svg">
<path d="M24.1465 78.1523C24.1465 79.0182 23.9447 79.7539 23.541 80.3594C23.1439 80.9583 22.6035 81.4141 21.9199 81.7266C21.2428 82.0391 20.4779 82.1953 19.625 82.1953C18.7721 82.1953 18.0039 82.0391 17.3203 81.7266C16.6367 81.4141 16.0964 80.9583 15.6992 80.3594C15.3021 79.7539 15.1035 79.0182 15.1035 78.1523C15.1035 77.4036 15.2956 76.7363 15.6797 76.1504C16.0638 75.5645 16.5944 75.1055 17.2715 74.7734C17.9486 74.4349 18.7266 74.2656 19.6055 74.2656C20.4779 74.2656 21.2559 74.4349 21.9395 74.7734C22.623 75.1055 23.1602 75.5645 23.5508 76.1504C23.9479 76.7363 24.1465 77.4036 24.1465 78.1523ZM22.3203 78.1133C22.3203 77.5859 22.2064 77.1204 21.9785 76.7168C21.7507 76.3066 21.4316 75.9876 21.0215 75.7598C20.6178 75.5319 20.1458 75.418 19.6055 75.418C19.0586 75.418 18.5833 75.5319 18.1797 75.7598C17.7826 75.9876 17.4733 76.3066 17.252 76.7168C17.0371 77.1204 16.9297 77.5859 16.9297 78.1133C16.9297 78.6602 17.0371 79.1289 17.252 79.5195C17.4733 79.9102 17.7858 80.2096 18.1895 80.418C18.5931 80.6263 19.0716 80.7305 19.625 80.7305C20.1849 80.7305 20.6634 80.6263 21.0605 80.418C21.4642 80.2096 21.7734 79.9102 21.9883 79.5195C22.2096 79.1289 22.3203 78.6602 22.3203 78.1133ZM23.8145 71.4824C23.8145 72.1725 23.6322 72.7943 23.2676 73.3477C22.903 73.901 22.4049 74.3372 21.7734 74.6562C21.1419 74.9753 20.4258 75.1348 19.625 75.1348C18.8112 75.1348 18.0853 74.9753 17.4473 74.6562C16.8158 74.3372 16.321 73.901 15.9629 73.3477C15.6048 72.7943 15.4258 72.1725 15.4258 71.4824C15.4258 70.6556 15.6048 69.9525 15.9629 69.373C16.3275 68.7936 16.8255 68.3509 17.457 68.0449C18.0951 67.7389 18.8177 67.5859 19.625 67.5859C20.4323 67.5859 21.1517 67.7389 21.7832 68.0449C22.4147 68.3509 22.9095 68.7936 23.2676 69.373C23.6322 69.9525 23.8145 70.6556 23.8145 71.4824ZM21.9883 71.5117C21.9883 71.0365 21.8874 70.6165 21.6855 70.252C21.4902 69.8809 21.2135 69.5879 20.8555 69.373C20.5039 69.1582 20.0938 69.0508 19.625 69.0508C19.1497 69.0508 18.7331 69.1517 18.375 69.3535C18.0234 69.5553 17.7467 69.8418 17.5449 70.2129C17.3496 70.5775 17.252 71.0104 17.252 71.5117C17.252 72 17.3496 72.4264 17.5449 72.791C17.7467 73.1556 18.0234 73.4388 18.375 73.6406C18.7331 73.8424 19.1497 73.9434 19.625 73.9434C20.1003 73.9434 20.5137 73.8424 20.8652 73.6406C21.2168 73.4388 21.4902 73.1556 21.6855 72.791C21.8874 72.4264 21.9883 72 21.9883 71.5117ZM26.5488 81.0527C26.5488 80.7467 26.6432 80.4896 26.832 80.2812C27.0273 80.0664 27.3073 79.959 27.6719 79.959C28.043 79.959 28.3229 80.0664 28.5117 80.2812C28.707 80.4896 28.8047 80.7467 28.8047 81.0527C28.8047 81.3522 28.707 81.6029 28.5117 81.8047C28.3229 82.0065 28.043 82.1074 27.6719 82.1074C27.3073 82.1074 27.0273 82.0065 26.832 81.8047C26.6432 81.6029 26.5488 81.3522 26.5488 81.0527ZM26.5586 72.4199C26.5586 72.1139 26.653 71.8568 26.8418 71.6484C27.0371 71.4336 27.3171 71.3262 27.6816 71.3262C28.0527 71.3262 28.3327 71.4336 28.5215 71.6484C28.7168 71.8568 28.8145 72.1139 28.8145 72.4199C28.8145 72.7194 28.7168 72.9701 28.5215 73.1719C28.3327 73.3737 28.0527 73.4746 27.6816 73.4746C27.3171 73.4746 27.0371 73.3737 26.8418 73.1719C26.653 72.9701 26.5586 72.7194 26.5586 72.4199ZM40.2207 75.9355C40.2207 77.4785 40.0384 78.709 39.6738 79.627C39.3158 80.5384 38.8014 81.196 38.1309 81.5996C37.4603 81.9967 36.666 82.1953 35.748 82.1953C34.8431 82.1953 34.0521 81.9967 33.375 81.5996C32.6979 81.196 32.1706 80.5384 31.793 79.627C31.4219 78.709 31.2363 77.4785 31.2363 75.9355V73.7578C31.2363 72.2083 31.4186 70.9844 31.7832 70.0859C32.1543 69.1875 32.6751 68.5462 33.3457 68.1621C34.0228 67.778 34.8171 67.5859 35.7285 67.5859C36.6465 67.5859 37.4408 67.778 38.1113 68.1621C38.7819 68.5462 39.2995 69.1875 39.6641 70.0859C40.0352 70.9844 40.2207 72.2083 40.2207 73.7578V75.9355ZM38.3945 73.4551C38.3945 72.3874 38.2936 71.5312 38.0918 70.8867C37.89 70.2422 37.5905 69.7767 37.1934 69.4902C36.7962 69.1973 36.3079 69.0508 35.7285 69.0508C35.1556 69.0508 34.6706 69.1973 34.2734 69.4902C33.8763 69.7767 33.5736 70.2422 33.3652 70.8867C33.1634 71.5312 33.0625 72.3874 33.0625 73.4551V76.2188C33.0625 77.2799 33.1667 78.1426 33.375 78.8066C33.5833 79.4707 33.8861 79.959 34.2832 80.2715C34.6868 80.5775 35.1751 80.7305 35.748 80.7305C36.334 80.7305 36.8223 80.5775 37.2129 80.2715C37.6035 79.959 37.8965 79.4707 38.0918 78.8066C38.2936 78.1426 38.3945 77.2799 38.3945 76.2188V73.4551ZM51.4707 75.9355C51.4707 77.4785 51.2884 78.709 50.9238 79.627C50.5658 80.5384 50.0514 81.196 49.3809 81.5996C48.7103 81.9967 47.916 82.1953 46.998 82.1953C46.0931 82.1953 45.3021 81.9967 44.625 81.5996C43.9479 81.196 43.4206 80.5384 43.043 79.627C42.6719 78.709 42.4863 77.4785 42.4863 75.9355V73.7578C42.4863 72.2083 42.6686 70.9844 43.0332 70.0859C43.4043 69.1875 43.9251 68.5462 44.5957 68.1621C45.2728 67.778 46.0671 67.5859 46.9785 67.5859C47.8965 67.5859 48.6908 67.778 49.3613 68.1621C50.0319 68.5462 50.5495 69.1875 50.9141 70.0859C51.2852 70.9844 51.4707 72.2083 51.4707 73.7578V75.9355ZM49.6445 73.4551C49.6445 72.3874 49.5436 71.5312 49.3418 70.8867C49.14 70.2422 48.8405 69.7767 48.4434 69.4902C48.0462 69.1973 47.5579 69.0508 46.9785 69.0508C46.4056 69.0508 45.9206 69.1973 45.5234 69.4902C45.1263 69.7767 44.8236 70.2422 44.6152 70.8867C44.4134 71.5312 44.3125 72.3874 44.3125 73.4551V76.2188C44.3125 77.2799 44.4167 78.1426 44.625 78.8066C44.8333 79.4707 45.1361 79.959 45.5332 80.2715C45.9368 80.5775 46.4251 80.7305 46.998 80.7305C47.584 80.7305 48.0723 80.5775 48.4629 80.2715C48.8535 79.959 49.1465 79.4707 49.3418 78.8066C49.5436 78.1426 49.6445 77.2799 49.6445 76.2188V73.4551ZM54.8398 82H52.8867L58.3164 67.7812H59.5664L59.5371 69.0312L54.8398 82ZM58.7559 69.0312L58.7363 67.7812H59.9766L65.416 82H63.4727L58.7559 69.0312ZM63.2383 78.2793H55.2402V76.7461H63.2383V78.2793ZM69.7715 67.7812L74.4102 79.4023L79.0488 67.7812H80.8945L75.123 82H73.6875L67.9258 67.7812H69.7715ZM68.9512 67.7812L69.2148 76.4434V82H67.3301V67.7812H68.9512ZM81.4902 67.7812V82H79.6055V76.4434L79.8691 67.7812H81.4902Z" fill="white" fill-opacity="0.3"/>
<path d="M98 75.8716H1626" stroke="white" stroke-opacity="0.3" stroke-width="2"/>
<path d="M17.1641 123.982C18.2057 123.982 19.0521 123.835 19.7031 123.542C20.3542 123.25 20.8522 122.856 21.1973 122.361C21.5488 121.86 21.7897 121.3 21.9199 120.681C22.0501 120.056 22.1152 119.415 22.1152 118.757V116.58C22.1152 115.714 21.9883 114.981 21.7344 114.382C21.4805 113.783 21.1452 113.331 20.7285 113.025C20.3184 112.712 19.8724 112.556 19.3906 112.556C18.8372 112.556 18.362 112.703 17.9648 112.996C17.5742 113.289 17.2747 113.686 17.0664 114.187C16.8646 114.688 16.7637 115.255 16.7637 115.886C16.7637 116.446 16.8548 116.983 17.0371 117.498C17.2259 118.012 17.5091 118.432 17.8867 118.757C18.2708 119.083 18.7526 119.246 19.332 119.246C19.7292 119.246 20.1035 119.164 20.4551 119.001C20.8132 118.839 21.1289 118.621 21.4023 118.347C21.6758 118.067 21.8971 117.751 22.0664 117.4C22.2357 117.042 22.3333 116.671 22.3594 116.287H23.2285C23.2285 116.827 23.1211 117.361 22.9062 117.888C22.6979 118.416 22.4049 118.894 22.0273 119.324C21.6497 119.753 21.207 120.095 20.6992 120.349C20.1914 120.603 19.638 120.73 19.0391 120.73C18.1016 120.73 17.3333 120.496 16.7344 120.027C16.1354 119.558 15.6927 118.962 15.4062 118.24C15.1198 117.511 14.9766 116.759 14.9766 115.984C14.9766 115.079 15.1426 114.255 15.4746 113.513C15.8066 112.771 16.3014 112.179 16.959 111.736C17.6165 111.293 18.4271 111.072 19.3906 111.072C20.2044 111.072 20.8978 111.235 21.4707 111.56C22.0501 111.879 22.5189 112.312 22.877 112.859C23.2415 113.406 23.5085 114.021 23.6777 114.705C23.847 115.388 23.9316 116.091 23.9316 116.814V117.488C23.9316 118.23 23.8828 118.982 23.7852 119.744C23.694 120.499 23.515 121.222 23.248 121.912C22.9876 122.595 22.6068 123.21 22.1055 123.757C21.6042 124.298 20.9499 124.724 20.1426 125.037C19.3418 125.349 18.349 125.505 17.1641 125.505H16.9785V123.982H17.1641ZM26.5488 124.539C26.5488 124.233 26.6432 123.975 26.832 123.767C27.0273 123.552 27.3073 123.445 27.6719 123.445C28.043 123.445 28.3229 123.552 28.5117 123.767C28.707 123.975 28.8047 124.233 28.8047 124.539C28.8047 124.838 28.707 125.089 28.5117 125.291C28.3229 125.492 28.043 125.593 27.6719 125.593C27.3073 125.593 27.0273 125.492 26.832 125.291C26.6432 125.089 26.5488 124.838 26.5488 124.539ZM26.5586 115.906C26.5586 115.6 26.653 115.343 26.8418 115.134C27.0371 114.919 27.3171 114.812 27.6816 114.812C28.0527 114.812 28.3327 114.919 28.5215 115.134C28.7168 115.343 28.8145 115.6 28.8145 115.906C28.8145 116.205 28.7168 116.456 28.5215 116.658C28.3327 116.86 28.0527 116.96 27.6816 116.96C27.3171 116.96 27.0371 116.86 26.8418 116.658C26.653 116.456 26.5586 116.205 26.5586 115.906ZM40.2207 119.421C40.2207 120.964 40.0384 122.195 39.6738 123.113C39.3158 124.024 38.8014 124.682 38.1309 125.085C37.4603 125.483 36.666 125.681 35.748 125.681C34.8431 125.681 34.0521 125.483 33.375 125.085C32.6979 124.682 32.1706 124.024 31.793 123.113C31.4219 122.195 31.2363 120.964 31.2363 119.421V117.244C31.2363 115.694 31.4186 114.47 31.7832 113.572C32.1543 112.673 32.6751 112.032 33.3457 111.648C34.0228 111.264 34.8171 111.072 35.7285 111.072C36.6465 111.072 37.4408 111.264 38.1113 111.648C38.7819 112.032 39.2995 112.673 39.6641 113.572C40.0352 114.47 40.2207 115.694 40.2207 117.244V119.421ZM38.3945 116.941C38.3945 115.873 38.2936 115.017 38.0918 114.373C37.89 113.728 37.5905 113.263 37.1934 112.976C36.7962 112.683 36.3079 112.537 35.7285 112.537C35.1556 112.537 34.6706 112.683 34.2734 112.976C33.8763 113.263 33.5736 113.728 33.3652 114.373C33.1634 115.017 33.0625 115.873 33.0625 116.941V119.705C33.0625 120.766 33.1667 121.628 33.375 122.292C33.5833 122.957 33.8861 123.445 34.2832 123.757C34.6868 124.063 35.1751 124.216 35.748 124.216C36.334 124.216 36.8223 124.063 37.2129 123.757C37.6035 123.445 37.8965 122.957 38.0918 122.292C38.2936 121.628 38.3945 120.766 38.3945 119.705V116.941ZM51.4707 119.421C51.4707 120.964 51.2884 122.195 50.9238 123.113C50.5658 124.024 50.0514 124.682 49.3809 125.085C48.7103 125.483 47.916 125.681 46.998 125.681C46.0931 125.681 45.3021 125.483 44.625 125.085C43.9479 124.682 43.4206 124.024 43.043 123.113C42.6719 122.195 42.4863 120.964 42.4863 119.421V117.244C42.4863 115.694 42.6686 114.47 43.0332 113.572C43.4043 112.673 43.9251 112.032 44.5957 111.648C45.2728 111.264 46.0671 111.072 46.9785 111.072C47.8965 111.072 48.6908 111.264 49.3613 111.648C50.0319 112.032 50.5495 112.673 50.9141 113.572C51.2852 114.47 51.4707 115.694 51.4707 117.244V119.421ZM49.6445 116.941C49.6445 115.873 49.5436 115.017 49.3418 114.373C49.14 113.728 48.8405 113.263 48.4434 112.976C48.0462 112.683 47.5579 112.537 46.9785 112.537C46.4056 112.537 45.9206 112.683 45.5234 112.976C45.1263 113.263 44.8236 113.728 44.6152 114.373C44.4134 115.017 44.3125 115.873 44.3125 116.941V119.705C44.3125 120.766 44.4167 121.628 44.625 122.292C44.8333 122.957 45.1361 123.445 45.5332 123.757C45.9368 124.063 46.4251 124.216 46.998 124.216C47.584 124.216 48.0723 124.063 48.4629 123.757C48.8535 123.445 49.1465 122.957 49.3418 122.292C49.5436 121.628 49.6445 120.766 49.6445 119.705V116.941ZM54.8398 125.486H52.8867L58.3164 111.267H59.5664L59.5371 112.517L54.8398 125.486ZM58.7559 112.517L58.7363 111.267H59.9766L65.416 125.486H63.4727L58.7559 112.517ZM63.2383 121.765H55.2402V120.232H63.2383V121.765ZM69.7715 111.267L74.4102 122.888L79.0488 111.267H80.8945L75.123 125.486H73.6875L67.9258 111.267H69.7715ZM68.9512 111.267L69.2148 119.929V125.486H67.3301V111.267H68.9512ZM81.4902 111.267V125.486H79.6055V119.929L79.8691 111.267H81.4902Z" fill="white" fill-opacity="0.3"/>
<path d="M98 119.357H1626" stroke="white" stroke-opacity="0.3" stroke-width="2"/>
<path d="M7.12891 168.972H5.30273V156.911L1.66992 158.249V156.618L6.8457 154.675H7.12891V168.972ZM21.3574 162.907C21.3574 164.45 21.1751 165.681 20.8105 166.599C20.4525 167.51 19.9382 168.168 19.2676 168.571C18.597 168.968 17.8027 169.167 16.8848 169.167C15.9798 169.167 15.1888 168.968 14.5117 168.571C13.8346 168.168 13.3073 167.51 12.9297 166.599C12.5586 165.681 12.373 164.45 12.373 162.907V160.729C12.373 159.18 12.5553 157.956 12.9199 157.058C13.291 156.159 13.8118 155.518 14.4824 155.134C15.1595 154.75 15.9538 154.558 16.8652 154.558C17.7832 154.558 18.5775 154.75 19.248 155.134C19.9186 155.518 20.4362 156.159 20.8008 157.058C21.1719 157.956 21.3574 159.18 21.3574 160.729V162.907ZM19.5312 160.427C19.5312 159.359 19.4303 158.503 19.2285 157.858C19.0267 157.214 18.7272 156.748 18.3301 156.462C17.9329 156.169 17.4447 156.022 16.8652 156.022C16.2923 156.022 15.8073 156.169 15.4102 156.462C15.013 156.748 14.7103 157.214 14.502 157.858C14.3001 158.503 14.1992 159.359 14.1992 160.427V163.19C14.1992 164.252 14.3034 165.114 14.5117 165.778C14.7201 166.442 15.0228 166.931 15.4199 167.243C15.8236 167.549 16.3118 167.702 16.8848 167.702C17.4707 167.702 17.959 167.549 18.3496 167.243C18.7402 166.931 19.0332 166.442 19.2285 165.778C19.4303 165.114 19.5312 164.252 19.5312 163.19V160.427ZM23.7988 168.024C23.7988 167.718 23.8932 167.461 24.082 167.253C24.2773 167.038 24.5573 166.931 24.9219 166.931C25.293 166.931 25.5729 167.038 25.7617 167.253C25.957 167.461 26.0547 167.718 26.0547 168.024C26.0547 168.324 25.957 168.575 25.7617 168.776C25.5729 168.978 25.293 169.079 24.9219 169.079C24.5573 169.079 24.2773 168.978 24.082 168.776C23.8932 168.575 23.7988 168.324 23.7988 168.024ZM23.8086 159.392C23.8086 159.086 23.903 158.828 24.0918 158.62C24.2871 158.405 24.5671 158.298 24.9316 158.298C25.3027 158.298 25.5827 158.405 25.7715 158.62C25.9668 158.828 26.0645 159.086 26.0645 159.392C26.0645 159.691 25.9668 159.942 25.7715 160.144C25.5827 160.345 25.3027 160.446 24.9316 160.446C24.5671 160.446 24.2871 160.345 24.0918 160.144C23.903 159.942 23.8086 159.691 23.8086 159.392ZM37.4707 162.907C37.4707 164.45 37.2884 165.681 36.9238 166.599C36.5658 167.51 36.0514 168.168 35.3809 168.571C34.7103 168.968 33.916 169.167 32.998 169.167C32.0931 169.167 31.3021 168.968 30.625 168.571C29.9479 168.168 29.4206 167.51 29.043 166.599C28.6719 165.681 28.4863 164.45 28.4863 162.907V160.729C28.4863 159.18 28.6686 157.956 29.0332 157.058C29.4043 156.159 29.9251 155.518 30.5957 155.134C31.2728 154.75 32.0671 154.558 32.9785 154.558C33.8965 154.558 34.6908 154.75 35.3613 155.134C36.0319 155.518 36.5495 156.159 36.9141 157.058C37.2852 157.956 37.4707 159.18 37.4707 160.729V162.907ZM35.6445 160.427C35.6445 159.359 35.5436 158.503 35.3418 157.858C35.14 157.214 34.8405 156.748 34.4434 156.462C34.0462 156.169 33.5579 156.022 32.9785 156.022C32.4056 156.022 31.9206 156.169 31.5234 156.462C31.1263 156.748 30.8236 157.214 30.6152 157.858C30.4134 158.503 30.3125 159.359 30.3125 160.427V163.19C30.3125 164.252 30.4167 165.114 30.625 165.778C30.8333 166.442 31.1361 166.931 31.5332 167.243C31.9368 167.549 32.4251 167.702 32.998 167.702C33.584 167.702 34.0723 167.549 34.4629 167.243C34.8535 166.931 35.1465 166.442 35.3418 165.778C35.5436 165.114 35.6445 164.252 35.6445 163.19V160.427ZM48.7207 162.907C48.7207 164.45 48.5384 165.681 48.1738 166.599C47.8158 167.51 47.3014 168.168 46.6309 168.571C45.9603 168.968 45.166 169.167 44.248 169.167C43.3431 169.167 42.5521 168.968 41.875 168.571C41.1979 168.168 40.6706 167.51 40.293 166.599C39.9219 165.681 39.7363 164.45 39.7363 162.907V160.729C39.7363 159.18 39.9186 157.956 40.2832 157.058C40.6543 156.159 41.1751 155.518 41.8457 155.134C42.5228 154.75 43.3171 154.558 44.2285 154.558C45.1465 154.558 45.9408 154.75 46.6113 155.134C47.2819 155.518 47.7995 156.159 48.1641 157.058C48.5352 157.956 48.7207 159.18 48.7207 160.729V162.907ZM46.8945 160.427C46.8945 159.359 46.7936 158.503 46.5918 157.858C46.39 157.214 46.0905 156.748 45.6934 156.462C45.2962 156.169 44.8079 156.022 44.2285 156.022C43.6556 156.022 43.1706 156.169 42.7734 156.462C42.3763 156.748 42.0736 157.214 41.8652 157.858C41.6634 158.503 41.5625 159.359 41.5625 160.427V163.19C41.5625 164.252 41.6667 165.114 41.875 165.778C42.0833 166.442 42.3861 166.931 42.7832 167.243C43.1868 167.549 43.6751 167.702 44.248 167.702C44.834 167.702 45.3223 167.549 45.7129 167.243C46.1035 166.931 46.3965 166.442 46.5918 165.778C46.7936 165.114 46.8945 164.252 46.8945 163.19V160.427ZM52.0898 168.972H50.1367L55.5664 154.753H56.8164L56.7871 156.003L52.0898 168.972ZM56.0059 156.003L55.9863 154.753H57.2266L62.666 168.972H60.7227L56.0059 156.003ZM60.4883 165.251H52.4902V163.718H60.4883V165.251ZM67.0215 154.753L71.6602 166.374L76.2988 154.753H78.1445L72.373 168.972H70.9375L65.1758 154.753H67.0215ZM66.2012 154.753L66.4648 163.415V168.972H64.5801V154.753H66.2012ZM78.7402 154.753V168.972H76.8555V163.415L77.1191 154.753H78.7402Z" fill="white" fill-opacity="0.3"/>
<path d="M98 162.843H1626" stroke="white" stroke-opacity="0.3" stroke-width="2"/>
<path d="M7.12891 212.458H5.30273V200.397L1.66992 201.735V200.104L6.8457 198.161H7.12891V212.458ZM18.3789 212.458H16.5527V200.397L12.9199 201.735V200.104L18.0957 198.161H18.3789V212.458ZM23.7988 211.51C23.7988 211.204 23.8932 210.947 24.082 210.739C24.2773 210.524 24.5573 210.417 24.9219 210.417C25.293 210.417 25.5729 210.524 25.7617 210.739C25.957 210.947 26.0547 211.204 26.0547 211.51C26.0547 211.81 25.957 212.06 25.7617 212.262C25.5729 212.464 25.293 212.565 24.9219 212.565C24.5573 212.565 24.2773 212.464 24.082 212.262C23.8932 212.06 23.7988 211.81 23.7988 211.51ZM23.8086 202.877C23.8086 202.571 23.903 202.314 24.0918 202.106C24.2871 201.891 24.5671 201.784 24.9316 201.784C25.3027 201.784 25.5827 201.891 25.7715 202.106C25.9668 202.314 26.0645 202.571 26.0645 202.877C26.0645 203.177 25.9668 203.428 25.7715 203.629C25.5827 203.831 25.3027 203.932 24.9316 203.932C24.5671 203.932 24.2871 203.831 24.0918 203.629C23.903 203.428 23.8086 203.177 23.8086 202.877ZM37.4707 206.393C37.4707 207.936 37.2884 209.167 36.9238 210.084C36.5658 210.996 36.0514 211.653 35.3809 212.057C34.7103 212.454 33.916 212.653 32.998 212.653C32.0931 212.653 31.3021 212.454 30.625 212.057C29.9479 211.653 29.4206 210.996 29.043 210.084C28.6719 209.167 28.4863 207.936 28.4863 206.393V204.215C28.4863 202.666 28.6686 201.442 29.0332 200.543C29.4043 199.645 29.9251 199.004 30.5957 198.62C31.2728 198.236 32.0671 198.043 32.9785 198.043C33.8965 198.043 34.6908 198.236 35.3613 198.62C36.0319 199.004 36.5495 199.645 36.9141 200.543C37.2852 201.442 37.4707 202.666 37.4707 204.215V206.393ZM35.6445 203.913C35.6445 202.845 35.5436 201.989 35.3418 201.344C35.14 200.7 34.8405 200.234 34.4434 199.948C34.0462 199.655 33.5579 199.508 32.9785 199.508C32.4056 199.508 31.9206 199.655 31.5234 199.948C31.1263 200.234 30.8236 200.7 30.6152 201.344C30.4134 201.989 30.3125 202.845 30.3125 203.913V206.676C30.3125 207.737 30.4167 208.6 30.625 209.264C30.8333 209.928 31.1361 210.417 31.5332 210.729C31.9368 211.035 32.4251 211.188 32.998 211.188C33.584 211.188 34.0723 211.035 34.4629 210.729C34.8535 210.417 35.1465 209.928 35.3418 209.264C35.5436 208.6 35.6445 207.737 35.6445 206.676V203.913ZM48.7207 206.393C48.7207 207.936 48.5384 209.167 48.1738 210.084C47.8158 210.996 47.3014 211.653 46.6309 212.057C45.9603 212.454 45.166 212.653 44.248 212.653C43.3431 212.653 42.5521 212.454 41.875 212.057C41.1979 211.653 40.6706 210.996 40.293 210.084C39.9219 209.167 39.7363 207.936 39.7363 206.393V204.215C39.7363 202.666 39.9186 201.442 40.2832 200.543C40.6543 199.645 41.1751 199.004 41.8457 198.62C42.5228 198.236 43.3171 198.043 44.2285 198.043C45.1465 198.043 45.9408 198.236 46.6113 198.62C47.2819 199.004 47.7995 199.645 48.1641 200.543C48.5352 201.442 48.7207 202.666 48.7207 204.215V206.393ZM46.8945 203.913C46.8945 202.845 46.7936 201.989 46.5918 201.344C46.39 200.7 46.0905 200.234 45.6934 199.948C45.2962 199.655 44.8079 199.508 44.2285 199.508C43.6556 199.508 43.1706 199.655 42.7734 199.948C42.3763 200.234 42.0736 200.7 41.8652 201.344C41.6634 201.989 41.5625 202.845 41.5625 203.913V206.676C41.5625 207.737 41.6667 208.6 41.875 209.264C42.0833 209.928 42.3861 210.417 42.7832 210.729C43.1868 211.035 43.6751 211.188 44.248 211.188C44.834 211.188 45.3223 211.035 45.7129 210.729C46.1035 210.417 46.3965 209.928 46.5918 209.264C46.7936 208.6 46.8945 207.737 46.8945 206.676V203.913ZM52.0898 212.458H50.1367L55.5664 198.239H56.8164L56.7871 199.489L52.0898 212.458ZM56.0059 199.489L55.9863 198.239H57.2266L62.666 212.458H60.7227L56.0059 199.489ZM60.4883 208.737H52.4902V207.204H60.4883V208.737ZM67.0215 198.239L71.6602 209.86L76.2988 198.239H78.1445L72.373 212.458H70.9375L65.1758 198.239H67.0215ZM66.2012 198.239L66.4648 206.901V212.458H64.5801V198.239H66.2012ZM78.7402 198.239V212.458H76.8555V206.901L77.1191 198.239H78.7402Z" fill="white" fill-opacity="0.3"/>
<path d="M98 206.329H1626" stroke="white" stroke-opacity="0.3" stroke-width="2"/>
<path d="M7.12891 255.944H5.30273V243.883L1.66992 245.221V243.59L6.8457 241.647H7.12891V255.944ZM21.7578 255.944H12.4316V254.655L17.0898 249.469C17.6693 248.831 18.1152 248.291 18.4277 247.848C18.7467 247.399 18.9681 246.995 19.0918 246.637C19.2155 246.279 19.2773 245.915 19.2773 245.543C19.2773 244.84 19.0625 244.241 18.6328 243.747C18.2096 243.245 17.6042 242.995 16.8164 242.995C16.1784 242.995 15.6478 243.118 15.2246 243.366C14.8079 243.613 14.4954 243.955 14.2871 244.391C14.0853 244.827 13.9844 245.332 13.9844 245.905H12.1582C12.1582 245.104 12.334 244.372 12.6855 243.708C13.0371 243.043 13.5579 242.516 14.248 242.125C14.9447 241.728 15.8008 241.53 16.8164 241.53C18.1576 241.53 19.2057 241.878 19.9609 242.575C20.7227 243.271 21.1035 244.189 21.1035 245.329C21.1035 245.889 20.9831 246.452 20.7422 247.018C20.5013 247.584 20.179 248.148 19.7754 248.708C19.3717 249.261 18.9258 249.801 18.4375 250.329L14.6289 254.479H21.7578V255.944ZM23.7988 254.997C23.7988 254.691 23.8932 254.433 24.082 254.225C24.2773 254.01 24.5573 253.903 24.9219 253.903C25.293 253.903 25.5729 254.01 25.7617 254.225C25.957 254.433 26.0547 254.691 26.0547 254.997C26.0547 255.296 25.957 255.547 25.7617 255.749C25.5729 255.95 25.293 256.051 24.9219 256.051C24.5573 256.051 24.2773 255.95 24.082 255.749C23.8932 255.547 23.7988 255.296 23.7988 254.997ZM23.8086 246.364C23.8086 246.058 23.903 245.801 24.0918 245.592C24.2871 245.377 24.5671 245.27 24.9316 245.27C25.3027 245.27 25.5827 245.377 25.7715 245.592C25.9668 245.801 26.0645 246.058 26.0645 246.364C26.0645 246.663 25.9668 246.914 25.7715 247.116C25.5827 247.318 25.3027 247.418 24.9316 247.418C24.5671 247.418 24.2871 247.318 24.0918 247.116C23.903 246.914 23.8086 246.663 23.8086 246.364ZM37.4707 249.879C37.4707 251.422 37.2884 252.653 36.9238 253.571C36.5658 254.482 36.0514 255.14 35.3809 255.543C34.7103 255.941 33.916 256.139 32.998 256.139C32.0931 256.139 31.3021 255.941 30.625 255.543C29.9479 255.14 29.4206 254.482 29.043 253.571C28.6719 252.653 28.4863 251.422 28.4863 249.879V247.702C28.4863 246.152 28.6686 244.928 29.0332 244.03C29.4043 243.131 29.9251 242.49 30.5957 242.106C31.2728 241.722 32.0671 241.53 32.9785 241.53C33.8965 241.53 34.6908 241.722 35.3613 242.106C36.0319 242.49 36.5495 243.131 36.9141 244.03C37.2852 244.928 37.4707 246.152 37.4707 247.702V249.879ZM35.6445 247.399C35.6445 246.331 35.5436 245.475 35.3418 244.831C35.14 244.186 34.8405 243.721 34.4434 243.434C34.0462 243.141 33.5579 242.995 32.9785 242.995C32.4056 242.995 31.9206 243.141 31.5234 243.434C31.1263 243.721 30.8236 244.186 30.6152 244.831C30.4134 245.475 30.3125 246.331 30.3125 247.399V250.163C30.3125 251.224 30.4167 252.086 30.625 252.75C30.8333 253.415 31.1361 253.903 31.5332 254.215C31.9368 254.521 32.4251 254.674 32.998 254.674C33.584 254.674 34.0723 254.521 34.4629 254.215C34.8535 253.903 35.1465 253.415 35.3418 252.75C35.5436 252.086 35.6445 251.224 35.6445 250.163V247.399ZM48.7207 249.879C48.7207 251.422 48.5384 252.653 48.1738 253.571C47.8158 254.482 47.3014 255.14 46.6309 255.543C45.9603 255.941 45.166 256.139 44.248 256.139C43.3431 256.139 42.5521 255.941 41.875 255.543C41.1979 255.14 40.6706 254.482 40.293 253.571C39.9219 252.653 39.7363 251.422 39.7363 249.879V247.702C39.7363 246.152 39.9186 244.928 40.2832 244.03C40.6543 243.131 41.1751 242.49 41.8457 242.106C42.5228 241.722 43.3171 241.53 44.2285 241.53C45.1465 241.53 45.9408 241.722 46.6113 242.106C47.2819 242.49 47.7995 243.131 48.1641 244.03C48.5352 244.928 48.7207 246.152 48.7207 247.702V249.879ZM46.8945 247.399C46.8945 246.331 46.7936 245.475 46.5918 244.831C46.39 244.186 46.0905 243.721 45.6934 243.434C45.2962 243.141 44.8079 242.995 44.2285 242.995C43.6556 242.995 43.1706 243.141 42.7734 243.434C42.3763 243.721 42.0736 244.186 41.8652 244.831C41.6634 245.475 41.5625 246.331 41.5625 247.399V250.163C41.5625 251.224 41.6667 252.086 41.875 252.75C42.0833 253.415 42.3861 253.903 42.7832 254.215C43.1868 254.521 43.6751 254.674 44.248 254.674C44.834 254.674 45.3223 254.521 45.7129 254.215C46.1035 253.903 46.3965 253.415 46.5918 252.75C46.7936 252.086 46.8945 251.224 46.8945 250.163V247.399ZM52.9785 250.368V248.844H56.7676C57.5033 248.844 58.0957 248.727 58.5449 248.493C59.0007 248.252 59.3327 247.923 59.541 247.506C59.7559 247.09 59.8633 246.614 59.8633 246.081C59.8633 245.592 59.7559 245.133 59.541 244.704C59.3327 244.274 59.0007 243.926 58.5449 243.659C58.0957 243.392 57.5033 243.258 56.7676 243.258H53.4082V255.944H51.5137V241.725H56.7676C57.8418 241.725 58.75 241.911 59.4922 242.282C60.2344 242.653 60.7975 243.164 61.1816 243.815C61.5658 244.466 61.7578 245.215 61.7578 246.061C61.7578 246.972 61.5658 247.75 61.1816 248.395C60.7975 249.04 60.2344 249.531 59.4922 249.87C58.75 250.202 57.8418 250.368 56.7676 250.368H52.9785ZM66.5918 241.725L71.2305 253.346L75.8691 241.725H77.7148L71.9434 255.944H70.5078L64.7461 241.725H66.5918ZM65.7715 241.725L66.0352 250.387V255.944H64.1504V241.725H65.7715ZM78.3105 241.725V255.944H76.4258V250.387L76.6895 241.725H78.3105Z" fill="white" fill-opacity="0.3"/>
<path d="M98 249.815H1626" stroke="white" stroke-opacity="0.3" stroke-width="2"/>
<path d="M21.1289 299.43H19.3027V287.369L15.6699 288.707V287.076L20.8457 285.133H21.1289V299.43ZM26.5488 298.482C26.5488 298.176 26.6432 297.919 26.832 297.711C27.0273 297.496 27.3073 297.389 27.6719 297.389C28.043 297.389 28.3229 297.496 28.5117 297.711C28.707 297.919 28.8047 298.176 28.8047 298.482C28.8047 298.782 28.707 299.033 28.5117 299.234C28.3229 299.436 28.043 299.537 27.6719 299.537C27.3073 299.537 27.0273 299.436 26.832 299.234C26.6432 299.033 26.5488 298.782 26.5488 298.482ZM26.5586 289.85C26.5586 289.544 26.653 289.286 26.8418 289.078C27.0371 288.863 27.3171 288.756 27.6816 288.756C28.0527 288.756 28.3327 288.863 28.5215 289.078C28.7168 289.286 28.8145 289.544 28.8145 289.85C28.8145 290.149 28.7168 290.4 28.5215 290.602C28.3327 290.803 28.0527 290.904 27.6816 290.904C27.3171 290.904 27.0371 290.803 26.8418 290.602C26.653 290.4 26.5586 290.149 26.5586 289.85ZM40.2207 293.365C40.2207 294.908 40.0384 296.139 39.6738 297.057C39.3158 297.968 38.8014 298.626 38.1309 299.029C37.4603 299.426 36.666 299.625 35.748 299.625C34.8431 299.625 34.0521 299.426 33.375 299.029C32.6979 298.626 32.1706 297.968 31.793 297.057C31.4219 296.139 31.2363 294.908 31.2363 293.365V291.188C31.2363 289.638 31.4186 288.414 31.7832 287.516C32.1543 286.617 32.6751 285.976 33.3457 285.592C34.0228 285.208 34.8171 285.016 35.7285 285.016C36.6465 285.016 37.4408 285.208 38.1113 285.592C38.7819 285.976 39.2995 286.617 39.6641 287.516C40.0352 288.414 40.2207 289.638 40.2207 291.188V293.365ZM38.3945 290.885C38.3945 289.817 38.2936 288.961 38.0918 288.316C37.89 287.672 37.5905 287.206 37.1934 286.92C36.7962 286.627 36.3079 286.48 35.7285 286.48C35.1556 286.48 34.6706 286.627 34.2734 286.92C33.8763 287.206 33.5736 287.672 33.3652 288.316C33.1634 288.961 33.0625 289.817 33.0625 290.885V293.648C33.0625 294.71 33.1667 295.572 33.375 296.236C33.5833 296.9 33.8861 297.389 34.2832 297.701C34.6868 298.007 35.1751 298.16 35.748 298.16C36.334 298.16 36.8223 298.007 37.2129 297.701C37.6035 297.389 37.8965 296.9 38.0918 296.236C38.2936 295.572 38.3945 294.71 38.3945 293.648V290.885ZM51.4707 293.365C51.4707 294.908 51.2884 296.139 50.9238 297.057C50.5658 297.968 50.0514 298.626 49.3809 299.029C48.7103 299.426 47.916 299.625 46.998 299.625C46.0931 299.625 45.3021 299.426 44.625 299.029C43.9479 298.626 43.4206 297.968 43.043 297.057C42.6719 296.139 42.4863 294.908 42.4863 293.365V291.188C42.4863 289.638 42.6686 288.414 43.0332 287.516C43.4043 286.617 43.9251 285.976 44.5957 285.592C45.2728 285.208 46.0671 285.016 46.9785 285.016C47.8965 285.016 48.6908 285.208 49.3613 285.592C50.0319 285.976 50.5495 286.617 50.9141 287.516C51.2852 288.414 51.4707 289.638 51.4707 291.188V293.365ZM49.6445 290.885C49.6445 289.817 49.5436 288.961 49.3418 288.316C49.14 287.672 48.8405 287.206 48.4434 286.92C48.0462 286.627 47.5579 286.48 46.9785 286.48C46.4056 286.48 45.9206 286.627 45.5234 286.92C45.1263 287.206 44.8236 287.672 44.6152 288.316C44.4134 288.961 44.3125 289.817 44.3125 290.885V293.648C44.3125 294.71 44.4167 295.572 44.625 296.236C44.8333 296.9 45.1361 297.389 45.5332 297.701C45.9368 298.007 46.4251 298.16 46.998 298.16C47.584 298.16 48.0723 298.007 48.4629 297.701C48.8535 297.389 49.1465 296.9 49.3418 296.236C49.5436 295.572 49.6445 294.71 49.6445 293.648V290.885ZM55.7285 293.854V292.33H59.5176C60.2533 292.33 60.8457 292.213 61.2949 291.979C61.7507 291.738 62.0827 291.409 62.291 290.992C62.5059 290.576 62.6133 290.1 62.6133 289.566C62.6133 289.078 62.5059 288.619 62.291 288.189C62.0827 287.76 61.7507 287.411 61.2949 287.145C60.8457 286.878 60.2533 286.744 59.5176 286.744H56.1582V299.43H54.2637V285.211H59.5176C60.5918 285.211 61.5 285.396 62.2422 285.768C62.9844 286.139 63.5475 286.65 63.9316 287.301C64.3158 287.952 64.5078 288.701 64.5078 289.547C64.5078 290.458 64.3158 291.236 63.9316 291.881C63.5475 292.525 62.9844 293.017 62.2422 293.355C61.5 293.688 60.5918 293.854 59.5176 293.854H55.7285ZM69.3418 285.211L73.9805 296.832L78.6191 285.211H80.4648L74.6934 299.43H73.2578L67.4961 285.211H69.3418ZM68.5215 285.211L68.7852 293.873V299.43H66.9004V285.211H68.5215ZM81.0605 285.211V299.43H79.1758V293.873L79.4395 285.211H81.0605Z" fill="white" fill-opacity="0.3"/>
<path d="M98 293.301H1626" stroke="white" stroke-opacity="0.3" stroke-width="2"/>
<path d="M24.5078 342.916H15.1816V341.626L19.8398 336.441C20.4193 335.803 20.8652 335.263 21.1777 334.82C21.4967 334.371 21.7181 333.967 21.8418 333.609C21.9655 333.251 22.0273 332.886 22.0273 332.515C22.0273 331.812 21.8125 331.213 21.3828 330.718C20.9596 330.217 20.3542 329.966 19.5664 329.966C18.9284 329.966 18.3978 330.09 17.9746 330.337C17.5579 330.585 17.2454 330.927 17.0371 331.363C16.8353 331.799 16.7344 332.304 16.7344 332.876H14.9082C14.9082 332.076 15.084 331.343 15.4355 330.679C15.7871 330.015 16.3079 329.488 16.998 329.097C17.6947 328.7 18.5508 328.501 19.5664 328.501C20.9076 328.501 21.9557 328.85 22.7109 329.546C23.4727 330.243 23.8535 331.161 23.8535 332.3C23.8535 332.86 23.7331 333.423 23.4922 333.99C23.2513 334.556 22.929 335.119 22.5254 335.679C22.1217 336.233 21.6758 336.773 21.1875 337.3L17.3789 341.451H24.5078V342.916ZM26.5488 341.968C26.5488 341.662 26.6432 341.405 26.832 341.197C27.0273 340.982 27.3073 340.875 27.6719 340.875C28.043 340.875 28.3229 340.982 28.5117 341.197C28.707 341.405 28.8047 341.662 28.8047 341.968C28.8047 342.268 28.707 342.518 28.5117 342.72C28.3229 342.922 28.043 343.023 27.6719 343.023C27.3073 343.023 27.0273 342.922 26.832 342.72C26.6432 342.518 26.5488 342.268 26.5488 341.968ZM26.5586 333.335C26.5586 333.029 26.653 332.772 26.8418 332.564C27.0371 332.349 27.3171 332.242 27.6816 332.242C28.0527 332.242 28.3327 332.349 28.5215 332.564C28.7168 332.772 28.8145 333.029 28.8145 333.335C28.8145 333.635 28.7168 333.886 28.5215 334.087C28.3327 334.289 28.0527 334.39 27.6816 334.39C27.3171 334.39 27.0371 334.289 26.8418 334.087C26.653 333.886 26.5586 333.635 26.5586 333.335ZM40.2207 336.851C40.2207 338.394 40.0384 339.625 39.6738 340.542C39.3158 341.454 38.8014 342.111 38.1309 342.515C37.4603 342.912 36.666 343.111 35.748 343.111C34.8431 343.111 34.0521 342.912 33.375 342.515C32.6979 342.111 32.1706 341.454 31.793 340.542C31.4219 339.625 31.2363 338.394 31.2363 336.851V334.673C31.2363 333.124 31.4186 331.9 31.7832 331.001C32.1543 330.103 32.6751 329.462 33.3457 329.078C34.0228 328.694 34.8171 328.501 35.7285 328.501C36.6465 328.501 37.4408 328.694 38.1113 329.078C38.7819 329.462 39.2995 330.103 39.6641 331.001C40.0352 331.9 40.2207 333.124 40.2207 334.673V336.851ZM38.3945 334.371C38.3945 333.303 38.2936 332.447 38.0918 331.802C37.89 331.158 37.5905 330.692 37.1934 330.406C36.7962 330.113 36.3079 329.966 35.7285 329.966C35.1556 329.966 34.6706 330.113 34.2734 330.406C33.8763 330.692 33.5736 331.158 33.3652 331.802C33.1634 332.447 33.0625 333.303 33.0625 334.371V337.134C33.0625 338.195 33.1667 339.058 33.375 339.722C33.5833 340.386 33.8861 340.875 34.2832 341.187C34.6868 341.493 35.1751 341.646 35.748 341.646C36.334 341.646 36.8223 341.493 37.2129 341.187C37.6035 340.875 37.8965 340.386 38.0918 339.722C38.2936 339.058 38.3945 338.195 38.3945 337.134V334.371ZM51.4707 336.851C51.4707 338.394 51.2884 339.625 50.9238 340.542C50.5658 341.454 50.0514 342.111 49.3809 342.515C48.7103 342.912 47.916 343.111 46.998 343.111C46.0931 343.111 45.3021 342.912 44.625 342.515C43.9479 342.111 43.4206 341.454 43.043 340.542C42.6719 339.625 42.4863 338.394 42.4863 336.851V334.673C42.4863 333.124 42.6686 331.9 43.0332 331.001C43.4043 330.103 43.9251 329.462 44.5957 329.078C45.2728 328.694 46.0671 328.501 46.9785 328.501C47.8965 328.501 48.6908 328.694 49.3613 329.078C50.0319 329.462 50.5495 330.103 50.9141 331.001C51.2852 331.9 51.4707 333.124 51.4707 334.673V336.851ZM49.6445 334.371C49.6445 333.303 49.5436 332.447 49.3418 331.802C49.14 331.158 48.8405 330.692 48.4434 330.406C48.0462 330.113 47.5579 329.966 46.9785 329.966C46.4056 329.966 45.9206 330.113 45.5234 330.406C45.1263 330.692 44.8236 331.158 44.6152 331.802C44.4134 332.447 44.3125 333.303 44.3125 334.371V337.134C44.3125 338.195 44.4167 339.058 44.625 339.722C44.8333 340.386 45.1361 340.875 45.5332 341.187C45.9368 341.493 46.4251 341.646 46.998 341.646C47.584 341.646 48.0723 341.493 48.4629 341.187C48.8535 340.875 49.1465 340.386 49.3418 339.722C49.5436 339.058 49.6445 338.195 49.6445 337.134V334.371ZM55.7285 337.339V335.816H59.5176C60.2533 335.816 60.8457 335.699 61.2949 335.464C61.7507 335.223 62.0827 334.895 62.291 334.478C62.5059 334.061 62.6133 333.586 62.6133 333.052C62.6133 332.564 62.5059 332.105 62.291 331.675C62.0827 331.246 61.7507 330.897 61.2949 330.63C60.8457 330.363 60.2533 330.23 59.5176 330.23H56.1582V342.916H54.2637V328.697H59.5176C60.5918 328.697 61.5 328.882 62.2422 329.253C62.9844 329.625 63.5475 330.136 63.9316 330.787C64.3158 331.438 64.5078 332.186 64.5078 333.033C64.5078 333.944 64.3158 334.722 63.9316 335.367C63.5475 336.011 62.9844 336.503 62.2422 336.841C61.5 337.173 60.5918 337.339 59.5176 337.339H55.7285ZM69.3418 328.697L73.9805 340.318L78.6191 328.697H80.4648L74.6934 342.916H73.2578L67.4961 328.697H69.3418ZM68.5215 328.697L68.7852 337.359V342.916H66.9004V328.697H68.5215ZM81.0605 328.697V342.916H79.1758V337.359L79.4395 328.697H81.0605Z" fill="white" fill-opacity="0.3"/>
<path d="M98 336.787H1626" stroke="white" stroke-opacity="0.3" stroke-width="2"/>
<path d="M19.1074 378.413C19.7324 378.413 20.25 378.306 20.6602 378.091C21.0768 377.876 21.3861 377.586 21.5879 377.222C21.7962 376.851 21.9004 376.431 21.9004 375.962C21.9004 375.422 21.8092 374.966 21.627 374.595C21.4447 374.217 21.1712 373.934 20.8066 373.745C20.4421 373.55 19.9831 373.452 19.4297 373.452C18.9219 373.452 18.4759 373.553 18.0918 373.755C17.7077 373.957 17.4082 374.24 17.1934 374.604C16.9785 374.969 16.8711 375.402 16.8711 375.903H15.0449C15.0449 375.174 15.2272 374.517 15.5918 373.931C15.9564 373.338 16.4674 372.866 17.125 372.515C17.7826 372.163 18.5508 371.987 19.4297 371.987C20.2891 371.987 21.041 372.14 21.6855 372.446C22.3301 372.746 22.8314 373.195 23.1895 373.794C23.5475 374.386 23.7266 375.122 23.7266 376.001C23.7266 376.366 23.6419 376.75 23.4727 377.153C23.3099 377.557 23.0527 377.938 22.7012 378.296C22.3561 378.647 21.9069 378.937 21.3535 379.165C20.8001 379.386 20.1361 379.497 19.3613 379.497H17.8184V378.413H19.1074ZM17.8184 378.804H19.3613C20.2663 378.804 21.015 378.911 21.6074 379.126C22.1999 379.341 22.6654 379.627 23.0039 379.985C23.349 380.337 23.5898 380.728 23.7266 381.157C23.8698 381.587 23.9414 382.013 23.9414 382.437C23.9414 383.322 23.7428 384.074 23.3457 384.692C22.9551 385.311 22.418 385.783 21.7344 386.108C21.0573 386.434 20.2923 386.597 19.4395 386.597C18.821 386.597 18.2383 386.509 17.6914 386.333C17.1445 386.157 16.6628 385.903 16.2461 385.571C15.8359 385.233 15.5137 384.819 15.2793 384.331C15.0449 383.836 14.9277 383.273 14.9277 382.642H16.7539C16.7539 383.136 16.8613 383.573 17.0762 383.95C17.2975 384.321 17.6068 384.611 18.0039 384.819C18.4076 385.028 18.8861 385.132 19.4395 385.132C20.2663 385.132 20.9173 384.91 21.3926 384.468C21.8743 384.025 22.1152 383.361 22.1152 382.476C22.1152 381.883 21.9915 381.395 21.7441 381.011C21.4967 380.627 21.1484 380.343 20.6992 380.161C20.25 379.972 19.7194 379.878 19.1074 379.878H17.8184V378.804ZM26.5488 385.454C26.5488 385.148 26.6432 384.891 26.832 384.683C27.0273 384.468 27.3073 384.36 27.6719 384.36C28.043 384.36 28.3229 384.468 28.5117 384.683C28.707 384.891 28.8047 385.148 28.8047 385.454C28.8047 385.754 28.707 386.004 28.5117 386.206C28.3229 386.408 28.043 386.509 27.6719 386.509C27.3073 386.509 27.0273 386.408 26.832 386.206C26.6432 386.004 26.5488 385.754 26.5488 385.454ZM26.5586 376.821C26.5586 376.515 26.653 376.258 26.8418 376.05C27.0371 375.835 27.3171 375.728 27.6816 375.728C28.0527 375.728 28.3327 375.835 28.5215 376.05C28.7168 376.258 28.8145 376.515 28.8145 376.821C28.8145 377.121 28.7168 377.371 28.5215 377.573C28.3327 377.775 28.0527 377.876 27.6816 377.876C27.3171 377.876 27.0371 377.775 26.8418 377.573C26.653 377.371 26.5586 377.121 26.5586 376.821ZM40.2207 380.337C40.2207 381.88 40.0384 383.11 39.6738 384.028C39.3158 384.94 38.8014 385.597 38.1309 386.001C37.4603 386.398 36.666 386.597 35.748 386.597C34.8431 386.597 34.0521 386.398 33.375 386.001C32.6979 385.597 32.1706 384.94 31.793 384.028C31.4219 383.11 31.2363 381.88 31.2363 380.337V378.159C31.2363 376.61 31.4186 375.386 31.7832 374.487C32.1543 373.589 32.6751 372.948 33.3457 372.563C34.0228 372.179 34.8171 371.987 35.7285 371.987C36.6465 371.987 37.4408 372.179 38.1113 372.563C38.7819 372.948 39.2995 373.589 39.6641 374.487C40.0352 375.386 40.2207 376.61 40.2207 378.159V380.337ZM38.3945 377.856C38.3945 376.789 38.2936 375.933 38.0918 375.288C37.89 374.644 37.5905 374.178 37.1934 373.892C36.7962 373.599 36.3079 373.452 35.7285 373.452C35.1556 373.452 34.6706 373.599 34.2734 373.892C33.8763 374.178 33.5736 374.644 33.3652 375.288C33.1634 375.933 33.0625 376.789 33.0625 377.856V380.62C33.0625 381.681 33.1667 382.544 33.375 383.208C33.5833 383.872 33.8861 384.36 34.2832 384.673C34.6868 384.979 35.1751 385.132 35.748 385.132C36.334 385.132 36.8223 384.979 37.2129 384.673C37.6035 384.36 37.8965 383.872 38.0918 383.208C38.2936 382.544 38.3945 381.681 38.3945 380.62V377.856ZM51.4707 380.337C51.4707 381.88 51.2884 383.11 50.9238 384.028C50.5658 384.94 50.0514 385.597 49.3809 386.001C48.7103 386.398 47.916 386.597 46.998 386.597C46.0931 386.597 45.3021 386.398 44.625 386.001C43.9479 385.597 43.4206 384.94 43.043 384.028C42.6719 383.11 42.4863 381.88 42.4863 380.337V378.159C42.4863 376.61 42.6686 375.386 43.0332 374.487C43.4043 373.589 43.9251 372.948 44.5957 372.563C45.2728 372.179 46.0671 371.987 46.9785 371.987C47.8965 371.987 48.6908 372.179 49.3613 372.563C50.0319 372.948 50.5495 373.589 50.9141 374.487C51.2852 375.386 51.4707 376.61 51.4707 378.159V380.337ZM49.6445 377.856C49.6445 376.789 49.5436 375.933 49.3418 375.288C49.14 374.644 48.8405 374.178 48.4434 373.892C48.0462 373.599 47.5579 373.452 46.9785 373.452C46.4056 373.452 45.9206 373.599 45.5234 373.892C45.1263 374.178 44.8236 374.644 44.6152 375.288C44.4134 375.933 44.3125 376.789 44.3125 377.856V380.62C44.3125 381.681 44.4167 382.544 44.625 383.208C44.8333 383.872 45.1361 384.36 45.5332 384.673C45.9368 384.979 46.4251 385.132 46.998 385.132C47.584 385.132 48.0723 384.979 48.4629 384.673C48.8535 384.36 49.1465 383.872 49.3418 383.208C49.5436 382.544 49.6445 381.681 49.6445 380.62V377.856ZM55.7285 380.825V379.302H59.5176C60.2533 379.302 60.8457 379.185 61.2949 378.95C61.7507 378.709 62.0827 378.381 62.291 377.964C62.5059 377.547 62.6133 377.072 62.6133 376.538C62.6133 376.05 62.5059 375.591 62.291 375.161C62.0827 374.731 61.7507 374.383 61.2949 374.116C60.8457 373.849 60.2533 373.716 59.5176 373.716H56.1582V386.401H54.2637V372.183H59.5176C60.5918 372.183 61.5 372.368 62.2422 372.739C62.9844 373.11 63.5475 373.621 63.9316 374.272C64.3158 374.924 64.5078 375.672 64.5078 376.519C64.5078 377.43 64.3158 378.208 63.9316 378.853C63.5475 379.497 62.9844 379.989 62.2422 380.327C61.5 380.659 60.5918 380.825 59.5176 380.825H55.7285ZM69.3418 372.183L73.9805 383.804L78.6191 372.183H80.4648L74.6934 386.401H73.2578L67.4961 372.183H69.3418ZM68.5215 372.183L68.7852 380.845V386.401H66.9004V372.183H68.5215ZM81.0605 372.183V386.401H79.1758V380.845L79.4395 372.183H81.0605Z" fill="white" fill-opacity="0.3"/>
<path d="M98 380.273H1626" stroke="white" stroke-opacity="0.3" stroke-width="2"/>
<path d="M24.791 426.689H14.5176V425.635L20.875 415.781H22.3594L20.7773 418.623L16.5781 425.225H24.791V426.689ZM22.8184 430H20.9922V415.781H22.8184V430ZM26.5488 429.053C26.5488 428.747 26.6432 428.49 26.832 428.281C27.0273 428.066 27.3073 427.959 27.6719 427.959C28.043 427.959 28.3229 428.066 28.5117 428.281C28.707 428.49 28.8047 428.747 28.8047 429.053C28.8047 429.352 28.707 429.603 28.5117 429.805C28.3229 430.007 28.043 430.107 27.6719 430.107C27.3073 430.107 27.0273 430.007 26.832 429.805C26.6432 429.603 26.5488 429.352 26.5488 429.053ZM26.5586 420.42C26.5586 420.114 26.653 419.857 26.8418 419.648C27.0371 419.434 27.3171 419.326 27.6816 419.326C28.0527 419.326 28.3327 419.434 28.5215 419.648C28.7168 419.857 28.8145 420.114 28.8145 420.42C28.8145 420.719 28.7168 420.97 28.5215 421.172C28.3327 421.374 28.0527 421.475 27.6816 421.475C27.3171 421.475 27.0371 421.374 26.8418 421.172C26.653 420.97 26.5586 420.719 26.5586 420.42ZM40.2207 423.936C40.2207 425.479 40.0384 426.709 39.6738 427.627C39.3158 428.538 38.8014 429.196 38.1309 429.6C37.4603 429.997 36.666 430.195 35.748 430.195C34.8431 430.195 34.0521 429.997 33.375 429.6C32.6979 429.196 32.1706 428.538 31.793 427.627C31.4219 426.709 31.2363 425.479 31.2363 423.936V421.758C31.2363 420.208 31.4186 418.984 31.7832 418.086C32.1543 417.188 32.6751 416.546 33.3457 416.162C34.0228 415.778 34.8171 415.586 35.7285 415.586C36.6465 415.586 37.4408 415.778 38.1113 416.162C38.7819 416.546 39.2995 417.188 39.6641 418.086C40.0352 418.984 40.2207 420.208 40.2207 421.758V423.936ZM38.3945 421.455C38.3945 420.387 38.2936 419.531 38.0918 418.887C37.89 418.242 37.5905 417.777 37.1934 417.49C36.7962 417.197 36.3079 417.051 35.7285 417.051C35.1556 417.051 34.6706 417.197 34.2734 417.49C33.8763 417.777 33.5736 418.242 33.3652 418.887C33.1634 419.531 33.0625 420.387 33.0625 421.455V424.219C33.0625 425.28 33.1667 426.143 33.375 426.807C33.5833 427.471 33.8861 427.959 34.2832 428.271C34.6868 428.577 35.1751 428.73 35.748 428.73C36.334 428.73 36.8223 428.577 37.2129 428.271C37.6035 427.959 37.8965 427.471 38.0918 426.807C38.2936 426.143 38.3945 425.28 38.3945 424.219V421.455ZM51.4707 423.936C51.4707 425.479 51.2884 426.709 50.9238 427.627C50.5658 428.538 50.0514 429.196 49.3809 429.6C48.7103 429.997 47.916 430.195 46.998 430.195C46.0931 430.195 45.3021 429.997 44.625 429.6C43.9479 429.196 43.4206 428.538 43.043 427.627C42.6719 426.709 42.4863 425.479 42.4863 423.936V421.758C42.4863 420.208 42.6686 418.984 43.0332 418.086C43.4043 417.188 43.9251 416.546 44.5957 416.162C45.2728 415.778 46.0671 415.586 46.9785 415.586C47.8965 415.586 48.6908 415.778 49.3613 416.162C50.0319 416.546 50.5495 417.188 50.9141 418.086C51.2852 418.984 51.4707 420.208 51.4707 421.758V423.936ZM49.6445 421.455C49.6445 420.387 49.5436 419.531 49.3418 418.887C49.14 418.242 48.8405 417.777 48.4434 417.49C48.0462 417.197 47.5579 417.051 46.9785 417.051C46.4056 417.051 45.9206 417.197 45.5234 417.49C45.1263 417.777 44.8236 418.242 44.6152 418.887C44.4134 419.531 44.3125 420.387 44.3125 421.455V424.219C44.3125 425.28 44.4167 426.143 44.625 426.807C44.8333 427.471 45.1361 427.959 45.5332 428.271C45.9368 428.577 46.4251 428.73 46.998 428.73C47.584 428.73 48.0723 428.577 48.4629 428.271C48.8535 427.959 49.1465 427.471 49.3418 426.807C49.5436 426.143 49.6445 425.28 49.6445 424.219V421.455ZM55.7285 424.424V422.9H59.5176C60.2533 422.9 60.8457 422.783 61.2949 422.549C61.7507 422.308 62.0827 421.979 62.291 421.562C62.5059 421.146 62.6133 420.671 62.6133 420.137C62.6133 419.648 62.5059 419.189 62.291 418.76C62.0827 418.33 61.7507 417.982 61.2949 417.715C60.8457 417.448 60.2533 417.314 59.5176 417.314H56.1582V430H54.2637V415.781H59.5176C60.5918 415.781 61.5 415.967 62.2422 416.338C62.9844 416.709 63.5475 417.22 63.9316 417.871C64.3158 418.522 64.5078 419.271 64.5078 420.117C64.5078 421.029 64.3158 421.807 63.9316 422.451C63.5475 423.096 62.9844 423.587 62.2422 423.926C61.5 424.258 60.5918 424.424 59.5176 424.424H55.7285ZM69.3418 415.781L73.9805 427.402L78.6191 415.781H80.4648L74.6934 430H73.2578L67.4961 415.781H69.3418ZM68.5215 415.781L68.7852 424.443V430H66.9004V415.781H68.5215ZM81.0605 415.781V430H79.1758V424.443L79.4395 415.781H81.0605Z" fill="white" fill-opacity="0.3"/>
<path d="M98 423.872H1626" stroke="white" stroke-opacity="0.3" stroke-width="2"/>
<path d="M16.0117 466.347L16.7344 459.267H24.0293V460.917H18.2773L17.8574 464.814C18.1113 464.664 18.4368 464.524 18.834 464.394C19.2376 464.264 19.6999 464.199 20.2207 464.199C21.0931 464.199 21.8451 464.394 22.4766 464.785C23.1081 465.175 23.5931 465.725 23.9316 466.435C24.2767 467.145 24.4492 467.985 24.4492 468.955C24.4492 469.86 24.2832 470.67 23.9512 471.386C23.6257 472.096 23.1309 472.656 22.4668 473.066C21.8027 473.476 20.9629 473.681 19.9473 473.681C19.3743 473.681 18.8307 473.603 18.3164 473.447C17.8086 473.284 17.3529 473.04 16.9492 472.714C16.5521 472.382 16.2266 471.972 15.9727 471.484C15.7188 470.989 15.5625 470.41 15.5039 469.746H17.2324C17.3431 470.553 17.6328 471.168 18.1016 471.591C18.5703 472.008 19.1855 472.216 19.9473 472.216C20.5137 472.216 20.9954 472.086 21.3926 471.826C21.7962 471.559 22.1022 471.184 22.3105 470.703C22.5189 470.214 22.623 469.638 22.623 468.974C22.623 468.375 22.5124 467.838 22.291 467.363C22.0762 466.888 21.7572 466.51 21.334 466.23C20.9173 465.95 20.403 465.81 19.791 465.81C19.1855 465.81 18.7298 465.891 18.4238 466.054C18.1178 466.21 17.8021 466.432 17.4766 466.718L16.0117 466.347ZM26.5488 472.539C26.5488 472.233 26.6432 471.975 26.832 471.767C27.0273 471.552 27.3073 471.445 27.6719 471.445C28.043 471.445 28.3229 471.552 28.5117 471.767C28.707 471.975 28.8047 472.233 28.8047 472.539C28.8047 472.838 28.707 473.089 28.5117 473.291C28.3229 473.492 28.043 473.593 27.6719 473.593C27.3073 473.593 27.0273 473.492 26.832 473.291C26.6432 473.089 26.5488 472.838 26.5488 472.539ZM26.5586 463.906C26.5586 463.6 26.653 463.343 26.8418 463.134C27.0371 462.919 27.3171 462.812 27.6816 462.812C28.0527 462.812 28.3327 462.919 28.5215 463.134C28.7168 463.343 28.8145 463.6 28.8145 463.906C28.8145 464.205 28.7168 464.456 28.5215 464.658C28.3327 464.86 28.0527 464.96 27.6816 464.96C27.3171 464.96 27.0371 464.86 26.8418 464.658C26.653 464.456 26.5586 464.205 26.5586 463.906ZM40.2207 467.421C40.2207 468.964 40.0384 470.195 39.6738 471.113C39.3158 472.024 38.8014 472.682 38.1309 473.085C37.4603 473.483 36.666 473.681 35.748 473.681C34.8431 473.681 34.0521 473.483 33.375 473.085C32.6979 472.682 32.1706 472.024 31.793 471.113C31.4219 470.195 31.2363 468.964 31.2363 467.421V465.244C31.2363 463.694 31.4186 462.47 31.7832 461.572C32.1543 460.673 32.6751 460.032 33.3457 459.648C34.0228 459.264 34.8171 459.072 35.7285 459.072C36.6465 459.072 37.4408 459.264 38.1113 459.648C38.7819 460.032 39.2995 460.673 39.6641 461.572C40.0352 462.47 40.2207 463.694 40.2207 465.244V467.421ZM38.3945 464.941C38.3945 463.873 38.2936 463.017 38.0918 462.373C37.89 461.728 37.5905 461.263 37.1934 460.976C36.7962 460.683 36.3079 460.537 35.7285 460.537C35.1556 460.537 34.6706 460.683 34.2734 460.976C33.8763 461.263 33.5736 461.728 33.3652 462.373C33.1634 463.017 33.0625 463.873 33.0625 464.941V467.705C33.0625 468.766 33.1667 469.628 33.375 470.292C33.5833 470.957 33.8861 471.445 34.2832 471.757C34.6868 472.063 35.1751 472.216 35.748 472.216C36.334 472.216 36.8223 472.063 37.2129 471.757C37.6035 471.445 37.8965 470.957 38.0918 470.292C38.2936 469.628 38.3945 468.766 38.3945 467.705V464.941ZM51.4707 467.421C51.4707 468.964 51.2884 470.195 50.9238 471.113C50.5658 472.024 50.0514 472.682 49.3809 473.085C48.7103 473.483 47.916 473.681 46.998 473.681C46.0931 473.681 45.3021 473.483 44.625 473.085C43.9479 472.682 43.4206 472.024 43.043 471.113C42.6719 470.195 42.4863 468.964 42.4863 467.421V465.244C42.4863 463.694 42.6686 462.47 43.0332 461.572C43.4043 460.673 43.9251 460.032 44.5957 459.648C45.2728 459.264 46.0671 459.072 46.9785 459.072C47.8965 459.072 48.6908 459.264 49.3613 459.648C50.0319 460.032 50.5495 460.673 50.9141 461.572C51.2852 462.47 51.4707 463.694 51.4707 465.244V467.421ZM49.6445 464.941C49.6445 463.873 49.5436 463.017 49.3418 462.373C49.14 461.728 48.8405 461.263 48.4434 460.976C48.0462 460.683 47.5579 460.537 46.9785 460.537C46.4056 460.537 45.9206 460.683 45.5234 460.976C45.1263 461.263 44.8236 461.728 44.6152 462.373C44.4134 463.017 44.3125 463.873 44.3125 464.941V467.705C44.3125 468.766 44.4167 469.628 44.625 470.292C44.8333 470.957 45.1361 471.445 45.5332 471.757C45.9368 472.063 46.4251 472.216 46.998 472.216C47.584 472.216 48.0723 472.063 48.4629 471.757C48.8535 471.445 49.1465 470.957 49.3418 470.292C49.5436 469.628 49.6445 468.766 49.6445 467.705V464.941ZM55.7285 467.91V466.386H59.5176C60.2533 466.386 60.8457 466.269 61.2949 466.035C61.7507 465.794 62.0827 465.465 62.291 465.048C62.5059 464.632 62.6133 464.156 62.6133 463.623C62.6133 463.134 62.5059 462.675 62.291 462.246C62.0827 461.816 61.7507 461.468 61.2949 461.201C60.8457 460.934 60.2533 460.8 59.5176 460.8H56.1582V473.486H54.2637V459.267H59.5176C60.5918 459.267 61.5 459.453 62.2422 459.824C62.9844 460.195 63.5475 460.706 63.9316 461.357C64.3158 462.008 64.5078 462.757 64.5078 463.603C64.5078 464.514 64.3158 465.292 63.9316 465.937C63.5475 466.582 62.9844 467.073 62.2422 467.412C61.5 467.744 60.5918 467.91 59.5176 467.91H55.7285ZM69.3418 459.267L73.9805 470.888L78.6191 459.267H80.4648L74.6934 473.486H73.2578L67.4961 459.267H69.3418ZM68.5215 459.267L68.7852 467.929V473.486H66.9004V459.267H68.5215ZM81.0605 459.267V473.486H79.1758V467.929L79.4395 459.267H81.0605Z" fill="white" fill-opacity="0.3"/>
<path d="M98 467.357H1626" stroke="white" stroke-opacity="0.3" stroke-width="2"/>
<path d="M22.2715 502.733V504.257H22.1152C21.1582 504.257 20.3574 504.413 19.7129 504.726C19.0749 505.032 18.5638 505.445 18.1797 505.966C17.8021 506.48 17.5319 507.06 17.3691 507.704C17.2064 508.349 17.125 509.006 17.125 509.677V511.767C17.125 512.613 17.2552 513.329 17.5156 513.915C17.776 514.494 18.1146 514.934 18.5312 515.233C18.9544 515.533 19.4004 515.683 19.8691 515.683C20.429 515.683 20.901 515.543 21.2852 515.263C21.6758 514.983 21.972 514.599 22.1738 514.11C22.3822 513.616 22.4863 513.052 22.4863 512.421C22.4863 511.854 22.3919 511.321 22.2031 510.819C22.0208 510.318 21.7376 509.911 21.3535 509.599C20.9759 509.286 20.4941 509.13 19.9082 509.13C19.4069 509.13 18.9382 509.254 18.502 509.501C18.0723 509.742 17.7207 510.061 17.4473 510.458C17.1738 510.855 17.0176 511.285 16.9785 511.747L16.0215 511.737C16.1126 511.015 16.2819 510.396 16.5293 509.882C16.7832 509.361 17.0957 508.938 17.4668 508.612C17.8444 508.28 18.2643 508.036 18.7266 507.88C19.1953 507.724 19.6901 507.646 20.2109 507.646C21.1549 507.646 21.9264 507.873 22.5254 508.329C23.1243 508.785 23.5671 509.371 23.8535 510.087C24.14 510.803 24.2832 511.552 24.2832 512.333C24.2832 513.231 24.1139 514.045 23.7754 514.774C23.4434 515.504 22.9486 516.086 22.291 516.522C21.64 516.952 20.8327 517.167 19.8691 517.167C19.1009 517.167 18.4303 517.011 17.8574 516.698C17.2845 516.379 16.8092 515.959 16.4316 515.438C16.054 514.911 15.7708 514.325 15.582 513.681C15.3932 513.036 15.2988 512.382 15.2988 511.718V510.858C15.2988 509.849 15.3965 508.863 15.5918 507.899C15.7936 506.936 16.1419 506.067 16.6367 505.292C17.138 504.511 17.8314 503.889 18.7168 503.427C19.6087 502.965 20.7415 502.733 22.1152 502.733H22.2715ZM26.5488 516.024C26.5488 515.718 26.6432 515.461 26.832 515.253C27.0273 515.038 27.3073 514.931 27.6719 514.931C28.043 514.931 28.3229 515.038 28.5117 515.253C28.707 515.461 28.8047 515.718 28.8047 516.024C28.8047 516.324 28.707 516.575 28.5117 516.776C28.3229 516.978 28.043 517.079 27.6719 517.079C27.3073 517.079 27.0273 516.978 26.832 516.776C26.6432 516.575 26.5488 516.324 26.5488 516.024ZM26.5586 507.392C26.5586 507.086 26.653 506.828 26.8418 506.62C27.0371 506.405 27.3171 506.298 27.6816 506.298C28.0527 506.298 28.3327 506.405 28.5215 506.62C28.7168 506.828 28.8145 507.086 28.8145 507.392C28.8145 507.691 28.7168 507.942 28.5215 508.144C28.3327 508.345 28.0527 508.446 27.6816 508.446C27.3171 508.446 27.0371 508.345 26.8418 508.144C26.653 507.942 26.5586 507.691 26.5586 507.392ZM40.2207 510.907C40.2207 512.45 40.0384 513.681 39.6738 514.599C39.3158 515.51 38.8014 516.168 38.1309 516.571C37.4603 516.968 36.666 517.167 35.748 517.167C34.8431 517.167 34.0521 516.968 33.375 516.571C32.6979 516.168 32.1706 515.51 31.793 514.599C31.4219 513.681 31.2363 512.45 31.2363 510.907V508.729C31.2363 507.18 31.4186 505.956 31.7832 505.058C32.1543 504.159 32.6751 503.518 33.3457 503.134C34.0228 502.75 34.8171 502.558 35.7285 502.558C36.6465 502.558 37.4408 502.75 38.1113 503.134C38.7819 503.518 39.2995 504.159 39.6641 505.058C40.0352 505.956 40.2207 507.18 40.2207 508.729V510.907ZM38.3945 508.427C38.3945 507.359 38.2936 506.503 38.0918 505.858C37.89 505.214 37.5905 504.748 37.1934 504.462C36.7962 504.169 36.3079 504.022 35.7285 504.022C35.1556 504.022 34.6706 504.169 34.2734 504.462C33.8763 504.748 33.5736 505.214 33.3652 505.858C33.1634 506.503 33.0625 507.359 33.0625 508.427V511.19C33.0625 512.252 33.1667 513.114 33.375 513.778C33.5833 514.442 33.8861 514.931 34.2832 515.243C34.6868 515.549 35.1751 515.702 35.748 515.702C36.334 515.702 36.8223 515.549 37.2129 515.243C37.6035 514.931 37.8965 514.442 38.0918 513.778C38.2936 513.114 38.3945 512.252 38.3945 511.19V508.427ZM51.4707 510.907C51.4707 512.45 51.2884 513.681 50.9238 514.599C50.5658 515.51 50.0514 516.168 49.3809 516.571C48.7103 516.968 47.916 517.167 46.998 517.167C46.0931 517.167 45.3021 516.968 44.625 516.571C43.9479 516.168 43.4206 515.51 43.043 514.599C42.6719 513.681 42.4863 512.45 42.4863 510.907V508.729C42.4863 507.18 42.6686 505.956 43.0332 505.058C43.4043 504.159 43.9251 503.518 44.5957 503.134C45.2728 502.75 46.0671 502.558 46.9785 502.558C47.8965 502.558 48.6908 502.75 49.3613 503.134C50.0319 503.518 50.5495 504.159 50.9141 505.058C51.2852 505.956 51.4707 507.18 51.4707 508.729V510.907ZM49.6445 508.427C49.6445 507.359 49.5436 506.503 49.3418 505.858C49.14 505.214 48.8405 504.748 48.4434 504.462C48.0462 504.169 47.5579 504.022 46.9785 504.022C46.4056 504.022 45.9206 504.169 45.5234 504.462C45.1263 504.748 44.8236 505.214 44.6152 505.858C44.4134 506.503 44.3125 507.359 44.3125 508.427V511.19C44.3125 512.252 44.4167 513.114 44.625 513.778C44.8333 514.442 45.1361 514.931 45.5332 515.243C45.9368 515.549 46.4251 515.702 46.998 515.702C47.584 515.702 48.0723 515.549 48.4629 515.243C48.8535 514.931 49.1465 514.442 49.3418 513.778C49.5436 513.114 49.6445 512.252 49.6445 511.19V508.427ZM55.7285 511.396V509.872H59.5176C60.2533 509.872 60.8457 509.755 61.2949 509.521C61.7507 509.28 62.0827 508.951 62.291 508.534C62.5059 508.118 62.6133 507.642 62.6133 507.108C62.6133 506.62 62.5059 506.161 62.291 505.731C62.0827 505.302 61.7507 504.953 61.2949 504.687C60.8457 504.42 60.2533 504.286 59.5176 504.286H56.1582V516.972H54.2637V502.753H59.5176C60.5918 502.753 61.5 502.938 62.2422 503.31C62.9844 503.681 63.5475 504.192 63.9316 504.843C64.3158 505.494 64.5078 506.243 64.5078 507.089C64.5078 508 64.3158 508.778 63.9316 509.423C63.5475 510.067 62.9844 510.559 62.2422 510.897C61.5 511.229 60.5918 511.396 59.5176 511.396H55.7285ZM69.3418 502.753L73.9805 514.374L78.6191 502.753H80.4648L74.6934 516.972H73.2578L67.4961 502.753H69.3418ZM68.5215 502.753L68.7852 511.415V516.972H66.9004V502.753H68.5215ZM81.0605 502.753V516.972H79.1758V511.415L79.4395 502.753H81.0605Z" fill="white" fill-opacity="0.3"/>
<path d="M98 510.843H1626" stroke="white" stroke-opacity="0.3" stroke-width="2"/>
<path d="M24.3809 546.787L18.4922 560H16.5781L22.4473 547.246H14.7617V545.781H24.3809V546.787ZM26.5488 559.053C26.5488 558.747 26.6432 558.49 26.832 558.281C27.0273 558.066 27.3073 557.959 27.6719 557.959C28.043 557.959 28.3229 558.066 28.5117 558.281C28.707 558.49 28.8047 558.747 28.8047 559.053C28.8047 559.352 28.707 559.603 28.5117 559.805C28.3229 560.007 28.043 560.107 27.6719 560.107C27.3073 560.107 27.0273 560.007 26.832 559.805C26.6432 559.603 26.5488 559.352 26.5488 559.053ZM26.5586 550.42C26.5586 550.114 26.653 549.857 26.8418 549.648C27.0371 549.434 27.3171 549.326 27.6816 549.326C28.0527 549.326 28.3327 549.434 28.5215 549.648C28.7168 549.857 28.8145 550.114 28.8145 550.42C28.8145 550.719 28.7168 550.97 28.5215 551.172C28.3327 551.374 28.0527 551.475 27.6816 551.475C27.3171 551.475 27.0371 551.374 26.8418 551.172C26.653 550.97 26.5586 550.719 26.5586 550.42ZM40.2207 553.936C40.2207 555.479 40.0384 556.709 39.6738 557.627C39.3158 558.538 38.8014 559.196 38.1309 559.6C37.4603 559.997 36.666 560.195 35.748 560.195C34.8431 560.195 34.0521 559.997 33.375 559.6C32.6979 559.196 32.1706 558.538 31.793 557.627C31.4219 556.709 31.2363 555.479 31.2363 553.936V551.758C31.2363 550.208 31.4186 548.984 31.7832 548.086C32.1543 547.188 32.6751 546.546 33.3457 546.162C34.0228 545.778 34.8171 545.586 35.7285 545.586C36.6465 545.586 37.4408 545.778 38.1113 546.162C38.7819 546.546 39.2995 547.188 39.6641 548.086C40.0352 548.984 40.2207 550.208 40.2207 551.758V553.936ZM38.3945 551.455C38.3945 550.387 38.2936 549.531 38.0918 548.887C37.89 548.242 37.5905 547.777 37.1934 547.49C36.7962 547.197 36.3079 547.051 35.7285 547.051C35.1556 547.051 34.6706 547.197 34.2734 547.49C33.8763 547.777 33.5736 548.242 33.3652 548.887C33.1634 549.531 33.0625 550.387 33.0625 551.455V554.219C33.0625 555.28 33.1667 556.143 33.375 556.807C33.5833 557.471 33.8861 557.959 34.2832 558.271C34.6868 558.577 35.1751 558.73 35.748 558.73C36.334 558.73 36.8223 558.577 37.2129 558.271C37.6035 557.959 37.8965 557.471 38.0918 556.807C38.2936 556.143 38.3945 555.28 38.3945 554.219V551.455ZM51.4707 553.936C51.4707 555.479 51.2884 556.709 50.9238 557.627C50.5658 558.538 50.0514 559.196 49.3809 559.6C48.7103 559.997 47.916 560.195 46.998 560.195C46.0931 560.195 45.3021 559.997 44.625 559.6C43.9479 559.196 43.4206 558.538 43.043 557.627C42.6719 556.709 42.4863 555.479 42.4863 553.936V551.758C42.4863 550.208 42.6686 548.984 43.0332 548.086C43.4043 547.188 43.9251 546.546 44.5957 546.162C45.2728 545.778 46.0671 545.586 46.9785 545.586C47.8965 545.586 48.6908 545.778 49.3613 546.162C50.0319 546.546 50.5495 547.188 50.9141 548.086C51.2852 548.984 51.4707 550.208 51.4707 551.758V553.936ZM49.6445 551.455C49.6445 550.387 49.5436 549.531 49.3418 548.887C49.14 548.242 48.8405 547.777 48.4434 547.49C48.0462 547.197 47.5579 547.051 46.9785 547.051C46.4056 547.051 45.9206 547.197 45.5234 547.49C45.1263 547.777 44.8236 548.242 44.6152 548.887C44.4134 549.531 44.3125 550.387 44.3125 551.455V554.219C44.3125 555.28 44.4167 556.143 44.625 556.807C44.8333 557.471 45.1361 557.959 45.5332 558.271C45.9368 558.577 46.4251 558.73 46.998 558.73C47.584 558.73 48.0723 558.577 48.4629 558.271C48.8535 557.959 49.1465 557.471 49.3418 556.807C49.5436 556.143 49.6445 555.28 49.6445 554.219V551.455ZM55.7285 554.424V552.9H59.5176C60.2533 552.9 60.8457 552.783 61.2949 552.549C61.7507 552.308 62.0827 551.979 62.291 551.562C62.5059 551.146 62.6133 550.671 62.6133 550.137C62.6133 549.648 62.5059 549.189 62.291 548.76C62.0827 548.33 61.7507 547.982 61.2949 547.715C60.8457 547.448 60.2533 547.314 59.5176 547.314H56.1582V560H54.2637V545.781H59.5176C60.5918 545.781 61.5 545.967 62.2422 546.338C62.9844 546.709 63.5475 547.22 63.9316 547.871C64.3158 548.522 64.5078 549.271 64.5078 550.117C64.5078 551.029 64.3158 551.807 63.9316 552.451C63.5475 553.096 62.9844 553.587 62.2422 553.926C61.5 554.258 60.5918 554.424 59.5176 554.424H55.7285ZM69.3418 545.781L73.9805 557.402L78.6191 545.781H80.4648L74.6934 560H73.2578L67.4961 545.781H69.3418ZM68.5215 545.781L68.7852 554.443V560H66.9004V545.781H68.5215ZM81.0605 545.781V560H79.1758V554.443L79.4395 545.781H81.0605Z" fill="white" fill-opacity="0.3"/>
<path d="M98 553.872H1626" stroke="white" stroke-opacity="0.3" stroke-width="2"/>
<path d="M24.1465 599.638C24.1465 600.504 23.9447 601.24 23.541 601.845C23.1439 602.444 22.6035 602.9 21.9199 603.212C21.2428 603.525 20.4779 603.681 19.625 603.681C18.7721 603.681 18.0039 603.525 17.3203 603.212C16.6367 602.9 16.0964 602.444 15.6992 601.845C15.3021 601.24 15.1035 600.504 15.1035 599.638C15.1035 598.889 15.2956 598.222 15.6797 597.636C16.0638 597.05 16.5944 596.591 17.2715 596.259C17.9486 595.921 18.7266 595.751 19.6055 595.751C20.4779 595.751 21.2559 595.921 21.9395 596.259C22.623 596.591 23.1602 597.05 23.5508 597.636C23.9479 598.222 24.1465 598.889 24.1465 599.638ZM22.3203 599.599C22.3203 599.072 22.2064 598.606 21.9785 598.203C21.7507 597.792 21.4316 597.473 21.0215 597.246C20.6178 597.018 20.1458 596.904 19.6055 596.904C19.0586 596.904 18.5833 597.018 18.1797 597.246C17.7826 597.473 17.4733 597.792 17.252 598.203C17.0371 598.606 16.9297 599.072 16.9297 599.599C16.9297 600.146 17.0371 600.615 17.252 601.005C17.4733 601.396 17.7858 601.695 18.1895 601.904C18.5931 602.112 19.0716 602.216 19.625 602.216C20.1849 602.216 20.6634 602.112 21.0605 601.904C21.4642 601.695 21.7734 601.396 21.9883 601.005C22.2096 600.615 22.3203 600.146 22.3203 599.599ZM23.8145 592.968C23.8145 593.658 23.6322 594.28 23.2676 594.833C22.903 595.387 22.4049 595.823 21.7734 596.142C21.1419 596.461 20.4258 596.621 19.625 596.621C18.8112 596.621 18.0853 596.461 17.4473 596.142C16.8158 595.823 16.321 595.387 15.9629 594.833C15.6048 594.28 15.4258 593.658 15.4258 592.968C15.4258 592.141 15.6048 591.438 15.9629 590.859C16.3275 590.279 16.8255 589.837 17.457 589.531C18.0951 589.225 18.8177 589.072 19.625 589.072C20.4323 589.072 21.1517 589.225 21.7832 589.531C22.4147 589.837 22.9095 590.279 23.2676 590.859C23.6322 591.438 23.8145 592.141 23.8145 592.968ZM21.9883 592.998C21.9883 592.522 21.8874 592.102 21.6855 591.738C21.4902 591.367 21.2135 591.074 20.8555 590.859C20.5039 590.644 20.0938 590.537 19.625 590.537C19.1497 590.537 18.7331 590.638 18.375 590.839C18.0234 591.041 17.7467 591.328 17.5449 591.699C17.3496 592.063 17.252 592.496 17.252 592.998C17.252 593.486 17.3496 593.912 17.5449 594.277C17.7467 594.641 18.0234 594.925 18.375 595.126C18.7331 595.328 19.1497 595.429 19.625 595.429C20.1003 595.429 20.5137 595.328 20.8652 595.126C21.2168 594.925 21.4902 594.641 21.6855 594.277C21.8874 593.912 21.9883 593.486 21.9883 592.998ZM26.5488 602.539C26.5488 602.233 26.6432 601.975 26.832 601.767C27.0273 601.552 27.3073 601.445 27.6719 601.445C28.043 601.445 28.3229 601.552 28.5117 601.767C28.707 601.975 28.8047 602.233 28.8047 602.539C28.8047 602.838 28.707 603.089 28.5117 603.291C28.3229 603.492 28.043 603.593 27.6719 603.593C27.3073 603.593 27.0273 603.492 26.832 603.291C26.6432 603.089 26.5488 602.838 26.5488 602.539ZM26.5586 593.906C26.5586 593.6 26.653 593.343 26.8418 593.134C27.0371 592.919 27.3171 592.812 27.6816 592.812C28.0527 592.812 28.3327 592.919 28.5215 593.134C28.7168 593.343 28.8145 593.6 28.8145 593.906C28.8145 594.205 28.7168 594.456 28.5215 594.658C28.3327 594.86 28.0527 594.96 27.6816 594.96C27.3171 594.96 27.0371 594.86 26.8418 594.658C26.653 594.456 26.5586 594.205 26.5586 593.906ZM40.2207 597.421C40.2207 598.964 40.0384 600.195 39.6738 601.113C39.3158 602.024 38.8014 602.682 38.1309 603.085C37.4603 603.483 36.666 603.681 35.748 603.681C34.8431 603.681 34.0521 603.483 33.375 603.085C32.6979 602.682 32.1706 602.024 31.793 601.113C31.4219 600.195 31.2363 598.964 31.2363 597.421V595.244C31.2363 593.694 31.4186 592.47 31.7832 591.572C32.1543 590.673 32.6751 590.032 33.3457 589.648C34.0228 589.264 34.8171 589.072 35.7285 589.072C36.6465 589.072 37.4408 589.264 38.1113 589.648C38.7819 590.032 39.2995 590.673 39.6641 591.572C40.0352 592.47 40.2207 593.694 40.2207 595.244V597.421ZM38.3945 594.941C38.3945 593.873 38.2936 593.017 38.0918 592.373C37.89 591.728 37.5905 591.263 37.1934 590.976C36.7962 590.683 36.3079 590.537 35.7285 590.537C35.1556 590.537 34.6706 590.683 34.2734 590.976C33.8763 591.263 33.5736 591.728 33.3652 592.373C33.1634 593.017 33.0625 593.873 33.0625 594.941V597.705C33.0625 598.766 33.1667 599.628 33.375 600.292C33.5833 600.957 33.8861 601.445 34.2832 601.757C34.6868 602.063 35.1751 602.216 35.748 602.216C36.334 602.216 36.8223 602.063 37.2129 601.757C37.6035 601.445 37.8965 600.957 38.0918 600.292C38.2936 599.628 38.3945 598.766 38.3945 597.705V594.941ZM51.4707 597.421C51.4707 598.964 51.2884 600.195 50.9238 601.113C50.5658 602.024 50.0514 602.682 49.3809 603.085C48.7103 603.483 47.916 603.681 46.998 603.681C46.0931 603.681 45.3021 603.483 44.625 603.085C43.9479 602.682 43.4206 602.024 43.043 601.113C42.6719 600.195 42.4863 598.964 42.4863 597.421V595.244C42.4863 593.694 42.6686 592.47 43.0332 591.572C43.4043 590.673 43.9251 590.032 44.5957 589.648C45.2728 589.264 46.0671 589.072 46.9785 589.072C47.8965 589.072 48.6908 589.264 49.3613 589.648C50.0319 590.032 50.5495 590.673 50.9141 591.572C51.2852 592.47 51.4707 593.694 51.4707 595.244V597.421ZM49.6445 594.941C49.6445 593.873 49.5436 593.017 49.3418 592.373C49.14 591.728 48.8405 591.263 48.4434 590.976C48.0462 590.683 47.5579 590.537 46.9785 590.537C46.4056 590.537 45.9206 590.683 45.5234 590.976C45.1263 591.263 44.8236 591.728 44.6152 592.373C44.4134 593.017 44.3125 593.873 44.3125 594.941V597.705C44.3125 598.766 44.4167 599.628 44.625 600.292C44.8333 600.957 45.1361 601.445 45.5332 601.757C45.9368 602.063 46.4251 602.216 46.998 602.216C47.584 602.216 48.0723 602.063 48.4629 601.757C48.8535 601.445 49.1465 600.957 49.3418 600.292C49.5436 599.628 49.6445 598.766 49.6445 597.705V594.941ZM55.7285 597.91V596.386H59.5176C60.2533 596.386 60.8457 596.269 61.2949 596.035C61.7507 595.794 62.0827 595.465 62.291 595.048C62.5059 594.632 62.6133 594.156 62.6133 593.623C62.6133 593.134 62.5059 592.675 62.291 592.246C62.0827 591.816 61.7507 591.468 61.2949 591.201C60.8457 590.934 60.2533 590.8 59.5176 590.8H56.1582V603.486H54.2637V589.267H59.5176C60.5918 589.267 61.5 589.453 62.2422 589.824C62.9844 590.195 63.5475 590.706 63.9316 591.357C64.3158 592.008 64.5078 592.757 64.5078 593.603C64.5078 594.514 64.3158 595.292 63.9316 595.937C63.5475 596.582 62.9844 597.073 62.2422 597.412C61.5 597.744 60.5918 597.91 59.5176 597.91H55.7285ZM69.3418 589.267L73.9805 600.888L78.6191 589.267H80.4648L74.6934 603.486H73.2578L67.4961 589.267H69.3418ZM68.5215 589.267L68.7852 597.929V603.486H66.9004V589.267H68.5215ZM81.0605 589.267V603.486H79.1758V597.929L79.4395 589.267H81.0605Z" fill="white" fill-opacity="0.3"/>
<path d="M98 597.357H1626" stroke="white" stroke-opacity="0.3" stroke-width="2"/>
<path d="M17.1641 645.468C18.2057 645.468 19.0521 645.321 19.7031 645.028C20.3542 644.735 20.8522 644.341 21.1973 643.847C21.5488 643.345 21.7897 642.785 21.9199 642.167C22.0501 641.542 22.1152 640.901 22.1152 640.243V638.065C22.1152 637.2 21.9883 636.467 21.7344 635.868C21.4805 635.269 21.1452 634.817 20.7285 634.511C20.3184 634.198 19.8724 634.042 19.3906 634.042C18.8372 634.042 18.362 634.188 17.9648 634.481C17.5742 634.774 17.2747 635.172 17.0664 635.673C16.8646 636.174 16.7637 636.741 16.7637 637.372C16.7637 637.932 16.8548 638.469 17.0371 638.983C17.2259 639.498 17.5091 639.918 17.8867 640.243C18.2708 640.569 18.7526 640.731 19.332 640.731C19.7292 640.731 20.1035 640.65 20.4551 640.487C20.8132 640.325 21.1289 640.106 21.4023 639.833C21.6758 639.553 21.8971 639.237 22.0664 638.886C22.2357 638.528 22.3333 638.157 22.3594 637.772H23.2285C23.2285 638.313 23.1211 638.847 22.9062 639.374C22.6979 639.901 22.4049 640.38 22.0273 640.81C21.6497 641.239 21.207 641.581 20.6992 641.835C20.1914 642.089 19.638 642.216 19.0391 642.216C18.1016 642.216 17.3333 641.981 16.7344 641.513C16.1354 641.044 15.6927 640.448 15.4062 639.726C15.1198 638.996 14.9766 638.244 14.9766 637.47C14.9766 636.565 15.1426 635.741 15.4746 634.999C15.8066 634.257 16.3014 633.664 16.959 633.222C17.6165 632.779 18.4271 632.558 19.3906 632.558C20.2044 632.558 20.8978 632.72 21.4707 633.046C22.0501 633.365 22.5189 633.798 22.877 634.345C23.2415 634.892 23.5085 635.507 23.6777 636.19C23.847 636.874 23.9316 637.577 23.9316 638.3V638.974C23.9316 639.716 23.8828 640.468 23.7852 641.229C23.694 641.985 23.515 642.707 23.248 643.397C22.9876 644.081 22.6068 644.696 22.1055 645.243C21.6042 645.784 20.9499 646.21 20.1426 646.522C19.3418 646.835 18.349 646.991 17.1641 646.991H16.9785V645.468H17.1641ZM26.5488 646.024C26.5488 645.718 26.6432 645.461 26.832 645.253C27.0273 645.038 27.3073 644.931 27.6719 644.931C28.043 644.931 28.3229 645.038 28.5117 645.253C28.707 645.461 28.8047 645.718 28.8047 646.024C28.8047 646.324 28.707 646.575 28.5117 646.776C28.3229 646.978 28.043 647.079 27.6719 647.079C27.3073 647.079 27.0273 646.978 26.832 646.776C26.6432 646.575 26.5488 646.324 26.5488 646.024ZM26.5586 637.392C26.5586 637.086 26.653 636.828 26.8418 636.62C27.0371 636.405 27.3171 636.298 27.6816 636.298C28.0527 636.298 28.3327 636.405 28.5215 636.62C28.7168 636.828 28.8145 637.086 28.8145 637.392C28.8145 637.691 28.7168 637.942 28.5215 638.144C28.3327 638.345 28.0527 638.446 27.6816 638.446C27.3171 638.446 27.0371 638.345 26.8418 638.144C26.653 637.942 26.5586 637.691 26.5586 637.392ZM40.2207 640.907C40.2207 642.45 40.0384 643.681 39.6738 644.599C39.3158 645.51 38.8014 646.168 38.1309 646.571C37.4603 646.968 36.666 647.167 35.748 647.167C34.8431 647.167 34.0521 646.968 33.375 646.571C32.6979 646.168 32.1706 645.51 31.793 644.599C31.4219 643.681 31.2363 642.45 31.2363 640.907V638.729C31.2363 637.18 31.4186 635.956 31.7832 635.058C32.1543 634.159 32.6751 633.518 33.3457 633.134C34.0228 632.75 34.8171 632.558 35.7285 632.558C36.6465 632.558 37.4408 632.75 38.1113 633.134C38.7819 633.518 39.2995 634.159 39.6641 635.058C40.0352 635.956 40.2207 637.18 40.2207 638.729V640.907ZM38.3945 638.427C38.3945 637.359 38.2936 636.503 38.0918 635.858C37.89 635.214 37.5905 634.748 37.1934 634.462C36.7962 634.169 36.3079 634.022 35.7285 634.022C35.1556 634.022 34.6706 634.169 34.2734 634.462C33.8763 634.748 33.5736 635.214 33.3652 635.858C33.1634 636.503 33.0625 637.359 33.0625 638.427V641.19C33.0625 642.252 33.1667 643.114 33.375 643.778C33.5833 644.442 33.8861 644.931 34.2832 645.243C34.6868 645.549 35.1751 645.702 35.748 645.702C36.334 645.702 36.8223 645.549 37.2129 645.243C37.6035 644.931 37.8965 644.442 38.0918 643.778C38.2936 643.114 38.3945 642.252 38.3945 641.19V638.427ZM51.4707 640.907C51.4707 642.45 51.2884 643.681 50.9238 644.599C50.5658 645.51 50.0514 646.168 49.3809 646.571C48.7103 646.968 47.916 647.167 46.998 647.167C46.0931 647.167 45.3021 646.968 44.625 646.571C43.9479 646.168 43.4206 645.51 43.043 644.599C42.6719 643.681 42.4863 642.45 42.4863 640.907V638.729C42.4863 637.18 42.6686 635.956 43.0332 635.058C43.4043 634.159 43.9251 633.518 44.5957 633.134C45.2728 632.75 46.0671 632.558 46.9785 632.558C47.8965 632.558 48.6908 632.75 49.3613 633.134C50.0319 633.518 50.5495 634.159 50.9141 635.058C51.2852 635.956 51.4707 637.18 51.4707 638.729V640.907ZM49.6445 638.427C49.6445 637.359 49.5436 636.503 49.3418 635.858C49.14 635.214 48.8405 634.748 48.4434 634.462C48.0462 634.169 47.5579 634.022 46.9785 634.022C46.4056 634.022 45.9206 634.169 45.5234 634.462C45.1263 634.748 44.8236 635.214 44.6152 635.858C44.4134 636.503 44.3125 637.359 44.3125 638.427V641.19C44.3125 642.252 44.4167 643.114 44.625 643.778C44.8333 644.442 45.1361 644.931 45.5332 645.243C45.9368 645.549 46.4251 645.702 46.998 645.702C47.584 645.702 48.0723 645.549 48.4629 645.243C48.8535 644.931 49.1465 644.442 49.3418 643.778C49.5436 643.114 49.6445 642.252 49.6445 641.19V638.427ZM55.7285 641.396V639.872H59.5176C60.2533 639.872 60.8457 639.755 61.2949 639.521C61.7507 639.28 62.0827 638.951 62.291 638.534C62.5059 638.118 62.6133 637.642 62.6133 637.108C62.6133 636.62 62.5059 636.161 62.291 635.731C62.0827 635.302 61.7507 634.953 61.2949 634.687C60.8457 634.42 60.2533 634.286 59.5176 634.286H56.1582V646.972H54.2637V632.753H59.5176C60.5918 632.753 61.5 632.938 62.2422 633.31C62.9844 633.681 63.5475 634.192 63.9316 634.843C64.3158 635.494 64.5078 636.243 64.5078 637.089C64.5078 638 64.3158 638.778 63.9316 639.423C63.5475 640.067 62.9844 640.559 62.2422 640.897C61.5 641.229 60.5918 641.396 59.5176 641.396H55.7285ZM69.3418 632.753L73.9805 644.374L78.6191 632.753H80.4648L74.6934 646.972H73.2578L67.4961 632.753H69.3418ZM68.5215 632.753L68.7852 641.415V646.972H66.9004V632.753H68.5215ZM81.0605 632.753V646.972H79.1758V641.415L79.4395 632.753H81.0605Z" fill="white" fill-opacity="0.3"/>
<path d="M98 640.843H1626" stroke="white" stroke-opacity="0.3" stroke-width="2"/>
<path d="M161.904 22.6094C161.904 21.9355 161.763 21.3643 161.479 20.8955C161.196 20.4268 160.688 20.002 159.956 19.6211C159.224 19.2402 158.184 18.8545 156.836 18.4639C155.781 18.1611 154.829 17.8193 153.979 17.4385C153.14 17.0479 152.417 16.6035 151.812 16.1055C151.206 15.6074 150.742 15.0361 150.42 14.3916C150.098 13.7471 149.937 13.0098 149.937 12.1797C149.937 11.0664 150.234 10.0752 150.83 9.20605C151.436 8.32715 152.28 7.63867 153.364 7.14062C154.448 6.63281 155.718 6.37891 157.173 6.37891C158.784 6.37891 160.151 6.68652 161.274 7.30176C162.397 7.90723 163.252 8.70312 163.838 9.68945C164.424 10.666 164.717 11.7109 164.717 12.8242H161.86C161.86 12.0234 161.689 11.3105 161.348 10.6855C161.016 10.0605 160.503 9.57227 159.81 9.2207C159.116 8.85938 158.237 8.67871 157.173 8.67871C156.177 8.67871 155.352 8.83008 154.697 9.13281C154.053 9.43555 153.574 9.8457 153.262 10.3633C152.949 10.8809 152.793 11.4717 152.793 12.1357C152.793 12.7314 152.964 13.2637 153.306 13.7324C153.647 14.1914 154.185 14.6064 154.917 14.9775C155.649 15.3486 156.597 15.7002 157.759 16.0322C159.37 16.4814 160.693 17.0039 161.729 17.5996C162.764 18.1953 163.525 18.8984 164.014 19.709C164.512 20.5195 164.761 21.4766 164.761 22.5801C164.761 23.7324 164.453 24.7383 163.838 25.5977C163.223 26.457 162.358 27.1211 161.245 27.5898C160.132 28.0586 158.823 28.293 157.319 28.293C156.333 28.293 155.361 28.1562 154.404 27.8828C153.457 27.6094 152.593 27.1992 151.812 26.6523C151.04 26.1055 150.42 25.4316 149.951 24.6309C149.492 23.8203 149.263 22.8828 149.263 21.8184H152.104C152.104 22.5508 152.246 23.1807 152.529 23.708C152.812 24.2354 153.198 24.6699 153.687 25.0117C154.175 25.3535 154.731 25.6074 155.356 25.7734C155.981 25.9297 156.636 26.0078 157.319 26.0078C158.306 26.0078 159.136 25.8711 159.81 25.5977C160.493 25.3145 161.011 24.9189 161.362 24.4111C161.724 23.9033 161.904 23.3027 161.904 22.6094ZM183.394 6.67188V21.1006C183.394 22.7021 183.032 24.0352 182.31 25.0996C181.597 26.1641 180.649 26.9648 179.468 27.502C178.296 28.0293 177.021 28.293 175.645 28.293C174.199 28.293 172.891 28.0293 171.719 27.502C170.557 26.9648 169.634 26.1641 168.95 25.0996C168.276 24.0352 167.939 22.7021 167.939 21.1006V6.67188H170.752V21.1006C170.752 22.2139 170.957 23.1318 171.367 23.8545C171.777 24.5771 172.349 25.1191 173.081 25.4805C173.813 25.832 174.668 26.0078 175.645 26.0078C176.631 26.0078 177.49 25.832 178.223 25.4805C178.955 25.1191 179.521 24.5771 179.922 23.8545C180.332 23.1318 180.537 22.2139 180.537 21.1006V6.67188H183.394ZM204.224 28H201.367L190.659 11.5059V28H187.817V6.67188H190.659L201.411 23.21V6.67188H204.224V28ZM210.552 28L210.581 25.7148H215.005C216.519 25.7148 217.783 25.3975 218.799 24.7627C219.814 24.1182 220.576 23.2197 221.084 22.0674C221.602 20.9053 221.86 19.543 221.86 17.9805V16.6621C221.86 15.0312 221.602 13.6445 221.084 12.502C220.576 11.3594 219.829 10.4854 218.843 9.87988C217.856 9.27441 216.66 8.97168 215.254 8.97168H210.464V6.67188H215.254C217.129 6.67188 218.77 7.08203 220.176 7.90234C221.592 8.71289 222.695 9.87012 223.486 11.374C224.277 12.8682 224.673 14.6406 224.673 16.6914V17.9805C224.673 20.041 224.277 21.8184 223.486 23.3125C222.695 24.8066 221.577 25.9639 220.132 26.7842C218.687 27.5947 216.978 28 215.005 28H210.552ZM212.075 28H209.233V6.67188H212.075V28ZM229.785 28H226.855L235 6.67188H236.875L236.831 8.54688L229.785 28ZM235.659 8.54688L235.63 6.67188H237.49L245.649 28H242.734L235.659 8.54688ZM242.383 22.4189H230.386V20.1191H242.383V22.4189ZM252.9 17.3945L258.438 6.67188H261.66L254.321 20.0312V28H251.465V20.0312L244.126 6.67188H247.378L252.9 17.3945Z" fill="white" fill-opacity="0.3"/>
<path d="M370.409 5.67188L377.367 23.1035L384.325 5.67188H387.094L378.437 27H376.283L367.641 5.67188H370.409ZM369.179 5.67188L369.574 18.665V27H366.747V5.67188H369.179ZM387.987 5.67188V27H385.16V18.665L385.556 5.67188H387.987ZM409.389 17.0244C409.389 19.1533 409.037 20.9844 408.334 22.5176C407.631 24.0508 406.64 25.2324 405.36 26.0625C404.081 26.8828 402.572 27.293 400.834 27.293C399.154 27.293 397.665 26.8828 396.366 26.0625C395.067 25.2324 394.052 24.0508 393.319 22.5176C392.587 20.9844 392.221 19.1533 392.221 17.0244V15.6621C392.221 13.5332 392.582 11.7021 393.305 10.1689C394.037 8.62598 395.048 7.44434 396.337 6.62402C397.636 5.79395 399.125 5.37891 400.805 5.37891C402.543 5.37891 404.052 5.79395 405.331 6.62402C406.62 7.44434 407.616 8.62598 408.319 10.1689C409.032 11.7021 409.389 13.5332 409.389 15.6621V17.0244ZM406.576 15.6328C406.576 13.9336 406.347 12.5029 405.888 11.3408C405.429 10.1689 404.77 9.28027 403.91 8.6748C403.051 8.06934 402.016 7.7666 400.805 7.7666C399.643 7.7666 398.627 8.06934 397.758 8.6748C396.898 9.28027 396.229 10.1689 395.751 11.3408C395.282 12.5029 395.048 13.9336 395.048 15.6328V17.0244C395.048 18.7334 395.287 20.1738 395.766 21.3457C396.244 22.5176 396.918 23.4062 397.787 24.0117C398.656 24.6172 399.672 24.9199 400.834 24.9199C402.055 24.9199 403.09 24.6172 403.939 24.0117C404.799 23.4062 405.453 22.5176 405.902 21.3457C406.352 20.1738 406.576 18.7334 406.576 17.0244V15.6328ZM430.028 27H427.172L416.464 10.5059V27H413.622V5.67188H416.464L427.216 22.21V5.67188H430.028V27ZM436.356 27L436.386 24.7148H440.81C442.323 24.7148 443.588 24.3975 444.604 23.7627C445.619 23.1182 446.381 22.2197 446.889 21.0674C447.406 19.9053 447.665 18.543 447.665 16.9805V15.6621C447.665 14.0312 447.406 12.6445 446.889 11.502C446.381 10.3594 445.634 9.48535 444.647 8.87988C443.661 8.27441 442.465 7.97168 441.059 7.97168H436.269V5.67188H441.059C442.934 5.67188 444.574 6.08203 445.98 6.90234C447.396 7.71289 448.5 8.87012 449.291 10.374C450.082 11.8682 450.478 13.6406 450.478 15.6914V16.9805C450.478 19.041 450.082 20.8184 449.291 22.3125C448.5 23.8066 447.382 24.9639 445.937 25.7842C444.491 26.5947 442.782 27 440.81 27H436.356ZM437.88 27H435.038V5.67188H437.88V27ZM455.59 27H452.66L460.805 5.67188H462.68L462.636 7.54688L455.59 27ZM461.464 7.54688L461.435 5.67188H463.295L471.454 27H468.539L461.464 7.54688ZM468.188 21.4189H456.19V19.1191H468.188V21.4189ZM478.705 16.3945L484.242 5.67188H487.465L480.126 19.0312V27H477.27V19.0312L469.931 5.67188H473.183L478.705 16.3945Z" fill="white" fill-opacity="0.3"/>
<path d="M591.68 28H588.867V6.67188H591.68V28ZM598.521 8.97168H582.041V6.67188H598.521V8.97168ZM616.714 6.67188V21.1006C616.714 22.7021 616.353 24.0352 615.63 25.0996C614.917 26.1641 613.97 26.9648 612.788 27.502C611.616 28.0293 610.342 28.293 608.965 28.293C607.52 28.293 606.211 28.0293 605.039 27.502C603.877 26.9648 602.954 26.1641 602.271 25.0996C601.597 24.0352 601.26 22.7021 601.26 21.1006V6.67188H604.072V21.1006C604.072 22.2139 604.277 23.1318 604.688 23.8545C605.098 24.5771 605.669 25.1191 606.401 25.4805C607.134 25.832 607.988 26.0078 608.965 26.0078C609.951 26.0078 610.811 25.832 611.543 25.4805C612.275 25.1191 612.842 24.5771 613.242 23.8545C613.652 23.1318 613.857 22.2139 613.857 21.1006V6.67188H616.714ZM634.688 28H623.423V25.7148H634.688V28ZM623.979 28H621.138V6.67188H623.979V28ZM633.193 18.127H623.423V15.8418H633.193V18.127ZM634.541 8.97168H623.423V6.67188H634.541V8.97168ZM649.541 22.6094C649.541 21.9355 649.399 21.3643 649.116 20.8955C648.833 20.4268 648.325 20.002 647.593 19.6211C646.86 19.2402 645.82 18.8545 644.473 18.4639C643.418 18.1611 642.466 17.8193 641.616 17.4385C640.776 17.0479 640.054 16.6035 639.448 16.1055C638.843 15.6074 638.379 15.0361 638.057 14.3916C637.734 13.7471 637.573 13.0098 637.573 12.1797C637.573 11.0664 637.871 10.0752 638.467 9.20605C639.072 8.32715 639.917 7.63867 641.001 7.14062C642.085 6.63281 643.354 6.37891 644.81 6.37891C646.421 6.37891 647.788 6.68652 648.911 7.30176C650.034 7.90723 650.889 8.70312 651.475 9.68945C652.061 10.666 652.354 11.7109 652.354 12.8242H649.497C649.497 12.0234 649.326 11.3105 648.984 10.6855C648.652 10.0605 648.14 9.57227 647.446 9.2207C646.753 8.85938 645.874 8.67871 644.81 8.67871C643.813 8.67871 642.988 8.83008 642.334 9.13281C641.689 9.43555 641.211 9.8457 640.898 10.3633C640.586 10.8809 640.43 11.4717 640.43 12.1357C640.43 12.7314 640.601 13.2637 640.942 13.7324C641.284 14.1914 641.821 14.6064 642.554 14.9775C643.286 15.3486 644.233 15.7002 645.396 16.0322C647.007 16.4814 648.33 17.0039 649.365 17.5996C650.4 18.1953 651.162 18.8984 651.65 19.709C652.148 20.5195 652.397 21.4766 652.397 22.5801C652.397 23.7324 652.09 24.7383 651.475 25.5977C650.859 26.457 649.995 27.1211 648.882 27.5898C647.769 28.0586 646.46 28.293 644.956 28.293C643.97 28.293 642.998 28.1562 642.041 27.8828C641.094 27.6094 640.229 27.1992 639.448 26.6523C638.677 26.1055 638.057 25.4316 637.588 24.6309C637.129 23.8203 636.899 22.8828 636.899 21.8184H639.741C639.741 22.5508 639.883 23.1807 640.166 23.708C640.449 24.2354 640.835 24.6699 641.323 25.0117C641.812 25.3535 642.368 25.6074 642.993 25.7734C643.618 25.9297 644.272 26.0078 644.956 26.0078C645.942 26.0078 646.772 25.8711 647.446 25.5977C648.13 25.3145 648.647 24.9189 648.999 24.4111C649.36 23.9033 649.541 23.3027 649.541 22.6094ZM657.319 28L657.349 25.7148H661.772C663.286 25.7148 664.551 25.3975 665.566 24.7627C666.582 24.1182 667.344 23.2197 667.852 22.0674C668.369 20.9053 668.628 19.543 668.628 17.9805V16.6621C668.628 15.0312 668.369 13.6445 667.852 12.502C667.344 11.3594 666.597 10.4854 665.61 9.87988C664.624 9.27441 663.428 8.97168 662.021 8.97168H657.231V6.67188H662.021C663.896 6.67188 665.537 7.08203 666.943 7.90234C668.359 8.71289 669.463 9.87012 670.254 11.374C671.045 12.8682 671.44 14.6406 671.44 16.6914V17.9805C671.44 20.041 671.045 21.8184 670.254 23.3125C669.463 24.8066 668.345 25.9639 666.899 26.7842C665.454 27.5947 663.745 28 661.772 28H657.319ZM658.843 28H656.001V6.67188H658.843V28ZM676.553 28H673.623L681.768 6.67188H683.643L683.599 8.54688L676.553 28ZM682.427 8.54688L682.397 6.67188H684.258L692.417 28H689.502L682.427 8.54688ZM689.15 22.4189H677.153V20.1191H689.15V22.4189ZM699.668 17.3945L705.205 6.67188H708.428L701.089 20.0312V28H698.232V20.0312L690.894 6.67188H694.146L699.668 17.3945Z" fill="white" fill-opacity="0.3"/>
<path d="M786.897 5.67188H788.978L787.776 11.4287L783.235 27H781.17L782.679 20.5693L786.897 5.67188ZM781.683 20.291L782.679 27H780.643L775.486 5.67188H778.328L781.683 20.291ZM797.708 5.67188H800.564L795.408 27H793.372L794.427 20.2764L797.708 5.67188ZM793.387 20.5693L794.881 27H792.815L788.436 11.4287L787.249 5.67188H789.285L793.387 20.5693ZM817.249 27H805.984V24.7148H817.249V27ZM806.541 27H803.699V5.67188H806.541V27ZM815.755 17.127H805.984V14.8418H815.755V17.127ZM817.103 7.97168H805.984V5.67188H817.103V7.97168ZM822.068 27L822.098 24.7148H826.521C828.035 24.7148 829.3 24.3975 830.315 23.7627C831.331 23.1182 832.093 22.2197 832.601 21.0674C833.118 19.9053 833.377 18.543 833.377 16.9805V15.6621C833.377 14.0312 833.118 12.6445 832.601 11.502C832.093 10.3594 831.346 9.48535 830.359 8.87988C829.373 8.27441 828.177 7.97168 826.771 7.97168H821.98V5.67188H826.771C828.646 5.67188 830.286 6.08203 831.692 6.90234C833.108 7.71289 834.212 8.87012 835.003 10.374C835.794 11.8682 836.189 13.6406 836.189 15.6914V16.9805C836.189 19.041 835.794 20.8184 835.003 22.3125C834.212 23.8066 833.094 24.9639 831.648 25.7842C830.203 26.5947 828.494 27 826.521 27H822.068ZM823.592 27H820.75V5.67188H823.592V27ZM856.844 27H853.987L843.279 10.5059V27H840.438V5.67188H843.279L854.031 22.21V5.67188H856.844V27ZM875.403 27H864.139V24.7148H875.403V27ZM864.695 27H861.854V5.67188H864.695V27ZM873.909 17.127H864.139V14.8418H873.909V17.127ZM875.257 7.97168H864.139V5.67188H875.257V7.97168ZM890.257 21.6094C890.257 20.9355 890.115 20.3643 889.832 19.8955C889.549 19.4268 889.041 19.002 888.309 18.6211C887.576 18.2402 886.536 17.8545 885.188 17.4639C884.134 17.1611 883.182 16.8193 882.332 16.4385C881.492 16.0479 880.77 15.6035 880.164 15.1055C879.559 14.6074 879.095 14.0361 878.772 13.3916C878.45 12.7471 878.289 12.0098 878.289 11.1797C878.289 10.0664 878.587 9.0752 879.183 8.20605C879.788 7.32715 880.633 6.63867 881.717 6.14062C882.801 5.63281 884.07 5.37891 885.525 5.37891C887.137 5.37891 888.504 5.68652 889.627 6.30176C890.75 6.90723 891.604 7.70313 892.19 8.68945C892.776 9.66602 893.069 10.7109 893.069 11.8242H890.213C890.213 11.0234 890.042 10.3105 889.7 9.68555C889.368 9.06055 888.855 8.57227 888.162 8.2207C887.469 7.85937 886.59 7.67871 885.525 7.67871C884.529 7.67871 883.704 7.83008 883.05 8.13281C882.405 8.43555 881.927 8.8457 881.614 9.36328C881.302 9.88086 881.146 10.4717 881.146 11.1357C881.146 11.7314 881.316 12.2637 881.658 12.7324C882 13.1914 882.537 13.6064 883.27 13.9775C884.002 14.3486 884.949 14.7002 886.111 15.0322C887.723 15.4814 889.046 16.0039 890.081 16.5996C891.116 17.1953 891.878 17.8984 892.366 18.709C892.864 19.5195 893.113 20.4766 893.113 21.5801C893.113 22.7324 892.806 23.7383 892.19 24.5977C891.575 25.457 890.711 26.1211 889.598 26.5898C888.484 27.0586 887.176 27.293 885.672 27.293C884.686 27.293 883.714 27.1562 882.757 26.8828C881.81 26.6094 880.945 26.1992 880.164 25.6523C879.393 25.1055 878.772 24.4316 878.304 23.6309C877.845 22.8203 877.615 21.8828 877.615 20.8184H880.457C880.457 21.5508 880.599 22.1807 880.882 22.708C881.165 23.2354 881.551 23.6699 882.039 24.0117C882.527 24.3535 883.084 24.6074 883.709 24.7734C884.334 24.9297 884.988 25.0078 885.672 25.0078C886.658 25.0078 887.488 24.8711 888.162 24.5977C888.846 24.3145 889.363 23.9189 889.715 23.4111C890.076 22.9033 890.257 22.3027 890.257 21.6094ZM898.035 27L898.064 24.7148H902.488C904.002 24.7148 905.267 24.3975 906.282 23.7627C907.298 23.1182 908.06 22.2197 908.567 21.0674C909.085 19.9053 909.344 18.543 909.344 16.9805V15.6621C909.344 14.0312 909.085 12.6445 908.567 11.502C908.06 10.3594 907.312 9.48535 906.326 8.87988C905.34 8.27441 904.144 7.97168 902.737 7.97168H897.947V5.67188H902.737C904.612 5.67188 906.253 6.08203 907.659 6.90234C909.075 7.71289 910.179 8.87012 910.97 10.374C911.761 11.8682 912.156 13.6406 912.156 15.6914V16.9805C912.156 19.041 911.761 20.8184 910.97 22.3125C910.179 23.8066 909.061 24.9639 907.615 25.7842C906.17 26.5947 904.461 27 902.488 27H898.035ZM899.559 27H896.717V5.67188H899.559V27ZM917.269 27H914.339L922.483 5.67188H924.358L924.314 7.54688L917.269 27ZM923.143 7.54688L923.113 5.67188H924.974L933.133 27H930.218L923.143 7.54688ZM929.866 21.4189H917.869V19.1191H929.866V21.4189ZM940.384 16.3945L945.921 5.67188H949.144L941.805 19.0312V27H938.948V19.0312L931.609 5.67188H934.861L940.384 16.3945Z" fill="white" fill-opacity="0.3"/>
<path d="M1018.25 27H1015.44V5.67188H1018.25V27ZM1025.09 7.97168H1008.62V5.67188H1025.09V7.97168ZM1042.17 17.127H1030.66V14.8418H1042.17V17.127ZM1031.1 27H1028.26V5.67188H1031.1V27ZM1044.67 27H1041.82V5.67188H1044.67V27ZM1064.7 5.67188V20.1006C1064.7 21.7021 1064.34 23.0352 1063.62 24.0996C1062.91 25.1641 1061.96 25.9648 1060.78 26.502C1059.61 27.0293 1058.33 27.293 1056.96 27.293C1055.51 27.293 1054.2 27.0293 1053.03 26.502C1051.87 25.9648 1050.94 25.1641 1050.26 24.0996C1049.59 23.0352 1049.25 21.7021 1049.25 20.1006V5.67188H1052.06V20.1006C1052.06 21.2139 1052.27 22.1318 1052.68 22.8545C1053.09 23.5771 1053.66 24.1191 1054.39 24.4805C1055.12 24.832 1055.98 25.0078 1056.96 25.0078C1057.94 25.0078 1058.8 24.832 1059.53 24.4805C1060.27 24.1191 1060.83 23.5771 1061.23 22.8545C1061.64 22.1318 1061.85 21.2139 1061.85 20.1006V5.67188H1064.7ZM1076.19 5.67188C1077.79 5.67188 1079.15 5.91602 1080.26 6.4043C1081.37 6.89258 1082.22 7.61523 1082.79 8.57227C1083.38 9.51953 1083.67 10.6865 1083.67 12.0732C1083.67 13.0498 1083.47 13.9385 1083.07 14.7393C1082.68 15.54 1082.12 16.2236 1081.37 16.79C1080.63 17.3564 1079.75 17.7764 1078.72 18.0498L1077.93 18.3574H1071.31L1071.28 16.0723H1076.26C1077.28 16.0723 1078.12 15.8916 1078.8 15.5303C1079.47 15.1689 1079.97 14.6855 1080.3 14.0801C1080.65 13.4746 1080.82 12.8057 1080.82 12.0732C1080.82 10.833 1080.45 9.8418 1079.72 9.09961C1078.99 8.34766 1077.81 7.97168 1076.19 7.97168H1071.97V27H1069.13V5.67188H1076.19ZM1076.39 17.332H1079.37L1084.61 26.8242V27H1081.56L1076.39 17.332ZM1098.97 21.6094C1098.97 20.9355 1098.83 20.3643 1098.54 19.8955C1098.26 19.4268 1097.75 19.002 1097.02 18.6211C1096.29 18.2402 1095.25 17.8545 1093.9 17.4639C1092.84 17.1611 1091.89 16.8193 1091.04 16.4385C1090.2 16.0479 1089.48 15.6035 1088.87 15.1055C1088.27 14.6074 1087.8 14.0361 1087.48 13.3916C1087.16 12.7471 1087 12.0098 1087 11.1797C1087 10.0664 1087.3 9.0752 1087.89 8.20605C1088.5 7.32715 1089.34 6.63867 1090.43 6.14062C1091.51 5.63281 1092.78 5.37891 1094.24 5.37891C1095.85 5.37891 1097.21 5.68652 1098.34 6.30176C1099.46 6.90723 1100.31 7.70313 1100.9 8.68945C1101.49 9.66602 1101.78 10.7109 1101.78 11.8242H1098.92C1098.92 11.0234 1098.75 10.3105 1098.41 9.68555C1098.08 9.06055 1097.57 8.57227 1096.87 8.2207C1096.18 7.85937 1095.3 7.67871 1094.24 7.67871C1093.24 7.67871 1092.41 7.83008 1091.76 8.13281C1091.12 8.43555 1090.64 8.8457 1090.32 9.36328C1090.01 9.88086 1089.86 10.4717 1089.86 11.1357C1089.86 11.7314 1090.03 12.2637 1090.37 12.7324C1090.71 13.1914 1091.25 13.6064 1091.98 13.9775C1092.71 14.3486 1093.66 14.7002 1094.82 15.0322C1096.43 15.4814 1097.76 16.0039 1098.79 16.5996C1099.83 17.1953 1100.59 17.8984 1101.08 18.709C1101.57 19.5195 1101.82 20.4766 1101.82 21.5801C1101.82 22.7324 1101.52 23.7383 1100.9 24.5977C1100.29 25.457 1099.42 26.1211 1098.31 26.5898C1097.19 27.0586 1095.89 27.293 1094.38 27.293C1093.4 27.293 1092.42 27.1562 1091.47 26.8828C1090.52 26.6094 1089.66 26.1992 1088.87 25.6523C1088.1 25.1055 1087.48 24.4316 1087.01 23.6309C1086.55 22.8203 1086.33 21.8828 1086.33 20.8184H1089.17C1089.17 21.5508 1089.31 22.1807 1089.59 22.708C1089.88 23.2354 1090.26 23.6699 1090.75 24.0117C1091.24 24.3535 1091.79 24.6074 1092.42 24.7734C1093.04 24.9297 1093.7 25.0078 1094.38 25.0078C1095.37 25.0078 1096.2 24.8711 1096.87 24.5977C1097.56 24.3145 1098.07 23.9189 1098.42 23.4111C1098.79 22.9033 1098.97 22.3027 1098.97 21.6094ZM1106.75 27L1106.77 24.7148H1111.2C1112.71 24.7148 1113.98 24.3975 1114.99 23.7627C1116.01 23.1182 1116.77 22.2197 1117.28 21.0674C1117.79 19.9053 1118.05 18.543 1118.05 16.9805V15.6621C1118.05 14.0312 1117.79 12.6445 1117.28 11.502C1116.77 10.3594 1116.02 9.48535 1115.04 8.87988C1114.05 8.27441 1112.85 7.97168 1111.45 7.97168H1106.66V5.67188H1111.45C1113.32 5.67188 1114.96 6.08203 1116.37 6.90234C1117.79 7.71289 1118.89 8.87012 1119.68 10.374C1120.47 11.8682 1120.87 13.6406 1120.87 15.6914V16.9805C1120.87 19.041 1120.47 20.8184 1119.68 22.3125C1118.89 23.8066 1117.77 24.9639 1116.33 25.7842C1114.88 26.5947 1113.17 27 1111.2 27H1106.75ZM1108.27 27H1105.43V5.67188H1108.27V27ZM1125.98 27H1123.05L1131.19 5.67188H1133.07L1133.02 7.54688L1125.98 27ZM1131.85 7.54688L1131.82 5.67188H1133.68L1141.84 27H1138.93L1131.85 7.54688ZM1138.58 21.4189H1126.58V19.1191H1138.58V21.4189ZM1149.09 16.3945L1154.63 5.67188H1157.85L1150.51 19.0312V27H1147.66V19.0312L1140.32 5.67188H1143.57L1149.09 16.3945Z" fill="white" fill-opacity="0.3"/>
<path d="M1254.11 28H1251.27V6.67188H1254.11V28ZM1263.03 18.5664H1253.5V16.2812H1263.03V18.5664ZM1264.48 8.97168H1253.5V6.67188H1264.48V8.97168ZM1274.91 6.67188C1276.52 6.67188 1277.87 6.91602 1278.99 7.4043C1280.1 7.89258 1280.94 8.61523 1281.52 9.57227C1282.11 10.5195 1282.4 11.6865 1282.4 13.0732C1282.4 14.0498 1282.2 14.9385 1281.8 15.7393C1281.41 16.54 1280.84 17.2236 1280.1 17.79C1279.36 18.3564 1278.47 18.7764 1277.45 19.0498L1276.66 19.3574H1270.04L1270.01 17.0723H1274.99C1276 17.0723 1276.85 16.8916 1277.52 16.5303C1278.2 16.1689 1278.7 15.6855 1279.03 15.0801C1279.37 14.4746 1279.54 13.8057 1279.54 13.0732C1279.54 11.833 1279.18 10.8418 1278.44 10.0996C1277.71 9.34766 1276.54 8.97168 1274.91 8.97168H1270.7V28H1267.85V6.67188H1274.91ZM1275.12 18.332H1278.09L1283.34 27.8242V28H1280.29L1275.12 18.332ZM1289.39 28H1286.54V6.67188H1289.39V28ZM1295.83 28L1295.86 25.7148H1300.29C1301.8 25.7148 1303.06 25.3975 1304.08 24.7627C1305.09 24.1182 1305.86 23.2197 1306.36 22.0674C1306.88 20.9053 1307.14 19.543 1307.14 17.9805V16.6621C1307.14 15.0312 1306.88 13.6445 1306.36 12.502C1305.86 11.3594 1305.11 10.4854 1304.12 9.87988C1303.14 9.27441 1301.94 8.97168 1300.53 8.97168H1295.74V6.67188H1300.53C1302.41 6.67188 1304.05 7.08203 1305.46 7.90234C1306.87 8.71289 1307.98 9.87012 1308.77 11.374C1309.56 12.8682 1309.95 14.6406 1309.95 16.6914V17.9805C1309.95 20.041 1309.56 21.8184 1308.77 23.3125C1307.98 24.8066 1306.86 25.9639 1305.41 26.7842C1303.97 27.5947 1302.26 28 1300.29 28H1295.83ZM1297.36 28H1294.51V6.67188H1297.36V28ZM1315.07 28H1312.14L1320.28 6.67188H1322.16L1322.11 8.54688L1315.07 28ZM1320.94 8.54688L1320.91 6.67188H1322.77L1330.93 28H1328.01L1320.94 8.54688ZM1327.66 22.4189H1315.67V20.1191H1327.66V22.4189ZM1338.18 17.3945L1343.72 6.67188H1346.94L1339.6 20.0312V28H1336.75V20.0312L1329.41 6.67188H1332.66L1338.18 17.3945Z" fill="white" fill-opacity="0.3"/>
<path d="M1457.51 21.6094C1457.51 20.9355 1457.37 20.3643 1457.09 19.8955C1456.8 19.4268 1456.3 19.002 1455.56 18.6211C1454.83 18.2402 1453.79 17.8545 1452.44 17.4639C1451.39 17.1611 1450.44 16.8193 1449.59 16.4385C1448.75 16.0479 1448.03 15.6035 1447.42 15.1055C1446.81 14.6074 1446.35 14.0361 1446.03 13.3916C1445.71 12.7471 1445.54 12.0098 1445.54 11.1797C1445.54 10.0664 1445.84 9.0752 1446.44 8.20605C1447.04 7.32715 1447.89 6.63867 1448.97 6.14062C1450.06 5.63281 1451.33 5.37891 1452.78 5.37891C1454.39 5.37891 1455.76 5.68652 1456.88 6.30176C1458.01 6.90723 1458.86 7.70313 1459.45 8.68945C1460.03 9.66602 1460.33 10.7109 1460.33 11.8242H1457.47C1457.47 11.0234 1457.3 10.3105 1456.96 9.68555C1456.62 9.06055 1456.11 8.57227 1455.42 8.2207C1454.72 7.85937 1453.85 7.67871 1452.78 7.67871C1451.79 7.67871 1450.96 7.83008 1450.31 8.13281C1449.66 8.43555 1449.18 8.8457 1448.87 9.36328C1448.56 9.88086 1448.4 10.4717 1448.4 11.1357C1448.4 11.7314 1448.57 12.2637 1448.91 12.7324C1449.26 13.1914 1449.79 13.6064 1450.53 13.9775C1451.26 14.3486 1452.21 14.7002 1453.37 15.0322C1454.98 15.4814 1456.3 16.0039 1457.34 16.5996C1458.37 17.1953 1459.13 17.8984 1459.62 18.709C1460.12 19.5195 1460.37 20.4766 1460.37 21.5801C1460.37 22.7324 1460.06 23.7383 1459.45 24.5977C1458.83 25.457 1457.97 26.1211 1456.85 26.5898C1455.74 27.0586 1454.43 27.293 1452.93 27.293C1451.94 27.293 1450.97 27.1562 1450.01 26.8828C1449.07 26.6094 1448.2 26.1992 1447.42 25.6523C1446.65 25.1055 1446.03 24.4316 1445.56 23.6309C1445.1 22.8203 1444.87 21.8828 1444.87 20.8184H1447.71C1447.71 21.5508 1447.85 22.1807 1448.14 22.708C1448.42 23.2354 1448.81 23.6699 1449.29 24.0117C1449.78 24.3535 1450.34 24.6074 1450.96 24.7734C1451.59 24.9297 1452.24 25.0078 1452.93 25.0078C1453.91 25.0078 1454.74 24.8711 1455.42 24.5977C1456.1 24.3145 1456.62 23.9189 1456.97 23.4111C1457.33 22.9033 1457.51 22.3027 1457.51 21.6094ZM1464.84 27H1461.91L1470.05 5.67188H1471.93L1471.88 7.54688L1464.84 27ZM1470.71 7.54688L1470.68 5.67188H1472.54L1480.7 27H1477.79L1470.71 7.54688ZM1477.43 21.4189H1465.44V19.1191H1477.43V21.4189ZM1489.68 27H1486.87V5.67188H1489.68V27ZM1496.52 7.97168H1480.04V5.67188H1496.52V7.97168ZM1514.71 5.67188V20.1006C1514.71 21.7021 1514.35 23.0352 1513.63 24.0996C1512.92 25.1641 1511.97 25.9648 1510.79 26.502C1509.62 27.0293 1508.34 27.293 1506.97 27.293C1505.52 27.293 1504.21 27.0293 1503.04 26.502C1501.88 25.9648 1500.96 25.1641 1500.27 24.0996C1499.6 23.0352 1499.26 21.7021 1499.26 20.1006V5.67188H1502.07V20.1006C1502.07 21.2139 1502.28 22.1318 1502.69 22.8545C1503.1 23.5771 1503.67 24.1191 1504.4 24.4805C1505.13 24.832 1505.99 25.0078 1506.97 25.0078C1507.95 25.0078 1508.81 24.832 1509.54 24.4805C1510.28 24.1191 1510.84 23.5771 1511.24 22.8545C1511.65 22.1318 1511.86 21.2139 1511.86 20.1006V5.67188H1514.71ZM1526.2 5.67188C1527.8 5.67188 1529.16 5.91602 1530.27 6.4043C1531.38 6.89258 1532.23 7.61523 1532.81 8.57227C1533.39 9.51953 1533.68 10.6865 1533.68 12.0732C1533.68 13.0498 1533.48 13.9385 1533.08 14.7393C1532.69 15.54 1532.13 16.2236 1531.38 16.79C1530.64 17.3564 1529.76 17.7764 1528.73 18.0498L1527.94 18.3574H1521.32L1521.29 16.0723H1526.27C1527.29 16.0723 1528.13 15.8916 1528.81 15.5303C1529.48 15.1689 1529.98 14.6855 1530.32 14.0801C1530.66 13.4746 1530.83 12.8057 1530.83 12.0732C1530.83 10.833 1530.46 9.8418 1529.73 9.09961C1529 8.34766 1527.82 7.97168 1526.2 7.97168H1521.98V27H1519.14V5.67188H1526.2ZM1526.4 17.332H1529.38L1534.62 26.8242V27H1531.58L1526.4 17.332ZM1538.94 27L1538.97 24.7148H1543.4C1544.91 24.7148 1546.17 24.3975 1547.19 23.7627C1548.21 23.1182 1548.97 22.2197 1549.48 21.0674C1549.99 19.9053 1550.25 18.543 1550.25 16.9805V15.6621C1550.25 14.0312 1549.99 12.6445 1549.48 11.502C1548.97 10.3594 1548.22 9.48535 1547.23 8.87988C1546.25 8.27441 1545.05 7.97168 1543.65 7.97168H1538.86V5.67188H1543.65C1545.52 5.67188 1547.16 6.08203 1548.57 6.90234C1549.98 7.71289 1551.09 8.87012 1551.88 10.374C1552.67 11.8682 1553.06 13.6406 1553.06 15.6914V16.9805C1553.06 19.041 1552.67 20.8184 1551.88 22.3125C1551.09 23.8066 1549.97 24.9639 1548.52 25.7842C1547.08 26.5947 1545.37 27 1543.4 27H1538.94ZM1540.47 27H1537.62V5.67188H1540.47V27ZM1558.18 27H1555.25L1563.39 5.67188H1565.27L1565.22 7.54688L1558.18 27ZM1564.05 7.54688L1564.02 5.67188H1565.88L1574.04 27H1571.13L1564.05 7.54688ZM1570.77 21.4189H1558.78V19.1191H1570.77V21.4189ZM1581.29 16.3945L1586.83 5.67188H1590.05L1582.71 19.0312V27H1579.86V19.0312L1572.52 5.67188H1575.77L1581.29 16.3945Z" fill="white" fill-opacity="0.3"/>
</svg>
